<svg id="svg" version="1.1" xmlns="http://www.w3.org/2000/svg" xmlns:xlink="http://www.w3.org/1999/xlink" width="400" height="400" viewBox="0, 0, 400,400"><g id="svgg"><path id="path0" d="M324.600 103.047 C 314.920 112.802,300.191 127.597,291.868 135.924 L 276.737 151.065 278.799 153.232 C 281.392 155.958,284.088 159.098,284.566 159.948 C 284.767 160.307,285.055 160.690,285.205 160.800 C 286.464 161.721,292.200 170.964,294.887 176.400 C 303.492 193.811,306.015 218.608,300.971 236.200 C 298.886 243.472,297.356 247.983,296.772 248.580 C 296.567 248.789,296.400 249.198,296.400 249.488 C 296.400 250.173,293.468 256.287,292.297 258.043 C 291.799 258.790,291.168 259.850,290.893 260.400 C 290.076 262.036,288.765 264.123,287.854 265.241 C 287.384 265.817,286.730 266.699,286.400 267.201 C 284.058 270.761,273.600 281.597,269.386 284.830 C 266.795 286.818,259.665 291.549,257.912 292.444 C 248.641 297.177,244.440 298.818,236.200 300.927 C 225.593 303.641,208.541 304.044,197.400 301.843 C 192.207 300.818,182.936 298.128,181.200 297.144 C 180.870 296.957,179.880 296.497,179.000 296.122 C 176.057 294.867,168.202 290.729,168.067 290.362 C 167.993 290.163,167.706 290.000,167.428 290.000 C 167.150 290.000,166.538 289.685,166.067 289.300 C 165.597 288.915,163.925 287.700,162.350 286.600 C 159.815 284.828,154.251 280.231,152.305 278.300 C 151.564 277.564,150.800 277.374,150.800 277.926 C 150.800 278.105,148.010 281.105,144.600 284.594 C 141.190 288.082,138.400 291.085,138.400 291.268 C 138.400 291.451,138.130 291.600,137.800 291.600 C 137.470 291.600,137.200 291.774,137.200 291.986 C 137.200 292.198,135.760 293.813,134.000 295.576 C 132.240 297.338,130.800 298.965,130.800 299.190 C 130.800 299.416,130.530 299.600,130.200 299.600 C 129.870 299.600,129.600 299.870,129.600 300.200 C 129.600 300.530,129.351 300.800,129.047 300.800 C 128.742 300.800,128.399 301.160,128.284 301.600 C 128.169 302.040,127.788 302.400,127.437 302.400 C 126.880 302.400,126.800 303.228,126.800 309.000 C 126.800 314.600,126.709 315.600,126.200 315.600 C 125.728 315.600,125.600 316.156,125.600 318.200 C 125.600 320.244,125.728 320.800,126.200 320.800 C 126.533 320.800,126.800 321.156,126.800 321.600 C 126.800 322.044,126.533 322.400,126.200 322.400 C 125.689 322.400,125.600 323.467,125.600 329.600 C 125.600 335.733,125.689 336.800,126.200 336.800 C 126.533 336.800,126.800 337.156,126.800 337.600 C 126.800 338.044,126.533 338.400,126.200 338.400 C 125.756 338.400,125.600 338.867,125.600 340.200 C 125.600 341.533,125.756 342.000,126.200 342.000 C 126.533 342.000,126.800 342.356,126.800 342.800 C 126.800 343.244,126.533 343.600,126.200 343.600 C 125.800 343.600,125.600 344.000,125.600 344.800 C 125.600 345.600,125.800 346.000,126.200 346.000 C 126.985 346.000,126.991 347.743,126.208 348.393 C 125.800 348.732,125.729 349.094,125.980 349.564 C 126.199 349.972,126.198 350.474,125.978 350.822 C 125.305 351.886,125.505 362.000,126.200 362.000 C 126.533 362.000,126.800 362.356,126.800 362.800 C 126.800 363.244,126.533 363.600,126.200 363.600 C 125.400 363.600,125.308 373.512,126.100 374.401 C 126.523 374.875,126.496 374.883,125.920 374.448 C 125.546 374.166,124.684 373.994,124.004 374.065 C 123.264 374.143,122.631 373.974,122.428 373.645 C 122.165 373.220,122.022 373.301,121.801 373.997 C 121.480 375.009,122.076 375.584,123.457 375.594 C 123.929 375.597,124.418 375.870,124.545 376.200 C 124.671 376.530,125.211 376.800,125.745 376.800 C 126.278 376.800,126.818 377.070,126.945 377.400 C 127.071 377.730,127.496 377.997,127.887 377.994 C 128.494 377.989,128.511 377.930,128.000 377.600 C 127.670 377.387,127.557 377.209,127.749 377.206 C 127.941 377.203,127.874 376.930,127.600 376.600 C 127.191 376.107,127.222 376.000,127.775 376.000 C 128.145 376.000,128.340 376.173,128.209 376.385 C 128.078 376.597,128.337 377.137,128.785 377.585 C 129.233 378.033,129.600 378.561,129.600 378.757 C 129.600 379.191,130.588 379.600,131.633 379.600 C 132.073 379.600,132.400 379.876,132.400 380.247 C 132.400 380.729,132.667 380.842,133.449 380.693 C 134.242 380.541,134.547 380.676,134.696 381.246 C 134.840 381.797,135.257 382.000,136.247 382.000 C 137.183 382.000,137.600 382.185,137.600 382.600 C 137.600 383.015,138.017 383.200,138.953 383.200 C 139.970 383.200,140.359 383.399,140.516 384.000 C 140.657 384.541,141.062 384.800,141.763 384.800 C 142.418 384.800,142.800 385.021,142.800 385.400 C 142.800 385.853,143.289 386.000,144.800 386.000 C 146.311 386.000,146.800 386.147,146.800 386.600 C 146.800 387.019,147.222 387.200,148.200 387.200 C 149.333 387.200,149.600 387.352,149.600 388.000 C 149.600 388.693,149.867 388.800,151.600 388.800 C 153.111 388.800,153.600 388.947,153.600 389.400 C 153.600 389.853,154.089 390.000,155.600 390.000 C 157.111 390.000,157.600 390.147,157.600 390.600 C 157.600 391.051,158.084 391.200,159.553 391.200 C 161.170 391.200,161.543 391.338,161.716 392.000 C 161.896 392.690,162.262 392.800,164.363 392.800 C 166.263 392.800,166.800 392.932,166.800 393.400 C 166.800 393.853,167.289 394.000,168.800 394.000 C 170.311 394.000,170.800 394.147,170.800 394.600 C 170.800 395.086,171.444 395.200,174.200 395.200 C 177.333 395.200,177.600 395.263,177.600 396.000 C 177.600 396.732,177.867 396.800,180.757 396.800 C 183.195 396.800,183.967 396.937,184.145 397.400 C 184.331 397.885,185.256 398.000,188.987 398.000 C 192.821 398.000,193.600 398.101,193.600 398.600 C 193.600 399.126,196.356 399.200,216.000 399.200 C 235.644 399.200,238.400 399.126,238.400 398.600 C 238.400 398.101,239.178 398.000,243.000 398.000 C 246.822 398.000,247.600 397.899,247.600 397.400 C 247.600 396.916,248.226 396.800,250.837 396.800 C 253.738 396.800,254.097 396.717,254.284 396.000 C 254.471 395.285,254.830 395.200,257.659 395.200 C 260.104 395.200,260.878 395.063,261.055 394.600 C 261.217 394.180,261.872 394.000,263.243 394.000 C 264.716 394.000,265.200 393.852,265.200 393.400 C 265.200 392.932,265.737 392.800,267.637 392.800 C 269.738 392.800,270.104 392.690,270.284 392.000 C 270.457 391.338,270.830 391.200,272.447 391.200 C 273.916 391.200,274.400 391.051,274.400 390.600 C 274.400 390.155,274.868 390.000,276.213 390.000 C 277.455 390.000,278.098 389.811,278.255 389.400 C 278.413 388.990,279.054 388.800,280.280 388.800 C 281.738 388.800,282.114 388.650,282.284 388.000 C 282.441 387.399,282.830 387.200,283.847 387.200 C 284.783 387.200,285.200 387.015,285.200 386.600 C 285.200 386.156,285.667 386.000,287.000 386.000 C 288.333 386.000,288.800 385.844,288.800 385.400 C 288.800 384.996,289.204 384.800,290.037 384.800 C 290.938 384.800,291.332 384.583,291.484 384.000 C 291.641 383.399,292.030 383.200,293.047 383.200 C 293.983 383.200,294.400 383.015,294.400 382.600 C 294.400 382.199,294.801 382.000,295.613 382.000 C 296.321 382.000,296.921 381.751,297.055 381.400 C 297.187 381.058,297.783 380.800,298.443 380.800 C 299.205 380.800,299.600 380.595,299.600 380.200 C 299.600 379.796,300.004 379.600,300.837 379.600 C 301.738 379.600,302.132 379.383,302.284 378.800 C 302.432 378.233,302.830 378.000,303.647 378.000 C 304.405 378.000,304.800 377.795,304.800 377.400 C 304.800 376.999,305.201 376.800,306.013 376.800 C 306.721 376.800,307.321 376.551,307.455 376.200 C 307.582 375.870,308.026 375.600,308.443 375.600 C 308.859 375.600,309.560 375.240,310.000 374.800 C 310.440 374.360,310.980 374.000,311.200 374.000 C 311.420 374.000,311.600 373.741,311.600 373.425 C 311.600 373.069,312.095 372.803,312.900 372.725 C 313.678 372.650,314.160 372.399,314.100 372.100 C 314.045 371.825,314.360 371.600,314.800 371.600 C 315.333 371.600,315.600 371.333,315.600 370.800 C 315.600 370.176,315.867 370.000,316.813 370.000 C 317.521 370.000,318.121 369.751,318.255 369.400 C 318.382 369.070,318.736 368.800,319.043 368.800 C 319.349 368.800,319.600 368.530,319.600 368.200 C 319.600 367.827,319.977 367.600,320.597 367.600 C 321.160 367.600,321.810 367.252,322.093 366.800 C 322.368 366.360,322.819 366.000,323.096 366.000 C 323.373 366.000,323.600 365.730,323.600 365.400 C 323.600 365.000,324.000 364.800,324.800 364.800 C 325.600 364.800,326.000 364.600,326.000 364.200 C 326.000 363.870,326.287 363.600,326.637 363.600 C 326.988 363.600,327.369 363.240,327.484 362.800 C 327.599 362.360,327.942 362.000,328.247 362.000 C 328.551 362.000,328.800 361.730,328.800 361.400 C 328.800 361.020,329.183 360.800,329.844 360.800 C 330.935 360.800,332.781 359.360,332.793 358.500 C 332.797 358.225,333.076 358.000,333.413 358.000 C 333.749 358.000,334.129 357.730,334.255 357.400 C 334.382 357.070,334.736 356.800,335.043 356.800 C 335.349 356.800,335.600 356.530,335.600 356.200 C 335.600 355.870,335.870 355.600,336.200 355.600 C 336.533 355.600,336.800 355.244,336.800 354.800 C 336.800 354.267,337.067 354.000,337.600 354.000 C 338.044 354.000,338.400 353.733,338.400 353.400 C 338.400 353.000,338.800 352.800,339.600 352.800 C 340.359 352.800,340.800 352.595,340.800 352.243 C 340.800 351.936,341.070 351.582,341.400 351.455 C 341.730 351.329,342.000 350.949,342.000 350.613 C 342.000 350.267,342.348 350.000,342.800 350.000 C 343.244 350.000,343.600 349.733,343.600 349.400 C 343.600 349.070,343.870 348.800,344.200 348.800 C 344.530 348.800,344.800 348.530,344.800 348.200 C 344.800 347.870,345.070 347.600,345.400 347.600 C 345.733 347.600,346.000 347.244,346.000 346.800 C 346.000 346.267,346.267 346.000,346.800 346.000 C 347.244 346.000,347.600 345.733,347.600 345.400 C 347.600 345.070,347.870 344.800,348.200 344.800 C 348.530 344.800,348.800 344.530,348.800 344.200 C 348.800 343.870,349.070 343.600,349.400 343.600 C 349.733 343.600,350.000 343.244,350.000 342.800 C 350.000 342.348,350.267 342.000,350.613 342.000 C 350.949 342.000,351.329 341.730,351.455 341.400 C 351.582 341.070,351.936 340.800,352.243 340.800 C 352.595 340.800,352.800 340.359,352.800 339.600 C 352.800 338.800,353.000 338.400,353.400 338.400 C 353.733 338.400,354.000 338.044,354.000 337.600 C 354.000 337.067,354.267 336.800,354.800 336.800 C 355.244 336.800,355.600 336.533,355.600 336.200 C 355.600 335.870,355.870 335.600,356.200 335.600 C 356.530 335.600,356.800 335.349,356.800 335.043 C 356.800 334.736,357.070 334.382,357.400 334.255 C 357.730 334.129,358.000 333.770,358.000 333.459 C 358.000 333.148,358.360 332.799,358.800 332.684 C 359.341 332.543,359.600 332.138,359.600 331.437 C 359.600 330.782,359.821 330.400,360.200 330.400 C 360.533 330.400,360.800 330.044,360.800 329.600 C 360.800 329.156,361.067 328.800,361.400 328.800 C 361.730 328.800,362.000 328.530,362.000 328.200 C 362.000 327.870,362.287 327.600,362.637 327.600 C 362.988 327.600,363.369 327.240,363.484 326.800 C 363.599 326.360,363.942 326.000,364.247 326.000 C 364.595 326.000,364.800 325.555,364.800 324.800 C 364.800 324.000,365.000 323.600,365.400 323.600 C 365.730 323.600,366.000 323.373,366.000 323.096 C 366.000 322.819,366.360 322.368,366.800 322.093 C 367.252 321.810,367.600 321.160,367.600 320.597 C 367.600 319.977,367.827 319.600,368.200 319.600 C 368.530 319.600,368.800 319.407,368.800 319.171 C 368.800 318.936,369.070 318.473,369.400 318.143 C 369.730 317.813,370.000 317.106,370.000 316.571 C 370.000 315.867,370.220 315.600,370.800 315.600 C 371.333 315.600,371.600 315.333,371.600 314.800 C 371.600 314.360,371.825 314.045,372.100 314.100 C 372.399 314.160,372.650 313.678,372.725 312.900 C 372.803 312.095,373.069 311.600,373.425 311.600 C 373.815 311.600,374.000 311.150,374.000 310.200 C 374.000 309.067,374.152 308.800,374.800 308.800 C 375.244 308.800,375.600 308.533,375.600 308.200 C 375.600 307.870,375.870 307.600,376.200 307.600 C 376.619 307.600,376.800 307.178,376.800 306.200 C 376.800 305.222,376.981 304.800,377.400 304.800 C 377.795 304.800,378.000 304.405,378.000 303.647 C 378.000 302.830,378.233 302.432,378.800 302.284 C 379.383 302.132,379.600 301.738,379.600 300.837 C 379.600 300.004,379.796 299.600,380.200 299.600 C 380.595 299.600,380.800 299.205,380.800 298.443 C 380.800 297.783,381.058 297.187,381.400 297.055 C 381.751 296.921,382.000 296.321,382.000 295.613 C 382.000 294.801,382.199 294.400,382.600 294.400 C 383.015 294.400,383.200 293.983,383.200 293.047 C 383.200 292.046,383.401 291.641,383.971 291.492 C 384.502 291.353,384.783 290.871,384.871 289.945 C 384.949 289.132,385.198 288.640,385.500 288.700 C 385.841 288.768,386.000 288.227,386.000 287.000 C 386.000 285.700,386.160 285.200,386.576 285.200 C 386.944 285.200,387.196 284.693,387.276 283.792 C 387.344 283.017,387.560 282.402,387.755 282.426 C 388.362 282.498,388.787 281.465,388.794 279.900 C 388.798 278.836,388.974 278.400,389.400 278.400 C 389.730 278.400,389.979 278.265,389.953 278.100 C 389.705 276.533,390.078 274.400,390.600 274.400 C 391.051 274.400,391.200 273.916,391.200 272.447 C 391.200 270.830,391.338 270.457,392.000 270.284 C 392.690 270.104,392.800 269.738,392.800 267.637 C 392.800 265.737,392.932 265.200,393.400 265.200 C 393.872 265.200,394.000 264.644,394.000 262.600 C 394.000 260.556,394.128 260.000,394.600 260.000 C 395.076 260.000,395.200 259.422,395.200 257.200 C 395.200 254.667,395.276 254.400,396.000 254.400 C 396.737 254.400,396.800 254.133,396.800 251.000 C 396.800 248.244,396.914 247.600,397.400 247.600 C 397.730 247.600,397.979 247.465,397.953 247.300 C 397.599 245.062,398.088 238.400,398.606 238.400 C 399.141 238.400,399.210 235.755,399.193 216.000 C 399.177 196.582,399.096 193.600,398.587 193.600 C 398.067 193.600,397.634 187.474,397.971 184.895 C 398.008 184.617,397.759 184.282,397.419 184.152 C 396.933 183.965,396.800 183.237,396.800 180.757 C 396.800 177.867,396.732 177.600,396.000 177.600 C 395.263 177.600,395.200 177.333,395.200 174.200 C 395.200 171.693,395.069 170.826,394.700 170.900 C 394.348 170.970,394.165 170.198,394.082 168.300 C 393.992 166.259,393.822 165.600,393.382 165.600 C 392.970 165.600,392.800 165.134,392.800 164.003 C 392.800 162.840,392.583 162.271,392.000 161.907 C 391.382 161.521,391.200 160.974,391.200 159.504 C 391.200 158.078,391.049 157.600,390.600 157.600 C 390.147 157.600,390.000 157.111,390.000 155.600 C 390.000 154.089,389.853 153.600,389.400 153.600 C 388.984 153.600,388.800 153.181,388.800 152.233 C 388.800 150.471,388.455 149.600,387.757 149.600 C 387.387 149.600,387.200 149.130,387.200 148.200 C 387.200 147.222,387.019 146.800,386.600 146.800 C 386.155 146.800,386.000 146.332,386.000 144.987 C 386.000 143.745,385.811 143.102,385.400 142.945 C 385.058 142.813,384.800 142.217,384.800 141.557 C 384.800 140.667,384.616 140.400,384.000 140.400 C 383.352 140.400,383.200 140.133,383.200 139.000 C 383.200 138.022,383.019 137.600,382.600 137.600 C 382.199 137.600,382.000 137.199,382.000 136.387 C 382.000 135.679,381.751 135.079,381.400 134.945 C 381.058 134.813,380.800 134.217,380.800 133.557 C 380.800 132.795,380.595 132.400,380.200 132.400 C 379.796 132.400,379.600 131.996,379.600 131.163 C 379.600 130.262,379.383 129.868,378.800 129.716 C 378.231 129.567,378.000 129.170,378.000 128.341 C 378.000 127.673,377.743 127.076,377.400 126.945 C 377.070 126.818,376.800 126.278,376.800 125.745 C 376.800 125.211,376.535 124.673,376.211 124.549 C 375.887 124.424,375.507 123.712,375.367 122.965 C 375.227 122.218,374.940 121.714,374.729 121.844 C 374.519 121.974,374.247 121.702,374.126 121.240 C 374.006 120.778,373.658 120.400,373.353 120.400 C 372.988 120.400,372.800 119.925,372.800 119.000 C 372.800 118.057,372.615 117.600,372.232 117.600 C 371.919 117.600,371.548 117.075,371.407 116.433 C 371.266 115.792,370.892 115.167,370.576 115.046 C 370.259 114.924,370.000 114.549,370.000 114.213 C 370.000 113.876,369.730 113.600,369.400 113.600 C 369.000 113.600,368.800 113.200,368.800 112.400 C 368.800 111.645,368.595 111.200,368.247 111.200 C 367.942 111.200,367.599 110.840,367.484 110.400 C 367.369 109.960,366.988 109.600,366.637 109.600 C 366.287 109.600,366.000 109.330,366.000 109.000 C 366.000 108.670,365.730 108.400,365.400 108.400 C 365.005 108.400,364.800 108.005,364.800 107.243 C 364.800 106.583,364.542 105.987,364.200 105.855 C 363.870 105.729,363.600 105.349,363.600 105.013 C 363.600 104.667,363.252 104.400,362.800 104.400 C 362.348 104.400,362.000 104.133,362.000 103.787 C 362.000 103.451,361.730 103.071,361.400 102.945 C 361.070 102.818,360.797 102.329,360.793 101.857 C 360.786 100.969,359.222 99.200,358.444 99.200 C 358.200 99.200,358.000 98.924,358.000 98.587 C 358.000 98.251,357.730 97.871,357.400 97.745 C 357.070 97.618,356.800 97.264,356.800 96.957 C 356.800 96.651,356.530 96.400,356.200 96.400 C 355.870 96.400,355.600 96.130,355.600 95.800 C 355.600 95.467,355.244 95.200,354.800 95.200 C 354.152 95.200,354.000 94.933,354.000 93.800 C 354.000 92.822,353.819 92.400,353.400 92.400 C 353.070 92.400,352.800 92.130,352.800 91.800 C 352.800 91.470,352.551 91.200,352.247 91.200 C 351.942 91.200,351.599 90.840,351.484 90.400 C 351.323 89.783,350.938 89.600,349.808 89.600 C 348.576 89.600,347.971 89.248,346.034 87.400 C 344.735 86.161,343.394 85.224,342.964 85.254 C 342.530 85.285,334.590 92.978,324.600 103.047 M89.600 350.614 C 89.600 350.977,89.960 351.369,90.400 351.484 C 90.840 351.599,91.200 351.942,91.200 352.247 C 91.200 352.551,91.470 352.800,91.800 352.800 C 92.130 352.800,92.400 353.070,92.400 353.400 C 92.400 353.769,92.746 353.982,93.300 353.954 C 94.063 353.914,94.084 353.878,93.442 353.713 C 92.833 353.557,92.794 353.450,93.242 353.166 C 93.695 352.879,93.675 352.811,93.136 352.806 C 92.770 352.803,92.048 352.297,91.531 351.682 C 90.244 350.154,89.600 349.797,89.600 350.614 M99.200 358.595 C 99.200 359.233,101.047 360.786,101.800 360.781 L 102.600 360.776 101.800 360.322 C 101.360 360.073,100.910 359.763,100.800 359.634 C 100.296 359.044,99.200 358.332,99.200 358.595 M104.400 362.768 C 104.400 363.248,104.659 363.600,105.013 363.600 C 105.349 363.600,105.717 363.840,105.830 364.133 C 105.942 364.427,106.297 364.667,106.617 364.667 C 107.356 364.667,107.428 364.791,105.800 363.256 C 104.538 362.065,104.400 362.017,104.400 362.768 M109.600 366.320 C 109.600 366.972,110.590 367.599,111.580 367.575 C 112.588 367.550,112.589 367.545,111.700 367.188 C 111.205 366.989,110.800 366.640,110.800 366.413 C 110.800 366.186,110.530 366.000,110.200 366.000 C 109.870 366.000,109.600 366.144,109.600 366.320 M113.707 369.323 C 113.932 369.998,115.067 370.143,115.067 369.497 C 115.067 369.202,114.725 368.934,114.308 368.903 C 113.880 368.871,113.618 369.054,113.707 369.323 M116.900 371.476 C 117.285 371.576,117.600 371.915,117.600 372.229 C 117.600 372.573,118.003 372.800,118.614 372.800 C 119.504 372.800,119.576 372.702,119.200 372.000 C 118.965 371.560,118.678 371.200,118.562 371.200 C 118.447 371.200,118.480 371.425,118.635 371.700 C 118.861 372.100,118.810 372.100,118.379 371.700 C 118.082 371.425,117.471 371.221,117.020 371.246 C 116.345 371.285,116.324 371.325,116.900 371.476 " stroke="none" fill="#faa91a" fill-rule="evenodd"></path><path id="path1" d="M216.400 96.648 C 216.070 96.733,213.460 96.976,210.600 97.188 C 205.230 97.585,201.519 98.094,198.400 98.861 C 197.410 99.104,195.430 99.535,194.000 99.817 C 192.570 100.100,190.410 100.634,189.200 101.004 C 187.990 101.375,186.010 101.947,184.800 102.277 C 183.590 102.606,182.429 103.039,182.220 103.238 C 182.011 103.437,181.561 103.600,181.220 103.600 C 180.710 103.600,174.995 105.773,171.800 107.182 C 169.193 108.331,163.051 111.414,161.000 112.604 C 159.680 113.369,158.240 114.178,157.800 114.402 C 156.741 114.942,151.970 117.989,150.603 119.000 C 145.492 122.778,143.562 124.306,139.200 128.030 C 133.864 132.586,131.184 135.301,126.400 140.998 C 124.750 142.962,123.163 144.847,122.873 145.185 C 122.178 145.995,117.536 152.413,116.918 153.416 C 116.069 154.797,113.827 158.491,112.943 159.969 C 111.132 162.992,105.499 174.599,105.065 176.200 C 104.945 176.640,104.377 178.260,103.801 179.800 C 103.225 181.340,102.494 183.455,102.177 184.500 C 101.860 185.545,101.311 187.345,100.957 188.500 C 100.603 189.655,100.075 191.680,99.783 193.000 C 99.491 194.320,99.071 196.120,98.850 197.000 C 94.663 213.704,95.391 237.150,100.701 256.600 C 102.553 263.383,102.796 264.156,103.197 264.557 C 103.419 264.779,103.600 265.236,103.600 265.572 C 103.600 266.267,104.799 269.414,106.468 273.101 C 107.090 274.477,107.600 275.709,107.600 275.840 C 107.600 276.078,110.476 281.892,111.340 283.402 C 115.676 290.974,118.658 295.606,121.661 299.434 C 125.134 303.864,126.968 301.250,104.967 323.237 C 94.315 333.882,85.608 342.864,85.617 343.196 C 85.626 343.528,86.522 344.700,87.607 345.800 C 88.692 346.900,89.695 348.322,89.835 348.960 C 90.138 350.341,92.265 352.797,93.164 352.806 C 93.683 352.811,93.698 352.877,93.247 353.163 C 92.840 353.420,93.025 353.586,93.947 353.788 C 94.636 353.940,95.200 354.276,95.200 354.536 C 95.200 354.795,95.567 355.237,96.016 355.517 C 96.464 355.797,96.723 356.200,96.592 356.413 C 96.460 356.626,96.563 356.800,96.819 356.800 C 97.240 356.800,99.838 358.661,101.102 359.868 C 101.379 360.132,101.964 360.462,102.402 360.601 C 102.841 360.740,103.200 361.112,103.200 361.427 C 103.200 361.742,103.486 362.000,103.836 362.000 C 104.529 362.000,106.845 364.003,106.604 364.393 C 106.522 364.526,106.805 364.660,107.232 364.692 C 107.659 364.725,108.289 365.032,108.633 365.375 C 108.976 365.719,109.585 366.000,109.986 366.000 C 110.387 366.000,110.818 366.270,110.945 366.600 C 111.071 366.930,111.407 367.200,111.691 367.200 C 111.975 367.200,112.432 367.560,112.707 368.000 C 112.982 368.440,113.486 368.800,113.827 368.800 C 114.217 368.800,114.336 368.986,114.147 369.300 C 113.972 369.591,114.161 369.550,114.600 369.200 C 115.110 368.794,115.251 368.771,115.037 369.127 C 114.823 369.481,114.995 369.726,115.560 369.874 C 116.022 369.994,116.400 370.342,116.400 370.647 C 116.400 370.951,116.724 371.200,117.120 371.200 C 117.516 371.200,118.082 371.425,118.379 371.700 C 118.816 372.106,118.865 372.087,118.640 371.600 C 118.488 371.270,118.663 371.405,119.030 371.900 C 119.397 372.395,119.886 372.800,120.117 372.800 C 120.348 372.800,120.866 373.098,121.269 373.462 C 121.850 373.988,122.001 374.009,122.006 373.562 C 122.011 373.104,122.082 373.110,122.390 373.597 C 122.627 373.973,123.227 374.147,124.004 374.065 C 124.684 373.994,125.546 374.166,125.920 374.448 C 126.496 374.883,126.523 374.875,126.100 374.401 C 125.308 373.512,125.400 363.600,126.200 363.600 C 126.533 363.600,126.800 363.244,126.800 362.800 C 126.800 362.356,126.533 362.000,126.200 362.000 C 125.505 362.000,125.305 351.886,125.978 350.822 C 126.198 350.474,126.199 349.972,125.980 349.564 C 125.729 349.094,125.800 348.732,126.208 348.393 C 126.991 347.743,126.985 346.000,126.200 346.000 C 125.800 346.000,125.600 345.600,125.600 344.800 C 125.600 344.000,125.800 343.600,126.200 343.600 C 126.533 343.600,126.800 343.244,126.800 342.800 C 126.800 342.356,126.533 342.000,126.200 342.000 C 125.756 342.000,125.600 341.533,125.600 340.200 C 125.600 338.867,125.756 338.400,126.200 338.400 C 126.533 338.400,126.800 338.044,126.800 337.600 C 126.800 337.156,126.533 336.800,126.200 336.800 C 125.689 336.800,125.600 335.733,125.600 329.600 C 125.600 323.467,125.689 322.400,126.200 322.400 C 126.533 322.400,126.800 322.044,126.800 321.600 C 126.800 321.156,126.533 320.800,126.200 320.800 C 125.728 320.800,125.600 320.244,125.600 318.200 C 125.600 316.156,125.728 315.600,126.200 315.600 C 126.709 315.600,126.800 314.600,126.800 309.000 C 126.800 303.228,126.880 302.400,127.437 302.400 C 127.788 302.400,128.169 302.040,128.284 301.600 C 128.399 301.160,128.742 300.800,129.047 300.800 C 129.351 300.800,129.600 300.530,129.600 300.200 C 129.600 299.870,129.870 299.600,130.200 299.600 C 130.530 299.600,130.800 299.416,130.800 299.190 C 130.800 298.965,132.240 297.338,134.000 295.576 C 135.760 293.813,137.200 292.198,137.200 291.986 C 137.200 291.774,137.470 291.600,137.800 291.600 C 138.130 291.600,138.400 291.451,138.400 291.268 C 138.400 291.085,141.173 288.099,144.562 284.632 C 149.333 279.752,150.781 278.025,150.977 276.981 C 151.185 275.871,154.481 272.376,169.715 257.107 C 191.716 235.056,189.541 237.533,188.337 235.901 C 183.705 229.624,181.495 219.312,182.957 210.802 C 183.313 208.731,183.783 206.857,184.002 206.638 C 184.221 206.419,184.400 205.836,184.400 205.342 C 184.400 204.474,187.287 198.471,187.920 198.021 C 188.091 197.899,188.591 197.218,189.032 196.507 C 191.872 191.921,200.380 185.550,204.975 184.569 C 205.649 184.425,206.444 184.111,206.742 183.870 C 208.857 182.162,222.803 182.128,226.132 183.823 C 226.755 184.141,227.577 184.400,227.959 184.400 C 228.715 184.400,234.817 187.394,235.178 187.942 C 235.762 188.831,237.249 189.258,237.915 188.728 C 238.280 188.437,246.764 180.035,256.769 170.055 C 266.774 160.075,275.599 151.496,276.380 150.990 C 279.989 148.653,302.899 124.956,302.212 124.269 C 300.133 122.190,290.248 115.489,284.600 112.329 C 282.665 111.247,277.592 108.755,274.100 107.171 C 273.165 106.747,271.615 106.040,270.656 105.600 C 269.697 105.160,268.628 104.800,268.280 104.800 C 267.932 104.800,267.536 104.620,267.400 104.400 C 267.264 104.180,266.848 103.999,266.476 103.998 C 266.104 103.996,265.260 103.713,264.600 103.368 C 263.940 103.023,262.680 102.585,261.800 102.394 C 260.920 102.203,258.940 101.658,257.400 101.183 C 255.860 100.708,253.430 100.078,252.000 99.785 C 250.570 99.491,248.680 99.069,247.800 98.848 C 241.514 97.267,219.871 95.751,216.400 96.648 M127.548 376.537 C 127.793 376.832,127.897 377.170,127.779 377.287 C 127.662 377.405,127.847 377.609,128.192 377.742 C 128.696 377.935,128.741 377.837,128.423 377.244 C 128.206 376.837,128.142 376.392,128.281 376.253 C 128.420 376.114,128.211 376.000,127.818 376.000 C 127.264 376.000,127.203 376.122,127.548 376.537 " stroke="none" fill="#fbf7e1" fill-rule="evenodd"></path><path id="path2" d="M192.400 0.400 C 192.400 0.643,190.648 0.800,187.944 0.800 C 184.489 0.800,183.388 0.932,183.044 1.389 C 182.712 1.828,181.612 1.992,178.700 2.037 C 175.680 2.083,174.800 2.221,174.800 2.648 C 174.800 3.056,174.119 3.213,172.200 3.250 C 170.770 3.277,169.420 3.345,169.200 3.400 C 168.980 3.455,168.620 3.523,168.400 3.550 C 168.180 3.578,168.045 3.825,168.100 4.100 C 168.169 4.445,167.458 4.638,165.803 4.723 C 164.234 4.803,163.295 5.045,163.083 5.423 C 162.864 5.815,162.066 6.000,160.600 6.000 C 159.136 6.000,158.336 6.186,158.118 6.576 C 157.914 6.940,157.025 7.187,155.698 7.247 C 153.970 7.326,153.600 7.472,153.600 8.071 C 153.600 8.687,153.262 8.800,151.429 8.800 C 150.067 8.800,149.041 9.016,148.678 9.379 C 148.360 9.697,147.261 10.001,146.236 10.054 C 144.889 10.124,144.428 10.296,144.574 10.675 C 144.749 11.134,143.234 11.458,141.900 11.247 C 141.735 11.221,141.600 11.560,141.600 12.000 C 141.600 12.693,141.333 12.800,139.600 12.800 C 138.089 12.800,137.600 12.947,137.600 13.400 C 137.600 13.817,137.181 14.000,136.229 14.000 C 135.474 14.000,134.587 14.270,134.257 14.600 C 133.927 14.930,133.201 15.200,132.643 15.200 C 132.038 15.200,131.455 15.523,131.200 16.000 C 130.920 16.524,130.362 16.800,129.586 16.800 C 128.798 16.800,128.400 17.002,128.400 17.400 C 128.400 17.943,127.170 18.192,124.900 18.107 C 124.625 18.097,124.400 18.339,124.400 18.644 C 124.400 18.950,124.130 19.223,123.800 19.250 C 123.470 19.278,123.020 19.345,122.800 19.400 C 122.580 19.455,122.220 19.523,122.000 19.550 C 121.780 19.578,121.645 19.821,121.700 20.091 C 121.755 20.360,121.350 20.643,120.800 20.719 C 120.250 20.795,119.604 21.109,119.364 21.417 C 119.124 21.725,118.372 22.020,117.692 22.072 C 117.012 22.124,116.546 22.313,116.658 22.493 C 116.866 22.830,114.461 23.851,113.870 23.677 C 113.689 23.624,113.647 23.752,113.776 23.961 C 113.906 24.171,113.649 24.457,113.206 24.598 C 112.763 24.739,112.400 25.112,112.400 25.427 C 112.400 25.798,111.973 26.000,111.187 26.000 C 110.479 26.000,109.879 26.249,109.745 26.600 C 109.618 26.930,109.067 27.200,108.520 27.200 C 107.862 27.200,107.454 27.471,107.316 28.000 C 107.158 28.605,106.770 28.800,105.730 28.800 C 104.856 28.800,104.449 28.956,104.617 29.227 C 104.762 29.462,104.503 29.753,104.040 29.874 C 103.578 29.994,103.200 30.342,103.200 30.647 C 103.200 30.999,102.749 31.200,101.963 31.200 C 101.111 31.200,100.667 31.423,100.538 31.915 C 100.430 32.330,99.927 32.665,99.340 32.713 C 98.069 32.818,97.520 33.148,97.817 33.628 C 97.944 33.832,97.761 34.000,97.411 34.000 C 97.061 34.000,96.671 34.270,96.545 34.600 C 96.418 34.930,95.974 35.200,95.557 35.200 C 95.141 35.200,94.440 35.560,94.000 36.000 C 93.560 36.440,93.020 36.800,92.800 36.800 C 92.580 36.800,92.400 37.070,92.400 37.400 C 92.400 37.730,92.130 38.000,91.800 38.000 C 91.470 38.000,91.200 38.270,91.200 38.600 C 91.200 38.937,90.843 39.200,90.384 39.200 C 89.380 39.200,87.200 40.758,87.200 41.475 C 87.200 41.764,86.790 42.000,86.289 42.000 C 85.788 42.000,85.092 42.315,84.744 42.700 C 84.395 43.085,83.555 43.839,82.878 44.376 C 82.201 44.913,81.737 45.498,81.847 45.676 C 81.957 45.854,81.677 46.000,81.224 46.000 C 80.758 46.000,80.400 46.261,80.400 46.600 C 80.400 47.147,79.840 47.356,78.504 47.308 C 78.232 47.298,78.095 47.430,78.200 47.600 C 78.436 47.982,77.414 48.880,77.100 48.566 C 76.975 48.442,76.754 48.713,76.610 49.170 C 76.465 49.626,76.088 50.000,75.773 50.000 C 75.458 50.000,75.200 50.270,75.200 50.600 C 75.200 50.930,75.029 51.200,74.821 51.200 C 74.270 51.200,72.400 53.012,72.400 53.546 C 72.400 53.796,72.130 54.000,71.800 54.000 C 71.470 54.000,71.200 54.250,71.200 54.555 C 71.200 54.877,70.592 55.225,69.759 55.381 C 68.967 55.530,68.408 55.741,68.518 55.851 C 69.050 56.383,68.097 58.183,67.279 58.191 C 66.801 58.196,66.453 58.380,66.505 58.600 C 66.557 58.820,66.780 58.940,67.000 58.867 C 67.220 58.793,67.250 58.883,67.067 59.067 C 66.883 59.250,66.426 59.400,66.051 59.400 C 65.676 59.400,64.797 59.985,64.098 60.700 C 63.399 61.415,62.641 62.000,62.413 62.000 C 62.186 62.000,62.000 62.186,62.000 62.413 C 62.000 62.641,61.415 63.399,60.700 64.098 C 59.985 64.797,59.400 65.556,59.400 65.784 C 59.400 66.013,59.145 66.200,58.833 66.200 C 58.522 66.200,58.192 66.425,58.100 66.700 C 58.008 66.975,58.128 67.200,58.367 67.200 C 58.605 67.200,58.935 67.200,59.100 67.200 C 59.265 67.200,59.406 67.065,59.414 66.900 C 59.448 66.175,60.468 64.817,60.912 64.904 C 61.180 64.957,61.361 64.793,61.314 64.541 C 61.262 64.268,61.548 64.166,62.020 64.289 C 62.596 64.440,62.751 64.338,62.588 63.912 C 62.464 63.591,62.687 63.074,63.082 62.764 C 63.721 62.262,63.746 62.270,63.303 62.837 C 63.030 63.187,62.921 63.588,63.060 63.727 C 63.200 63.867,63.083 64.259,62.800 64.600 C 62.129 65.409,62.635 65.896,63.552 65.323 C 64.111 64.974,64.267 64.999,64.267 65.438 C 64.267 65.747,63.952 66.000,63.568 66.000 C 63.012 66.000,62.910 66.252,63.065 67.236 C 63.191 68.036,63.034 68.721,62.620 69.178 C 62.047 69.811,62.044 69.939,62.590 70.392 C 62.925 70.670,63.200 71.493,63.200 72.220 C 63.200 73.142,63.411 73.597,63.900 73.724 C 64.567 73.898,64.567 73.909,63.900 73.954 C 63.077 74.008,62.892 76.231,63.687 76.496 C 64.225 76.675,63.373 79.965,62.660 80.458 C 62.135 80.822,63.249 84.400,63.887 84.400 C 64.169 84.400,64.400 84.670,64.400 85.000 C 64.400 85.330,64.148 85.600,63.840 85.600 C 63.481 85.600,63.207 86.208,63.076 87.300 C 62.963 88.235,62.744 89.495,62.589 90.100 C 62.369 90.957,62.447 91.200,62.943 91.200 C 63.771 91.200,63.422 98.620,62.547 99.631 C 61.820 100.471,61.850 101.600,62.600 101.600 C 63.441 101.600,63.433 105.479,62.590 106.411 C 62.064 106.993,62.058 107.150,62.549 107.558 C 63.006 107.937,63.029 108.268,62.665 109.233 C 62.324 110.136,62.326 110.507,62.672 110.721 C 62.986 110.915,63.172 113.401,63.254 118.532 C 63.354 124.739,63.482 126.118,63.980 126.396 C 64.509 126.693,64.498 126.829,63.892 127.499 C 63.041 128.439,62.990 129.600,63.800 129.600 C 64.219 129.600,64.400 130.022,64.400 131.000 C 64.400 131.978,64.219 132.400,63.800 132.400 C 63.385 132.400,63.200 132.817,63.200 133.751 C 63.200 134.494,62.925 135.330,62.590 135.608 C 62.043 136.062,62.043 136.185,62.590 136.789 C 63.328 137.605,63.384 138.671,62.700 138.901 C 62.300 139.036,62.300 139.348,62.700 140.463 C 63.299 142.134,63.378 148.400,62.800 148.400 C 62.580 148.400,62.400 148.940,62.400 149.600 C 62.400 150.260,62.580 150.800,62.800 150.800 C 63.027 150.800,63.200 151.956,63.200 153.469 C 63.200 155.390,63.385 156.342,63.862 156.869 C 64.478 157.549,64.478 157.651,63.862 158.331 C 63.498 158.734,63.200 159.619,63.200 160.298 C 63.200 160.978,62.990 161.603,62.733 161.689 C 62.093 161.902,63.184 165.600,63.887 165.600 C 64.169 165.600,64.400 165.870,64.400 166.200 C 64.400 166.530,64.142 166.800,63.828 166.800 C 63.288 166.800,63.128 169.017,62.862 180.200 C 62.801 182.763,63.377 186.722,63.896 187.300 C 64.467 187.937,64.464 188.066,63.862 188.731 C 62.953 189.736,62.901 194.800,63.800 194.800 C 64.130 194.800,64.400 195.070,64.400 195.400 C 64.400 195.730,64.130 196.000,63.800 196.000 C 63.381 196.000,63.200 196.422,63.200 197.400 C 63.200 198.378,63.381 198.800,63.800 198.800 C 64.130 198.800,64.400 199.070,64.400 199.400 C 64.400 199.730,64.130 200.000,63.800 200.000 C 62.939 200.000,62.939 205.285,63.800 206.000 C 64.576 206.644,64.576 208.000,63.800 208.000 C 62.967 208.000,63.011 210.328,63.862 211.269 C 64.478 211.949,64.478 212.051,63.862 212.731 C 62.941 213.749,62.888 220.000,63.800 220.000 C 64.130 220.000,64.400 220.270,64.400 220.600 C 64.400 220.930,64.130 221.200,63.800 221.200 C 63.325 221.200,63.200 221.772,63.200 223.951 C 63.200 225.962,63.031 226.842,62.572 227.223 C 61.883 227.795,62.127 231.565,62.883 232.045 C 63.107 232.187,63.182 233.536,63.061 235.245 C 62.792 239.059,62.779 238.462,63.222 242.600 C 63.663 246.714,63.669 247.083,63.362 251.300 C 63.195 253.606,62.991 254.400,62.568 254.400 C 62.256 254.400,62.000 254.732,62.000 255.138 C 62.000 255.941,63.180 257.200,63.931 257.200 C 64.189 257.200,64.400 257.470,64.400 257.800 C 64.400 258.130,64.130 258.400,63.800 258.400 C 63.297 258.400,63.200 259.247,63.200 263.626 C 63.200 266.501,63.014 269.201,62.786 269.626 C 62.499 270.162,62.502 270.643,62.793 271.188 C 63.066 271.696,63.221 277.077,63.232 286.363 C 63.247 299.523,63.306 300.766,63.924 300.929 C 64.311 301.031,64.130 301.127,63.500 301.154 C 62.405 301.200,61.718 303.600,62.800 303.600 C 63.020 303.600,63.200 304.230,63.200 305.000 C 63.200 305.978,63.381 306.400,63.800 306.400 C 64.576 306.400,64.576 307.756,63.800 308.400 C 63.375 308.753,63.200 309.686,63.200 311.600 C 63.200 313.514,63.025 314.447,62.600 314.800 C 61.828 315.440,61.828 316.960,62.600 317.600 C 62.930 317.874,63.200 318.706,63.200 319.449 C 63.200 320.383,63.385 320.800,63.800 320.800 C 64.133 320.800,64.400 321.156,64.400 321.600 C 64.400 322.044,64.133 322.400,63.800 322.400 C 63.289 322.400,63.200 323.467,63.200 329.600 C 63.200 335.733,63.289 336.800,63.800 336.800 C 64.133 336.800,64.400 337.156,64.400 337.600 C 64.400 338.044,64.133 338.400,63.800 338.400 C 63.400 338.400,63.200 338.800,63.200 339.600 C 63.200 340.400,63.000 340.800,62.600 340.800 C 62.181 340.800,62.000 341.222,62.000 342.200 C 62.000 343.178,62.181 343.600,62.600 343.600 C 63.100 343.600,63.200 344.395,63.200 348.351 C 63.200 352.086,63.072 353.209,62.600 353.600 C 62.270 353.874,62.000 354.436,62.000 354.849 C 62.000 355.262,62.270 355.600,62.600 355.600 C 62.930 355.600,63.200 355.870,63.200 356.200 C 63.200 356.530,63.470 356.800,63.800 356.800 C 64.133 356.800,64.400 357.156,64.400 357.600 C 64.400 358.044,64.133 358.400,63.800 358.400 C 63.470 358.400,63.200 358.670,63.200 359.000 C 63.200 359.330,62.930 359.600,62.600 359.600 C 62.200 359.600,62.000 360.000,62.000 360.800 C 62.000 361.577,62.203 362.000,62.575 362.000 C 63.396 362.000,63.828 365.227,63.171 366.454 C 62.893 366.974,62.650 367.490,62.632 367.600 C 62.615 367.710,62.476 367.759,62.325 367.708 C 62.173 367.658,62.117 367.969,62.200 368.400 C 62.402 369.448,61.938 369.665,61.200 368.868 C 60.530 368.144,60.530 368.014,61.199 367.600 C 61.527 367.398,61.472 367.236,61.013 367.060 C 60.630 366.914,60.460 366.973,60.603 367.205 C 60.737 367.422,60.657 367.600,60.424 367.600 C 60.028 367.600,59.830 367.031,59.963 366.270 C 59.994 366.089,59.840 366.052,59.621 366.187 C 59.401 366.323,58.907 366.066,58.522 365.617 C 58.137 365.168,57.592 364.800,57.311 364.800 C 57.030 364.800,56.800 364.541,56.800 364.224 C 56.800 363.907,56.621 363.536,56.401 363.401 C 56.145 363.242,56.151 363.544,56.418 364.247 C 56.900 365.516,58.701 367.308,59.190 367.006 C 59.375 366.892,59.436 367.139,59.328 367.554 C 59.219 367.970,59.326 368.431,59.565 368.578 C 59.804 368.726,60.000 368.657,60.000 368.424 C 60.000 368.191,60.180 368.000,60.400 368.000 C 60.620 368.000,60.779 368.135,60.753 368.300 C 60.600 369.269,60.878 370.000,61.400 370.000 C 61.730 370.000,62.000 370.270,62.000 370.600 C 62.000 371.240,62.476 371.391,62.962 370.905 C 63.411 370.456,64.540 370.544,65.100 371.071 C 65.898 371.824,65.682 372.020,64.598 371.526 C 63.340 370.953,62.737 371.472,63.777 372.233 C 65.490 373.486,69.600 372.206,69.600 370.419 C 69.600 370.189,69.771 370.000,69.979 370.000 C 70.530 370.000,72.400 368.188,72.400 367.654 C 72.400 367.404,72.681 367.200,73.024 367.200 C 73.367 367.200,73.528 367.008,73.383 366.773 C 73.238 366.538,73.481 366.252,73.923 366.136 C 74.365 366.021,74.821 365.565,74.936 365.123 C 75.059 364.652,75.334 364.436,75.600 364.600 C 75.868 364.766,76.144 364.537,76.274 364.040 C 76.394 363.578,76.742 363.200,77.047 363.200 C 77.351 363.200,77.600 362.930,77.600 362.600 C 77.600 362.270,77.870 362.000,78.200 362.000 C 78.530 362.000,78.800 361.751,78.800 361.447 C 78.800 361.142,79.160 360.799,79.600 360.684 C 80.040 360.569,80.400 360.188,80.400 359.837 C 80.400 359.487,80.670 359.200,81.000 359.200 C 81.330 359.200,81.600 358.930,81.600 358.600 C 81.600 358.270,81.870 358.000,82.200 358.000 C 82.530 358.000,82.800 357.751,82.800 357.447 C 82.800 357.142,83.178 356.794,83.640 356.674 C 84.137 356.544,84.366 356.268,84.200 356.000 C 84.034 355.732,84.263 355.456,84.760 355.326 C 85.222 355.206,85.600 354.858,85.600 354.553 C 85.600 354.249,85.870 354.000,86.200 354.000 C 86.530 354.000,86.800 353.730,86.800 353.400 C 86.800 353.070,87.004 352.800,87.254 352.800 C 87.504 352.800,88.135 352.340,88.656 351.777 C 89.968 350.361,89.609 349.339,86.761 346.392 C 85.462 345.049,84.402 343.736,84.405 343.475 C 84.419 342.333,84.937 341.200,85.447 341.200 C 85.751 341.200,86.000 340.930,86.000 340.600 C 86.000 340.270,86.150 340.000,86.333 340.000 C 87.193 340.000,123.205 303.763,123.203 302.900 C 123.201 302.405,123.045 302.000,122.856 302.000 C 122.510 302.000,121.144 300.105,116.633 293.366 C 113.308 288.400,113.286 288.364,112.647 286.949 C 112.336 286.261,111.883 285.575,111.641 285.425 C 111.398 285.275,111.200 284.803,111.200 284.376 C 111.200 283.949,111.046 283.600,110.858 283.600 C 110.456 283.600,107.192 277.245,107.197 276.471 C 107.199 276.181,106.930 275.673,106.600 275.343 C 106.270 275.013,106.000 274.418,106.000 274.020 C 106.000 273.623,105.730 273.074,105.400 272.800 C 105.070 272.526,104.800 271.914,104.800 271.440 C 104.800 270.966,104.553 270.223,104.251 269.789 C 103.949 269.355,103.566 268.370,103.400 267.600 C 103.234 266.830,102.851 265.845,102.549 265.411 C 102.247 264.977,102.000 264.144,102.000 263.560 C 102.000 262.976,101.753 262.293,101.451 262.042 C 101.148 261.791,100.783 260.697,100.639 259.609 C 100.495 258.522,100.212 257.531,100.012 257.407 C 99.811 257.283,99.531 256.331,99.389 255.291 C 99.248 254.251,98.878 252.833,98.566 252.140 C 98.255 251.446,98.000 249.967,98.000 248.853 C 98.000 247.739,97.736 246.236,97.414 245.514 C 97.092 244.791,96.642 242.400,96.414 240.200 C 96.185 238.000,95.834 235.120,95.633 233.800 C 95.160 230.696,95.151 216.679,95.619 212.800 C 95.818 211.150,96.181 207.912,96.425 205.605 C 96.669 203.299,97.123 200.802,97.434 200.057 C 97.745 199.312,98.000 197.859,98.000 196.828 C 98.000 195.797,98.264 194.604,98.587 194.176 C 98.910 193.749,99.180 192.854,99.187 192.186 C 99.194 191.519,99.560 189.948,100.000 188.696 C 100.440 187.444,100.806 186.100,100.813 185.710 C 100.820 185.319,101.090 184.651,101.413 184.224 C 101.736 183.796,102.000 182.954,102.000 182.352 C 102.000 181.750,102.270 180.987,102.600 180.657 C 102.930 180.327,103.200 179.727,103.200 179.323 C 103.200 178.919,103.560 177.916,104.000 177.096 C 104.440 176.275,104.800 175.264,104.800 174.850 C 104.800 174.437,105.070 173.874,105.400 173.600 C 105.730 173.326,106.000 172.696,106.000 172.200 C 106.000 171.704,106.270 171.074,106.600 170.800 C 106.930 170.526,107.200 169.947,107.200 169.514 C 107.200 169.081,107.560 168.269,108.000 167.709 C 108.440 167.150,108.800 166.351,108.800 165.934 C 108.800 165.516,109.070 165.071,109.400 164.945 C 109.730 164.818,110.000 164.440,110.000 164.104 C 110.000 163.515,111.480 160.808,112.025 160.400 C 112.172 160.290,112.430 159.750,112.599 159.200 C 112.769 158.650,113.423 157.544,114.053 156.742 C 114.684 155.941,115.200 155.174,115.200 155.038 C 115.200 154.903,115.830 153.895,116.600 152.800 C 117.370 151.705,118.000 150.646,118.000 150.447 C 118.000 150.248,118.270 149.982,118.600 149.855 C 118.930 149.729,119.201 149.394,119.202 149.113 C 119.203 148.831,119.833 147.915,120.602 147.078 C 121.371 146.240,122.000 145.394,122.000 145.198 C 122.000 145.001,122.248 144.696,122.551 144.520 C 122.854 144.344,123.534 143.570,124.062 142.800 C 126.549 139.173,139.488 126.283,142.251 124.679 C 142.555 124.502,143.253 123.942,143.801 123.434 C 144.349 122.926,145.563 121.991,146.499 121.356 C 147.434 120.722,148.290 120.111,148.400 120.000 C 149.048 119.345,153.811 116.201,155.200 115.512 C 155.750 115.240,156.290 114.896,156.400 114.749 C 156.510 114.602,157.410 114.048,158.400 113.518 C 159.390 112.988,160.950 112.076,161.867 111.493 C 162.783 110.909,164.000 110.315,164.571 110.172 C 165.141 110.028,165.697 109.767,165.806 109.590 C 166.011 109.259,167.929 108.304,171.400 106.805 C 172.500 106.331,173.940 105.705,174.600 105.415 C 175.260 105.125,177.060 104.471,178.600 103.962 C 180.140 103.453,181.850 102.804,182.400 102.520 C 182.950 102.237,183.850 101.998,184.400 101.990 C 184.950 101.981,185.749 101.710,186.176 101.387 C 186.604 101.064,187.467 100.800,188.096 100.800 C 188.725 100.800,189.726 100.555,190.320 100.256 C 190.914 99.957,192.364 99.603,193.542 99.470 C 194.721 99.337,195.891 99.062,196.142 98.859 C 196.394 98.656,197.950 98.296,199.600 98.059 C 201.250 97.823,203.860 97.447,205.400 97.225 C 216.718 95.594,234.949 95.746,243.079 97.539 C 244.136 97.772,245.990 98.143,247.200 98.362 C 251.247 99.097,253.790 99.653,255.000 100.067 C 255.660 100.292,256.991 100.639,257.957 100.837 C 258.924 101.035,259.914 101.354,260.157 101.546 C 260.401 101.739,261.311 102.024,262.180 102.181 C 263.048 102.338,264.123 102.721,264.569 103.033 C 265.014 103.345,265.777 103.600,266.265 103.600 C 266.753 103.600,267.255 103.766,267.381 103.969 C 267.506 104.172,268.192 104.463,268.905 104.615 C 269.617 104.768,270.650 105.114,271.200 105.385 C 271.750 105.657,272.830 106.154,273.600 106.491 C 276.205 107.630,284.992 112.049,286.200 112.828 C 286.860 113.253,287.850 113.827,288.400 114.104 C 289.868 114.844,296.273 119.174,299.403 121.544 C 303.354 124.535,301.506 125.881,323.204 104.200 C 333.882 93.530,342.851 84.800,343.135 84.800 C 343.420 84.800,344.503 85.674,345.543 86.742 C 347.562 88.815,348.738 89.600,349.822 89.600 C 350.193 89.600,355.514 84.573,361.648 78.430 C 373.679 66.380,373.971 65.971,372.000 64.000 C 371.560 63.560,371.200 63.095,371.200 62.967 C 371.200 62.588,367.832 59.214,367.446 59.207 C 366.972 59.198,365.200 57.264,365.200 56.756 C 365.200 56.534,365.025 56.461,364.811 56.593 C 364.597 56.726,364.107 56.466,363.722 56.017 C 363.337 55.568,362.792 55.200,362.511 55.200 C 362.230 55.200,362.000 54.930,362.000 54.600 C 362.000 54.270,361.730 54.000,361.400 54.000 C 361.070 54.000,360.800 53.828,360.800 53.618 C 360.800 53.122,358.878 51.200,358.382 51.200 C 358.172 51.200,358.000 50.930,358.000 50.600 C 358.000 50.270,357.831 50.000,357.625 50.000 C 357.418 50.000,356.653 49.453,355.925 48.785 C 355.196 48.117,354.195 47.468,353.700 47.342 C 353.205 47.216,352.800 46.863,352.800 46.557 C 352.800 46.250,352.622 46.000,352.403 46.000 C 352.185 46.000,351.503 45.473,350.888 44.829 C 350.272 44.185,349.280 43.535,348.684 43.385 C 348.088 43.236,347.600 42.863,347.600 42.557 C 347.600 42.250,347.240 42.000,346.800 42.000 C 346.309 42.000,345.996 41.730,345.990 41.300 C 345.980 40.601,343.707 39.200,342.584 39.200 C 342.263 39.200,342.000 38.930,342.000 38.600 C 342.000 38.270,341.773 38.000,341.496 38.000 C 341.219 38.000,340.768 37.640,340.493 37.200 C 340.218 36.760,339.654 36.400,339.239 36.400 C 338.825 36.400,338.382 36.130,338.255 35.800 C 338.129 35.470,337.771 35.200,337.462 35.200 C 337.152 35.200,336.674 34.930,336.400 34.600 C 336.126 34.270,335.576 34.000,335.178 34.000 C 334.780 34.000,334.351 33.685,334.226 33.300 C 334.101 32.915,333.233 32.243,332.299 31.806 C 331.365 31.370,330.456 30.785,330.280 30.506 C 330.104 30.228,329.764 30.000,329.524 30.000 C 329.284 30.000,328.888 29.730,328.644 29.401 C 328.400 29.071,327.705 28.762,327.100 28.714 C 326.417 28.659,326.000 28.393,326.000 28.013 C 326.000 27.632,325.598 27.377,324.937 27.338 C 324.353 27.305,323.714 26.990,323.518 26.638 C 323.316 26.279,322.645 26.000,321.980 26.000 C 321.198 26.000,320.800 25.798,320.800 25.400 C 320.800 24.881,320.080 24.603,319.112 24.749 C 318.954 24.773,318.632 24.434,318.398 23.996 C 318.164 23.558,317.785 23.200,317.557 23.200 C 317.329 23.200,316.873 22.930,316.543 22.600 C 316.213 22.270,315.525 22.000,315.014 22.000 C 314.503 22.000,313.982 21.730,313.855 21.400 C 313.722 21.053,313.124 20.800,312.440 20.800 C 311.662 20.800,311.177 20.559,311.031 20.100 C 310.880 19.628,310.322 19.365,309.316 19.293 C 308.496 19.235,307.675 18.920,307.492 18.593 C 307.310 18.267,306.629 18.000,305.980 18.000 C 305.198 18.000,304.800 17.798,304.800 17.400 C 304.800 16.996,304.396 16.800,303.563 16.800 C 302.721 16.800,302.266 16.576,302.142 16.100 C 302.011 15.601,301.478 15.367,300.286 15.283 C 299.339 15.218,298.472 14.914,298.287 14.583 C 298.107 14.263,297.448 14.000,296.823 14.000 C 296.181 14.000,295.585 13.739,295.455 13.400 C 295.298 12.989,294.655 12.800,293.413 12.800 C 292.130 12.800,291.600 12.637,291.600 12.243 C 291.600 11.550,290.731 11.200,289.010 11.200 C 288.202 11.200,287.596 10.966,287.455 10.600 C 287.298 10.189,286.655 10.000,285.413 10.000 C 284.068 10.000,283.600 9.845,283.600 9.400 C 283.600 8.947,283.111 8.800,281.600 8.800 C 280.157 8.800,279.600 8.645,279.600 8.243 C 279.600 7.566,278.737 7.200,277.139 7.200 C 276.481 7.200,275.673 6.930,275.343 6.600 C 274.960 6.217,273.973 6.000,272.614 6.000 C 271.091 6.000,270.420 5.829,270.255 5.400 C 270.086 4.959,269.390 4.800,267.627 4.800 C 265.704 4.800,265.150 4.654,264.833 4.061 C 264.511 3.460,263.893 3.306,261.521 3.237 C 259.468 3.177,258.510 2.982,258.283 2.576 C 258.037 2.138,257.054 2.000,254.180 2.000 C 251.087 2.000,250.400 1.891,250.400 1.400 C 250.400 0.900,249.600 0.800,245.600 0.800 C 242.667 0.800,240.800 0.644,240.800 0.400 C 240.800 0.138,232.467 0.000,216.600 0.000 C 200.733 0.000,192.400 0.138,192.400 0.400 M55.206 70.100 C 55.211 70.828,55.286 70.885,55.600 70.400 C 56.101 69.624,56.101 69.200,55.600 69.200 C 55.380 69.200,55.203 69.605,55.206 70.100 M47.200 78.236 C 47.200 78.765,48.349 79.111,48.531 78.637 C 48.683 78.240,48.506 78.072,47.977 78.112 C 47.550 78.144,47.200 78.200,47.200 78.236 M43.600 83.584 C 43.600 83.796,43.206 84.336,42.725 84.784 C 41.988 85.471,41.956 85.600,42.525 85.600 C 42.896 85.600,43.200 85.427,43.200 85.216 C 43.200 85.004,43.594 84.464,44.075 84.016 C 44.812 83.329,44.844 83.200,44.275 83.200 C 43.904 83.200,43.600 83.373,43.600 83.584 M36.270 93.725 C 35.530 94.547,35.311 95.037,35.635 95.145 C 35.907 95.236,36.365 94.970,36.651 94.555 C 36.938 94.140,37.359 93.583,37.586 93.317 C 38.847 91.844,37.622 92.225,36.270 93.725 M272.288 155.215 C 270.356 157.187,268.901 158.800,269.054 158.800 C 269.207 158.800,270.820 157.289,272.637 155.443 C 274.454 153.597,276.180 151.991,276.471 151.875 C 276.866 151.717,276.848 151.659,276.400 151.647 C 276.070 151.638,274.219 153.243,272.288 155.215 M266.482 161.002 C 264.252 163.337,264.695 163.335,267.064 161.000 C 268.068 160.010,268.734 159.201,268.545 159.202 C 268.355 159.202,267.427 160.012,266.482 161.002 M262.623 164.864 C 261.617 165.779,260.886 166.619,260.997 166.730 C 261.108 166.842,262.027 166.093,263.039 165.066 C 265.322 162.751,265.076 162.631,262.623 164.864 M258.535 169.000 C 257.502 169.990,256.776 170.800,256.921 170.800 C 257.067 170.800,258.031 169.990,259.065 169.000 C 260.098 168.010,260.824 167.200,260.679 167.200 C 260.533 167.200,259.569 168.010,258.535 169.000 M255.451 172.031 C 254.870 172.488,254.194 173.253,253.948 173.731 C 253.501 174.600,253.502 174.600,254.359 173.708 C 254.830 173.218,255.606 172.453,256.083 172.008 C 257.216 170.953,256.803 170.968,255.451 172.031 M251.556 175.913 C 250.762 176.731,249.969 177.670,249.795 178.000 C 249.621 178.330,250.315 177.742,251.339 176.693 C 252.957 175.035,253.476 174.364,253.100 174.413 C 253.045 174.420,252.350 175.095,251.556 175.913 M247.574 179.937 C 245.362 182.207,245.211 182.832,247.391 180.700 C 248.459 179.654,249.258 178.726,249.166 178.637 C 249.075 178.547,248.358 179.132,247.574 179.937 M243.300 184.175 C 242.365 185.097,241.600 185.993,241.600 186.165 C 241.600 186.338,242.440 185.651,243.466 184.639 C 244.493 183.627,245.258 182.731,245.166 182.649 C 245.075 182.566,244.235 183.253,243.300 184.175 M209.949 183.580 C 208.930 183.767,207.727 184.118,207.275 184.360 C 206.823 184.602,206.126 184.805,205.726 184.810 C 202.274 184.858,189.928 194.273,188.848 197.681 C 188.758 197.966,188.170 198.856,187.542 199.658 C 186.914 200.459,186.400 201.315,186.400 201.559 C 186.400 201.803,186.040 202.675,185.600 203.496 C 185.160 204.316,184.800 205.284,184.800 205.645 C 184.800 206.007,184.492 206.999,184.117 207.851 C 183.126 210.097,183.092 222.571,184.069 225.200 C 184.438 226.190,184.854 227.573,184.995 228.272 C 185.136 228.972,185.510 229.759,185.826 230.021 C 186.142 230.283,186.400 230.814,186.400 231.200 C 186.400 231.586,186.670 232.126,187.000 232.400 C 187.330 232.674,187.600 233.165,187.600 233.491 C 187.600 233.818,188.161 234.793,188.847 235.659 C 190.242 237.420,190.280 237.298,187.441 240.069 C 186.803 240.691,186.422 241.200,186.593 241.200 C 186.765 241.200,187.500 240.570,188.226 239.800 C 190.004 237.915,190.656 238.022,193.214 240.623 C 195.358 242.804,201.428 247.200,202.295 247.200 C 202.537 247.200,203.245 247.450,203.868 247.756 C 214.613 253.028,230.112 250.170,239.789 241.132 C 243.507 237.661,248.392 230.175,248.402 227.934 C 248.404 227.640,248.667 226.898,248.987 226.283 C 250.573 223.244,250.565 210.227,248.976 207.154 C 248.659 206.541,248.400 205.770,248.400 205.441 C 248.400 203.498,243.777 196.290,240.429 193.015 C 238.028 190.666,237.938 189.982,239.800 188.226 C 240.570 187.500,241.200 186.765,241.200 186.593 C 241.200 186.422,240.691 186.803,240.069 187.441 C 237.265 190.314,237.519 190.259,234.993 188.539 C 232.387 186.764,232.396 186.769,229.956 185.647 C 228.942 185.181,227.839 184.800,227.505 184.800 C 227.171 184.800,226.201 184.508,225.349 184.150 C 223.557 183.398,213.055 183.009,209.949 183.580 M184.082 243.402 C 183.137 244.391,182.507 245.197,182.682 245.193 C 182.857 245.190,183.779 244.380,184.732 243.393 C 185.685 242.407,186.315 241.601,186.132 241.602 C 185.949 241.602,185.027 242.412,184.082 243.402 M180.135 247.400 C 179.102 248.390,178.424 249.197,178.628 249.193 C 179.021 249.186,182.625 245.600,182.239 245.600 C 182.115 245.600,181.169 246.410,180.135 247.400 M177.051 250.431 C 176.470 250.888,175.794 251.653,175.548 252.131 C 175.101 253.000,175.102 253.000,175.959 252.108 C 176.430 251.618,177.206 250.853,177.683 250.408 C 178.816 249.353,178.403 249.368,177.051 250.431 M173.051 254.431 C 172.470 254.888,171.794 255.653,171.548 256.131 C 171.101 257.000,171.102 257.000,171.959 256.108 C 172.430 255.618,173.206 254.853,173.683 254.408 C 174.816 253.353,174.403 253.368,173.051 254.431 M169.174 258.313 C 168.390 259.131,167.597 260.070,167.413 260.400 C 167.229 260.730,167.915 260.142,168.939 259.093 C 170.557 257.435,171.076 256.763,170.700 256.813 C 170.645 256.821,169.958 257.496,169.174 258.313 M165.150 262.308 C 162.952 264.651,162.841 265.204,164.991 263.100 C 166.059 262.054,166.846 261.113,166.741 261.008 C 166.636 260.902,165.920 261.488,165.150 262.308 M160.900 266.575 C 159.965 267.497,159.200 268.395,159.200 268.570 C 159.200 268.746,160.029 268.048,161.042 267.021 C 162.056 265.993,162.821 265.095,162.742 265.025 C 162.664 264.955,161.835 265.653,160.900 266.575 M155.066 272.416 C 152.200 275.245,151.566 276.083,151.711 276.852 C 151.884 277.762,151.893 277.765,151.946 276.913 C 151.979 276.371,153.347 274.700,155.467 272.613 C 157.374 270.736,158.859 269.139,158.767 269.064 C 158.675 268.989,157.010 270.497,155.066 272.416 M39.292 344.075 C 39.491 344.673,40.400 345.002,40.400 344.476 C 40.400 344.261,40.115 343.976,39.767 343.843 C 39.377 343.693,39.194 343.782,39.292 344.075 M42.000 347.584 C 42.000 347.781,42.444 348.291,42.986 348.718 C 43.529 349.145,43.859 349.608,43.720 349.747 C 43.581 349.886,43.677 350.000,43.933 350.000 C 44.607 350.000,44.508 349.216,43.800 348.945 C 43.470 348.818,43.200 348.483,43.200 348.200 C 43.200 347.917,42.930 347.582,42.600 347.455 C 42.270 347.329,42.000 347.386,42.000 347.584 M47.341 354.166 C 47.375 354.741,47.694 355.236,48.100 355.342 C 49.007 355.579,48.988 355.139,48.041 354.048 L 47.283 353.173 47.341 354.166 M49.039 355.938 C 48.900 356.161,48.982 356.465,49.220 356.612 C 49.835 356.993,50.232 356.472,49.718 355.958 C 49.431 355.671,49.207 355.664,49.039 355.938 M52.196 359.905 C 52.731 360.440,53.400 360.784,53.684 360.670 C 54.031 360.531,53.986 360.453,53.547 360.432 C 53.187 360.414,52.807 360.070,52.702 359.667 C 52.596 359.263,52.221 358.933,51.867 358.933 C 51.367 358.933,51.440 359.149,52.196 359.905 " stroke="none" fill="#6698c3" fill-rule="evenodd"></path><path id="path3" d="M355.200 48.200 C 355.945 48.750,356.637 49.200,356.736 49.200 C 356.836 49.200,356.431 48.750,355.838 48.200 C 355.244 47.650,354.553 47.200,354.302 47.200 C 354.050 47.200,354.455 47.650,355.200 48.200 M365.200 56.756 C 365.200 56.977,365.650 57.644,366.200 58.238 C 366.958 59.056,367.200 59.157,367.200 58.658 C 367.200 58.296,366.930 58.000,366.600 58.000 C 366.270 58.000,366.000 57.741,366.000 57.424 C 366.000 57.107,365.820 56.736,365.600 56.600 C 365.380 56.464,365.200 56.534,365.200 56.756 M371.064 62.622 C 371.446 63.619,372.802 64.934,372.793 64.300 C 372.789 64.025,372.337 63.374,371.787 62.853 C 371.014 62.119,370.851 62.067,371.064 62.622 M276.501 151.885 C 275.477 152.256,238.400 189.678,238.400 190.341 C 238.400 190.720,239.313 191.923,240.429 193.015 C 243.777 196.290,248.400 203.498,248.400 205.441 C 248.400 205.770,248.659 206.541,248.976 207.154 C 250.565 210.227,250.573 223.244,248.987 226.283 C 248.667 226.898,248.404 227.640,248.402 227.934 C 248.392 230.175,243.507 237.661,239.789 241.132 C 230.112 250.170,214.613 253.028,203.868 247.756 C 203.245 247.450,202.537 247.200,202.295 247.200 C 201.428 247.200,195.358 242.804,193.214 240.623 C 192.011 239.400,190.718 238.400,190.339 238.400 C 189.394 238.400,152.000 275.861,152.000 276.808 C 152.000 277.956,159.724 284.534,165.800 288.560 C 171.758 292.507,178.939 296.222,184.000 297.974 C 196.781 302.398,203.017 303.355,217.400 303.098 C 226.975 302.927,229.544 302.630,236.200 300.927 C 244.440 298.818,248.641 297.177,257.912 292.444 C 259.665 291.549,266.795 286.818,269.386 284.830 C 273.600 281.597,284.058 270.761,286.400 267.201 C 286.730 266.699,287.384 265.817,287.854 265.241 C 288.765 264.123,290.076 262.036,290.893 260.400 C 291.168 259.850,291.799 258.790,292.297 258.043 C 293.468 256.287,296.400 250.173,296.400 249.488 C 296.400 249.198,296.567 248.789,296.772 248.580 C 297.356 247.983,298.886 243.472,300.971 236.200 C 306.015 218.608,303.492 193.811,294.887 176.400 C 292.200 170.964,286.464 161.721,285.205 160.800 C 285.055 160.690,284.767 160.307,284.566 159.948 C 283.095 157.330,277.344 151.580,276.501 151.885 " stroke="none" fill="#14244b" fill-rule="evenodd"></path><path id="path4" d="M62.815 62.982 C 62.549 63.303,62.465 63.781,62.628 64.045 C 62.836 64.383,62.672 64.460,62.076 64.304 C 61.570 64.172,61.262 64.260,61.314 64.523 C 61.361 64.765,61.183 64.972,60.917 64.982 C 60.652 64.992,60.143 65.360,59.788 65.800 C 59.432 66.240,59.272 66.347,59.432 66.038 C 59.629 65.660,59.567 65.573,59.242 65.774 C 58.874 66.002,58.871 66.203,59.230 66.636 C 59.723 67.230,59.512 67.347,58.200 67.207 C 57.760 67.160,57.538 67.262,57.707 67.434 C 57.875 67.606,57.458 67.980,56.778 68.266 C 56.099 68.551,55.655 68.965,55.790 69.184 C 56.143 69.756,55.280 71.200,54.586 71.200 C 54.264 71.200,54.000 71.554,54.000 71.987 C 54.000 72.523,53.808 72.701,53.400 72.545 C 53.020 72.399,52.800 72.550,52.800 72.957 C 52.800 73.311,52.519 73.600,52.176 73.600 C 51.833 73.600,51.664 73.780,51.800 74.000 C 51.936 74.220,51.846 74.400,51.600 74.400 C 51.354 74.400,51.264 74.580,51.400 74.800 C 51.622 75.160,51.097 75.373,50.300 75.247 C 50.135 75.221,50.000 75.656,50.000 76.213 C 50.000 76.850,49.712 77.332,49.224 77.513 C 48.474 77.790,48.400 77.908,48.400 78.824 C 48.400 79.057,48.233 79.144,48.029 79.018 C 47.825 78.892,47.543 79.151,47.402 79.594 C 47.261 80.037,46.888 80.400,46.573 80.400 C 46.258 80.400,46.000 80.649,46.000 80.953 C 46.000 81.258,45.626 81.604,45.170 81.724 C 44.574 81.880,44.376 82.203,44.470 82.870 C 44.565 83.552,44.414 83.785,43.904 83.745 C 43.522 83.715,43.297 83.834,43.406 84.009 C 43.728 84.531,43.158 85.600,42.557 85.600 C 42.251 85.600,42.000 85.917,42.000 86.304 C 42.000 86.692,41.466 87.450,40.813 87.989 C 40.160 88.528,39.516 89.471,39.381 90.085 C 39.247 90.698,38.881 91.200,38.568 91.200 C 38.223 91.200,38.000 91.608,38.000 92.243 C 38.000 93.021,37.842 93.225,37.379 93.047 C 37.030 92.914,36.863 92.979,36.998 93.196 C 37.345 93.758,36.473 95.200,35.786 95.200 C 35.464 95.200,35.200 95.470,35.200 95.800 C 35.200 96.130,34.930 96.400,34.600 96.400 C 34.270 96.400,34.021 96.535,34.047 96.700 C 34.225 97.822,33.917 99.200,33.489 99.200 C 32.732 99.200,31.605 100.677,31.336 102.021 C 31.206 102.670,30.873 103.200,30.597 103.200 C 30.320 103.200,29.994 103.578,29.874 104.040 C 29.749 104.516,29.464 104.763,29.217 104.611 C 28.977 104.462,28.814 104.489,28.856 104.670 C 28.990 105.256,28.323 107.200,27.988 107.200 C 27.810 107.200,27.542 107.752,27.394 108.427 C 27.246 109.102,26.872 109.751,26.562 109.870 C 26.253 109.988,26.000 110.606,26.000 111.243 C 26.000 112.005,25.795 112.400,25.400 112.400 C 25.070 112.400,24.800 112.676,24.800 113.013 C 24.800 113.349,24.530 113.729,24.200 113.855 C 23.870 113.982,23.599 114.381,23.597 114.743 C 23.596 115.104,23.237 115.940,22.800 116.600 C 22.363 117.260,22.004 118.115,22.003 118.500 C 22.001 118.885,21.730 119.200,21.400 119.200 C 21.027 119.200,20.800 119.577,20.800 120.195 C 20.800 120.743,20.485 121.559,20.100 122.008 C 19.368 122.863,19.331 122.976,19.250 124.600 C 19.220 125.200,18.960 125.600,18.600 125.600 C 18.181 125.600,18.000 126.022,18.000 127.000 C 18.000 127.978,17.819 128.400,17.400 128.400 C 17.002 128.400,16.800 128.798,16.800 129.580 C 16.800 130.250,16.521 130.916,16.154 131.122 C 15.799 131.320,15.439 132.080,15.354 132.810 C 15.269 133.540,14.930 134.436,14.600 134.800 C 14.270 135.165,14.000 136.034,14.000 136.731 C 14.000 137.592,13.807 138.000,13.400 138.000 C 12.958 138.000,12.800 138.461,12.800 139.753 C 12.800 141.170,12.647 141.547,12.000 141.716 C 11.362 141.883,11.200 142.262,11.200 143.586 C 11.200 144.500,11.039 145.148,10.842 145.026 C 10.399 144.752,10.000 145.729,10.000 147.089 C 10.000 147.651,9.685 148.370,9.300 148.686 C 8.872 149.037,8.833 149.147,9.200 148.971 C 9.687 148.737,9.706 148.784,9.300 149.221 C 9.025 149.518,8.800 150.624,8.800 151.680 C 8.800 153.048,8.641 153.600,8.247 153.600 C 7.639 153.600,7.214 154.788,7.205 156.513 C 7.202 157.124,6.957 157.718,6.661 157.832 C 6.310 157.967,6.096 158.831,6.048 160.311 C 5.998 161.831,5.779 162.692,5.387 162.911 C 4.978 163.140,4.800 163.933,4.800 165.531 C 4.800 167.327,4.627 167.970,4.000 168.507 C 3.350 169.063,3.200 169.687,3.200 171.825 C 3.200 173.631,3.012 174.645,2.600 175.057 C 2.156 175.501,2.000 176.587,2.000 179.229 C 2.000 182.137,1.889 182.800,1.400 182.800 C 0.900 182.800,0.800 183.600,0.800 187.600 C 0.800 190.533,0.644 192.400,0.400 192.400 C 0.138 192.400,0.000 200.733,0.000 216.600 C 0.000 232.467,0.138 240.800,0.400 240.800 C 0.643 240.800,0.800 242.586,0.800 245.357 C 0.800 248.859,0.928 249.963,1.351 250.126 C 1.749 250.279,1.949 251.417,2.073 254.243 C 2.184 256.782,2.411 258.204,2.722 258.307 C 3.027 258.409,3.200 259.398,3.200 261.033 C 3.200 263.067,3.366 263.766,4.000 264.400 C 4.604 265.004,4.800 265.733,4.800 267.371 C 4.800 268.768,5.014 269.757,5.400 270.143 C 5.751 270.494,6.000 271.471,6.000 272.495 C 6.000 273.459,6.264 274.596,6.587 275.024 C 6.910 275.451,7.180 276.370,7.187 277.067 C 7.204 278.744,7.561 279.600,8.243 279.600 C 8.725 279.600,9.112 282.548,8.837 284.130 C 8.806 284.311,8.946 284.357,9.148 284.232 C 9.589 283.960,10.000 284.909,10.000 286.200 C 10.000 287.481,10.410 288.441,10.842 288.174 C 11.171 287.971,11.394 289.468,11.223 290.731 C 11.183 291.023,11.522 291.359,11.975 291.478 C 12.666 291.658,12.800 292.010,12.800 293.647 C 12.800 294.960,12.958 295.567,13.282 295.500 C 13.574 295.440,13.866 296.104,14.020 297.179 C 14.160 298.158,14.483 299.028,14.737 299.112 C 14.992 299.197,15.200 299.703,15.200 300.237 C 15.200 300.771,15.560 301.516,16.000 301.893 C 16.444 302.273,16.800 303.073,16.800 303.689 C 16.800 304.410,17.011 304.800,17.400 304.800 C 17.837 304.800,18.000 305.251,18.000 306.456 C 18.000 307.493,18.233 308.282,18.622 308.567 C 18.965 308.817,19.285 309.287,19.334 309.611 C 19.475 310.547,20.022 311.233,20.428 310.983 C 20.632 310.856,20.800 311.393,20.800 312.176 C 20.800 313.175,20.979 313.600,21.400 313.600 C 21.797 313.600,22.000 313.997,22.000 314.776 C 22.000 315.423,22.183 316.066,22.406 316.204 C 22.629 316.342,23.070 317.072,23.386 317.827 C 23.701 318.582,24.148 319.200,24.380 319.200 C 24.611 319.200,24.800 319.560,24.800 320.000 C 24.800 320.444,25.067 320.800,25.400 320.800 C 25.769 320.800,26.000 321.175,26.000 321.771 C 26.000 322.306,26.280 323.023,26.622 323.364 C 26.964 323.706,27.313 324.350,27.399 324.795 C 27.609 325.886,27.991 326.453,28.361 326.224 C 28.529 326.120,28.697 326.297,28.733 326.618 C 28.770 326.938,28.830 327.460,28.867 327.778 C 28.903 328.096,29.124 328.321,29.357 328.278 C 29.590 328.235,29.843 328.605,29.918 329.100 C 29.994 329.595,30.221 330.000,30.422 330.000 C 30.624 330.000,31.058 330.643,31.386 331.429 C 31.715 332.215,32.143 332.759,32.339 332.638 C 32.534 332.517,32.693 332.729,32.692 333.109 C 32.688 334.503,32.813 334.800,33.400 334.800 C 33.730 334.800,34.000 335.057,34.000 335.371 C 34.000 335.686,34.225 336.181,34.500 336.471 C 34.775 336.762,35.252 337.489,35.560 338.086 C 35.868 338.684,36.285 339.071,36.487 338.946 C 36.689 338.822,36.820 338.963,36.779 339.260 C 36.642 340.258,36.797 340.800,37.219 340.800 C 37.835 340.800,39.622 342.841,39.367 343.253 C 39.247 343.447,39.431 343.714,39.775 343.846 C 40.119 343.978,40.400 344.443,40.400 344.880 C 40.400 345.338,40.739 345.763,41.200 345.884 C 41.640 345.999,42.000 346.348,42.000 346.659 C 42.000 346.970,42.270 347.329,42.600 347.455 C 42.930 347.582,43.200 347.936,43.200 348.243 C 43.200 348.549,43.386 348.800,43.613 348.800 C 43.839 348.800,44.141 349.115,44.283 349.500 C 44.424 349.885,44.914 350.585,45.370 351.055 C 47.459 353.207,48.800 354.921,48.800 355.437 C 48.800 355.747,49.009 355.955,49.265 355.900 C 49.520 355.845,49.839 356.233,49.974 356.763 C 50.108 357.293,50.543 357.840,50.939 357.979 C 51.335 358.118,51.691 358.404,51.730 358.616 C 51.768 358.827,51.951 358.950,52.134 358.889 C 52.318 358.827,52.564 359.142,52.681 359.589 C 52.798 360.035,53.142 360.400,53.447 360.400 C 53.751 360.400,54.000 360.676,54.000 361.013 C 54.000 361.349,54.263 361.726,54.585 361.850 C 54.906 361.973,55.279 362.420,55.414 362.843 C 55.548 363.266,55.837 363.501,56.056 363.366 C 56.275 363.230,56.553 363.498,56.674 363.960 C 56.794 364.422,57.102 364.800,57.358 364.800 C 57.613 364.800,58.137 365.168,58.522 365.617 C 58.927 366.090,59.427 366.310,59.711 366.140 C 59.980 365.979,59.930 366.186,59.600 366.600 C 59.250 367.039,59.209 367.228,59.500 367.053 C 59.775 366.888,60.000 366.943,60.000 367.176 C 60.000 367.409,60.191 367.600,60.424 367.600 C 60.657 367.600,60.737 367.422,60.603 367.205 C 60.457 366.968,60.640 366.917,61.059 367.078 C 61.493 367.245,61.576 367.408,61.277 367.508 C 61.012 367.596,60.895 367.831,61.018 368.030 C 61.141 368.228,60.962 368.284,60.621 368.153 C 60.278 368.021,60.000 368.124,60.000 368.381 C 60.000 368.637,60.165 368.745,60.368 368.620 C 60.570 368.495,61.009 368.666,61.342 368.999 C 62.008 369.665,62.358 369.381,62.185 368.312 C 62.124 367.934,62.220 367.664,62.397 367.712 C 62.575 367.761,62.756 367.620,62.799 367.400 C 62.843 367.180,63.058 366.664,63.278 366.254 C 63.837 365.210,63.307 362.000,62.575 362.000 C 62.203 362.000,62.000 361.577,62.000 360.800 C 62.000 360.000,62.200 359.600,62.600 359.600 C 62.930 359.600,63.200 359.330,63.200 359.000 C 63.200 358.670,63.470 358.400,63.800 358.400 C 64.133 358.400,64.400 358.044,64.400 357.600 C 64.400 357.156,64.133 356.800,63.800 356.800 C 63.470 356.800,63.200 356.530,63.200 356.200 C 63.200 355.870,62.930 355.600,62.600 355.600 C 61.824 355.600,61.824 354.244,62.600 353.600 C 63.072 353.209,63.200 352.086,63.200 348.351 C 63.200 344.395,63.100 343.600,62.600 343.600 C 62.181 343.600,62.000 343.178,62.000 342.200 C 62.000 341.222,62.181 340.800,62.600 340.800 C 63.000 340.800,63.200 340.400,63.200 339.600 C 63.200 338.800,63.400 338.400,63.800 338.400 C 64.133 338.400,64.400 338.044,64.400 337.600 C 64.400 337.156,64.133 336.800,63.800 336.800 C 63.289 336.800,63.200 335.733,63.200 329.600 C 63.200 323.467,63.289 322.400,63.800 322.400 C 64.133 322.400,64.400 322.044,64.400 321.600 C 64.400 321.156,64.133 320.800,63.800 320.800 C 63.385 320.800,63.200 320.383,63.200 319.449 C 63.200 318.706,62.930 317.874,62.600 317.600 C 62.270 317.326,62.000 316.696,62.000 316.200 C 62.000 315.704,62.270 315.074,62.600 314.800 C 63.025 314.447,63.200 313.514,63.200 311.600 C 63.200 309.686,63.375 308.753,63.800 308.400 C 64.130 308.126,64.400 307.564,64.400 307.151 C 64.400 306.738,64.130 306.400,63.800 306.400 C 63.381 306.400,63.200 305.978,63.200 305.000 C 63.200 304.230,63.020 303.600,62.800 303.600 C 61.718 303.600,62.405 301.200,63.500 301.154 C 64.130 301.127,64.311 301.031,63.924 300.929 C 63.306 300.766,63.247 299.523,63.232 286.363 C 63.221 277.077,63.066 271.696,62.793 271.188 C 62.502 270.643,62.499 270.162,62.786 269.626 C 63.014 269.201,63.200 266.501,63.200 263.626 C 63.200 259.247,63.297 258.400,63.800 258.400 C 64.130 258.400,64.400 258.130,64.400 257.800 C 64.400 257.470,64.158 257.200,63.862 257.200 C 63.138 257.200,62.000 255.897,62.000 255.069 C 62.000 254.701,62.256 254.400,62.568 254.400 C 62.991 254.400,63.195 253.606,63.362 251.300 C 63.669 247.083,63.663 246.714,63.222 242.600 C 62.779 238.462,62.792 239.059,63.061 235.245 C 63.182 233.536,63.107 232.187,62.883 232.045 C 62.127 231.565,61.883 227.795,62.572 227.223 C 63.031 226.842,63.200 225.962,63.200 223.951 C 63.200 221.772,63.325 221.200,63.800 221.200 C 64.130 221.200,64.400 220.930,64.400 220.600 C 64.400 220.270,64.130 220.000,63.800 220.000 C 62.888 220.000,62.941 213.749,63.862 212.731 C 64.478 212.051,64.478 211.949,63.862 211.269 C 63.011 210.328,62.967 208.000,63.800 208.000 C 64.130 208.000,64.400 207.662,64.400 207.249 C 64.400 206.836,64.130 206.274,63.800 206.000 C 63.373 205.646,63.200 204.708,63.200 202.751 C 63.200 200.572,63.325 200.000,63.800 200.000 C 64.130 200.000,64.400 199.730,64.400 199.400 C 64.400 199.070,64.130 198.800,63.800 198.800 C 63.381 198.800,63.200 198.378,63.200 197.400 C 63.200 196.422,63.381 196.000,63.800 196.000 C 64.130 196.000,64.400 195.730,64.400 195.400 C 64.400 195.070,64.130 194.800,63.800 194.800 C 62.901 194.800,62.953 189.736,63.862 188.731 C 64.464 188.066,64.467 187.937,63.896 187.300 C 63.377 186.722,62.801 182.763,62.862 180.200 C 63.128 169.017,63.288 166.800,63.828 166.800 C 64.142 166.800,64.400 166.530,64.400 166.200 C 64.400 165.870,64.169 165.600,63.887 165.600 C 63.184 165.600,62.093 161.902,62.733 161.689 C 62.990 161.603,63.200 160.978,63.200 160.298 C 63.200 159.619,63.498 158.734,63.862 158.331 C 64.478 157.651,64.478 157.549,63.862 156.869 C 63.385 156.342,63.200 155.390,63.200 153.469 C 63.200 151.956,63.027 150.800,62.800 150.800 C 62.580 150.800,62.400 150.260,62.400 149.600 C 62.400 148.940,62.580 148.400,62.800 148.400 C 63.378 148.400,63.299 142.134,62.700 140.463 C 62.300 139.348,62.300 139.036,62.700 138.901 C 63.393 138.669,63.327 137.403,62.590 136.792 C 62.043 136.338,62.043 136.215,62.590 135.611 C 62.925 135.240,63.200 134.366,63.200 133.669 C 63.200 132.808,63.393 132.400,63.800 132.400 C 64.219 132.400,64.400 131.978,64.400 131.000 C 64.400 130.022,64.219 129.600,63.800 129.600 C 62.990 129.600,63.041 128.439,63.892 127.499 C 64.498 126.829,64.509 126.693,63.980 126.396 C 63.482 126.118,63.354 124.739,63.254 118.532 C 63.172 113.401,62.986 110.915,62.672 110.721 C 62.326 110.507,62.324 110.136,62.665 109.233 C 63.029 108.268,63.006 107.937,62.549 107.558 C 62.058 107.150,62.064 106.993,62.590 106.411 C 63.433 105.479,63.441 101.600,62.600 101.600 C 61.850 101.600,61.820 100.471,62.547 99.631 C 63.422 98.620,63.771 91.200,62.943 91.200 C 62.447 91.200,62.369 90.957,62.589 90.100 C 62.744 89.495,62.963 88.235,63.076 87.300 C 63.207 86.208,63.481 85.600,63.840 85.600 C 64.148 85.600,64.400 85.330,64.400 85.000 C 64.400 84.670,64.169 84.400,63.887 84.400 C 63.249 84.400,62.135 80.822,62.660 80.458 C 63.373 79.965,64.225 76.675,63.687 76.496 C 62.911 76.237,63.086 74.089,63.900 73.876 C 64.567 73.702,64.567 73.691,63.900 73.646 C 63.381 73.612,63.200 73.251,63.200 72.249 C 63.200 71.506,62.925 70.670,62.590 70.392 C 62.044 69.939,62.047 69.811,62.620 69.178 C 63.034 68.721,63.191 68.036,63.065 67.236 C 62.910 66.252,63.012 66.000,63.568 66.000 C 63.952 66.000,64.267 65.747,64.267 65.438 C 64.267 64.999,64.111 64.974,63.552 65.323 C 62.635 65.896,62.129 65.409,62.800 64.600 C 63.083 64.259,63.200 63.867,63.060 63.727 C 62.921 63.588,63.007 63.232,63.252 62.937 C 63.497 62.642,63.608 62.400,63.498 62.400 C 63.388 62.400,63.080 62.662,62.815 62.982 M339.600 87.800 C 338.628 88.790,337.923 89.600,338.033 89.600 C 338.143 89.600,339.028 88.790,340.000 87.800 C 340.972 86.810,341.677 86.000,341.567 86.000 C 341.457 86.000,340.572 86.810,339.600 87.800 M333.200 94.200 C 332.228 95.190,331.523 96.000,331.633 96.000 C 331.743 96.000,332.628 95.190,333.600 94.200 C 334.572 93.210,335.277 92.400,335.167 92.400 C 335.057 92.400,334.172 93.210,333.200 94.200 M211.600 96.459 C 208.445 96.820,204.601 97.330,199.600 98.050 C 197.950 98.287,196.429 98.643,196.220 98.841 C 196.011 99.038,195.471 99.214,195.020 99.232 C 194.510 99.251,194.407 99.345,194.747 99.481 C 195.048 99.600,196.308 99.419,197.547 99.078 C 207.386 96.368,231.610 95.683,241.679 97.829 C 243.152 98.143,245.042 98.375,245.879 98.344 C 247.307 98.291,247.278 98.269,245.400 97.992 C 244.300 97.830,242.320 97.507,241.000 97.274 C 234.208 96.078,218.693 95.648,211.600 96.459 M248.746 99.016 C 249.486 99.337,250.476 99.592,250.946 99.582 C 251.498 99.571,251.235 99.361,250.200 98.988 C 248.118 98.238,247.003 98.259,248.746 99.016 M326.585 100.900 L 324.600 103.000 326.700 101.015 C 328.651 99.171,328.983 98.800,328.685 98.800 C 328.622 98.800,327.677 99.745,326.585 100.900 M190.400 100.239 L 189.400 100.850 190.400 100.590 C 190.950 100.447,192.030 100.187,192.800 100.011 L 194.200 99.692 192.800 99.660 C 192.030 99.643,190.950 99.903,190.400 100.239 M253.200 100.011 C 253.970 100.187,255.050 100.447,255.600 100.590 L 256.600 100.850 255.600 100.239 C 255.050 99.903,253.970 99.643,253.200 99.660 L 251.800 99.692 253.200 100.011 M186.176 101.387 C 185.749 101.710,184.950 101.986,184.400 102.001 C 183.271 102.031,179.839 103.565,180.854 103.586 C 181.214 103.594,182.024 103.331,182.654 103.002 C 183.284 102.674,184.077 102.404,184.415 102.402 C 184.754 102.401,186.014 102.046,187.215 101.614 C 189.095 100.939,189.229 100.827,188.176 100.814 C 187.504 100.806,186.604 101.064,186.176 101.387 M258.946 101.634 C 260.237 102.078,261.587 102.363,261.946 102.267 C 262.408 102.144,262.349 102.079,261.746 102.046 C 261.276 102.021,260.376 101.731,259.746 101.402 C 259.116 101.074,258.150 100.810,257.600 100.816 C 256.960 100.823,257.444 101.117,258.946 101.634 M263.746 103.002 C 265.205 103.763,265.575 103.768,264.576 103.013 C 264.149 102.690,263.530 102.421,263.200 102.415 C 262.870 102.410,263.116 102.674,263.746 103.002 M177.000 104.450 C 175.900 104.873,174.640 105.385,174.200 105.588 C 173.760 105.790,172.500 106.342,171.400 106.813 C 168.005 108.266,166.013 109.255,165.806 109.590 C 165.697 109.767,165.141 110.028,164.571 110.172 C 164.000 110.315,162.783 110.909,161.867 111.493 C 160.950 112.076,159.390 112.988,158.400 113.518 C 157.410 114.048,156.510 114.602,156.400 114.749 C 156.290 114.896,155.750 115.240,155.200 115.512 C 153.811 116.201,149.048 119.345,148.400 120.000 C 148.290 120.111,147.434 120.722,146.499 121.356 C 145.563 121.991,144.349 122.926,143.801 123.434 C 143.253 123.942,142.555 124.502,142.251 124.679 C 139.488 126.283,126.549 139.173,124.062 142.800 C 123.534 143.570,122.854 144.344,122.551 144.520 C 122.248 144.696,122.000 145.001,122.000 145.198 C 122.000 145.394,121.371 146.240,120.602 147.078 C 119.833 147.915,119.203 148.831,119.202 149.113 C 119.201 149.394,118.930 149.729,118.600 149.855 C 118.270 149.982,118.000 150.248,118.000 150.447 C 118.000 150.646,117.370 151.705,116.600 152.800 C 115.830 153.895,115.200 154.903,115.200 155.038 C 115.200 155.174,114.684 155.941,114.053 156.742 C 113.423 157.544,112.769 158.650,112.599 159.200 C 112.430 159.750,112.172 160.290,112.025 160.400 C 111.480 160.808,110.000 163.515,110.000 164.104 C 110.000 164.440,109.730 164.818,109.400 164.945 C 109.070 165.071,108.800 165.516,108.800 165.934 C 108.800 166.351,108.440 167.150,108.000 167.709 C 107.560 168.269,107.200 169.081,107.200 169.514 C 107.200 169.947,106.930 170.526,106.600 170.800 C 106.270 171.074,106.000 171.704,106.000 172.200 C 106.000 172.696,105.730 173.326,105.400 173.600 C 105.070 173.874,104.800 174.437,104.800 174.850 C 104.800 175.264,104.440 176.275,104.000 177.096 C 103.560 177.916,103.200 178.919,103.200 179.323 C 103.200 179.727,102.930 180.327,102.600 180.657 C 102.270 180.987,102.000 181.750,102.000 182.352 C 102.000 182.954,101.736 183.796,101.413 184.224 C 101.090 184.651,100.820 185.319,100.813 185.710 C 100.806 186.100,100.440 187.444,100.000 188.696 C 99.560 189.948,99.194 191.519,99.187 192.186 C 99.180 192.854,98.910 193.749,98.587 194.176 C 98.264 194.604,98.000 195.797,98.000 196.828 C 98.000 197.859,97.745 199.312,97.434 200.057 C 97.123 200.802,96.669 203.299,96.425 205.605 C 96.181 207.912,95.818 211.150,95.619 212.800 C 95.151 216.679,95.160 230.696,95.633 233.800 C 95.834 235.120,96.185 238.000,96.414 240.200 C 96.642 242.400,97.092 244.791,97.414 245.514 C 97.736 246.236,98.000 247.739,98.000 248.853 C 98.000 249.967,98.255 251.446,98.566 252.140 C 98.878 252.833,99.248 254.251,99.389 255.291 C 99.531 256.331,99.811 257.283,100.012 257.407 C 100.212 257.531,100.495 258.522,100.639 259.609 C 100.783 260.697,101.148 261.791,101.451 262.042 C 101.753 262.293,102.000 262.976,102.000 263.560 C 102.000 264.144,102.247 264.977,102.549 265.411 C 102.851 265.845,103.234 266.830,103.400 267.600 C 103.566 268.370,103.949 269.355,104.251 269.789 C 104.553 270.223,104.800 270.966,104.800 271.440 C 104.800 271.914,105.070 272.526,105.400 272.800 C 105.730 273.074,106.000 273.623,106.000 274.020 C 106.000 274.418,106.270 275.013,106.600 275.343 C 106.930 275.673,107.199 276.181,107.197 276.471 C 107.192 277.245,110.456 283.600,110.858 283.600 C 111.046 283.600,111.200 283.949,111.200 284.376 C 111.200 284.803,111.398 285.275,111.641 285.425 C 111.883 285.575,112.336 286.261,112.647 286.949 C 113.286 288.364,113.308 288.400,116.633 293.366 C 121.144 300.105,122.510 302.000,122.856 302.000 C 123.045 302.000,123.201 302.405,123.203 302.900 C 123.205 303.763,87.193 340.000,86.333 340.000 C 86.150 340.000,86.000 340.270,86.000 340.600 C 86.000 340.930,85.751 341.200,85.447 341.200 C 84.937 341.200,84.419 342.333,84.405 343.475 C 84.402 343.736,85.480 345.067,86.800 346.433 C 88.120 347.798,89.200 349.160,89.200 349.458 C 89.200 349.756,89.380 350.000,89.600 350.000 C 90.712 350.000,89.771 348.054,87.500 345.661 C 86.455 344.559,85.600 343.418,85.600 343.125 C 85.600 342.832,94.315 333.882,104.967 323.237 C 126.968 301.250,125.134 303.864,121.661 299.434 C 118.658 295.606,115.676 290.974,111.340 283.402 C 110.476 281.892,107.600 276.078,107.600 275.840 C 107.600 275.709,107.090 274.477,106.468 273.101 C 104.799 269.414,103.600 266.267,103.600 265.572 C 103.600 265.236,103.419 264.779,103.197 264.557 C 102.796 264.156,102.553 263.383,100.701 256.600 C 95.391 237.150,94.663 213.704,98.850 197.000 C 99.071 196.120,99.491 194.320,99.783 193.000 C 100.075 191.680,100.603 189.655,100.957 188.500 C 101.311 187.345,101.860 185.545,102.177 184.500 C 102.494 183.455,103.225 181.340,103.801 179.800 C 104.377 178.260,104.945 176.640,105.065 176.200 C 105.499 174.599,111.132 162.992,112.943 159.969 C 113.827 158.491,116.069 154.797,116.918 153.416 C 117.536 152.413,122.178 145.995,122.873 145.185 C 123.163 144.847,124.750 142.962,126.400 140.998 C 131.184 135.301,133.864 132.586,139.200 128.030 C 143.562 124.306,145.492 122.778,150.603 119.000 C 151.970 117.989,156.741 114.942,157.800 114.402 C 158.240 114.178,159.680 113.369,161.000 112.604 C 165.170 110.186,170.942 107.463,176.700 105.197 C 178.515 104.483,180.000 103.831,180.000 103.749 C 180.000 103.454,178.964 103.696,177.000 104.450 M266.200 103.885 C 266.640 103.991,267.171 104.240,267.380 104.439 C 267.589 104.637,268.039 104.799,268.380 104.798 C 268.721 104.796,268.484 104.526,267.854 104.198 C 267.224 103.869,266.414 103.621,266.054 103.646 C 265.593 103.679,265.637 103.750,266.200 103.885 M270.600 105.557 C 271.480 105.968,273.010 106.672,274.000 107.123 C 277.667 108.792,282.659 111.244,284.600 112.329 C 290.247 115.488,300.133 122.190,302.211 124.268 C 302.819 124.876,303.033 124.752,305.134 122.568 C 306.617 121.026,306.773 120.798,305.585 121.906 C 303.266 124.070,302.696 124.037,299.403 121.544 C 296.273 119.174,289.868 114.844,288.400 114.104 C 287.850 113.827,286.860 113.253,286.200 112.828 C 284.992 112.049,276.205 107.630,273.600 106.491 C 272.830 106.154,271.722 105.636,271.138 105.339 C 270.554 105.043,269.834 104.802,269.538 104.806 C 269.242 104.809,269.720 105.147,270.600 105.557 M314.591 112.900 L 311.400 116.200 314.700 113.009 C 316.515 111.255,318.000 109.770,318.000 109.709 C 318.000 109.418,317.554 109.835,314.591 112.900 M309.200 118.200 C 308.228 119.190,307.523 120.000,307.633 120.000 C 307.743 120.000,308.628 119.190,309.600 118.200 C 310.572 117.210,311.277 116.400,311.167 116.400 C 311.057 116.400,310.172 117.210,309.200 118.200 M275.182 151.876 C 274.479 152.468,265.956 160.883,256.242 170.576 C 246.529 180.269,238.282 188.437,237.916 188.728 C 237.249 189.257,235.762 188.831,235.178 187.942 C 234.817 187.394,228.715 184.400,227.959 184.400 C 227.577 184.400,226.755 184.141,226.132 183.823 C 222.803 182.128,208.857 182.162,206.742 183.870 C 206.444 184.111,205.649 184.425,204.975 184.569 C 200.380 185.550,191.872 191.921,189.032 196.507 C 188.591 197.218,188.091 197.899,187.920 198.021 C 187.287 198.471,184.400 204.474,184.400 205.342 C 184.400 205.836,184.221 206.419,184.002 206.638 C 183.783 206.857,183.313 208.731,182.957 210.802 C 181.495 219.312,183.705 229.624,188.337 235.901 C 189.541 237.533,191.689 235.085,169.866 256.953 C 152.707 274.149,150.003 277.134,151.225 277.542 C 151.486 277.629,151.995 277.993,152.355 278.350 C 154.708 280.683,161.955 286.580,162.183 286.347 C 162.262 286.266,161.700 285.750,160.933 285.200 C 156.900 282.306,151.600 277.386,151.600 276.536 C 151.600 276.196,159.925 267.594,170.100 257.420 C 180.275 247.247,188.936 238.543,189.347 238.078 C 190.082 237.247,190.074 237.208,188.847 235.659 C 188.161 234.793,187.600 233.818,187.600 233.491 C 187.600 233.165,187.330 232.674,187.000 232.400 C 186.670 232.126,186.400 231.586,186.400 231.200 C 186.400 230.814,186.142 230.283,185.826 230.021 C 185.510 229.759,185.136 228.972,184.995 228.272 C 184.854 227.573,184.438 226.190,184.069 225.200 C 183.092 222.571,183.126 210.097,184.117 207.851 C 184.492 206.999,184.800 206.007,184.800 205.645 C 184.800 205.284,185.160 204.316,185.600 203.496 C 186.040 202.675,186.400 201.803,186.400 201.559 C 186.400 201.315,186.914 200.459,187.542 199.658 C 188.170 198.856,188.758 197.966,188.848 197.681 C 189.913 194.320,202.259 184.863,205.651 184.810 C 206.009 184.805,206.999 184.488,207.851 184.106 C 210.107 183.095,223.056 183.102,225.349 184.116 C 226.201 184.492,227.171 184.800,227.505 184.800 C 227.839 184.800,228.942 185.181,229.956 185.647 C 232.396 186.769,232.387 186.764,234.993 188.539 C 237.210 190.049,237.267 190.063,238.083 189.339 C 238.541 188.932,247.264 180.255,257.468 170.056 C 272.394 155.137,276.179 151.554,276.833 151.725 C 277.499 151.899,277.561 151.835,277.174 151.369 C 276.572 150.644,276.679 150.617,275.182 151.876 M63.027 370.756 C 62.936 370.903,63.478 371.216,64.231 371.452 C 65.695 371.910,65.896 371.822,65.100 371.071 C 64.537 370.540,63.279 370.349,63.027 370.756 " stroke="none" fill="#968fc5" fill-rule="evenodd"></path></g></svg>