<?xml version="1.0" standalone="no"?>
<!DOCTYPE svg PUBLIC "-//W3C//DTD SVG 20010904//EN"
 "http://www.w3.org/TR/2001/REC-SVG-20010904/DTD/svg10.dtd">
<svg version="1.0" xmlns="http://www.w3.org/2000/svg"
 width="600.000000pt" height="600.000000pt" viewBox="0 0 600.000000 600.000000"
 preserveAspectRatio="xMidYMid meet">
<metadata>
Created by potrace 1.10, written by Peter Selinger 2001-2011
</metadata>
<g transform="translate(0.000000,600.000000) scale(0.100000,-0.100000)"
fill="#375caa" stroke="none">
<path d="M2887 5430 c-32 -11 -72 -29 -90 -41 -46 -31 -2151 -2134 -2193
-2190 -38 -53 -74 -153 -74 -209 0 -56 36 -156 74 -209 52 -70 2155 -2165
2201 -2193 52 -31 137 -58 185 -58 56 0 156 36 209 74 56 42 2159 2147 2190
2193 28 41 61 146 61 193 0 56 -36 156 -74 209 -42 56 -2147 2159 -2193 2190
-43 29 -147 61 -197 60 -22 0 -67 -9 -99 -19z m179 -123 c16 -6 42 -21 58 -31
32 -22 726 -714 726 -724 0 -4 -343 -350 -762 -769 -687 -687 -761 -764 -761
-793 0 -28 33 -65 304 -336 l304 -304 -430 -430 c-236 -237 -433 -430 -437
-430 -10 0 -1342 1334 -1364 1366 -60 90 -60 178 0 267 25 38 2115 2127 2153
2153 15 10 39 24 53 31 34 15 121 16 156 0z m185 -2056 c137 -137 249 -255
249 -261 0 -14 -494 -510 -508 -510 -13 0 -512 498 -512 511 0 16 493 508 508
508 8 1 126 -111 263 -248z"/>
</g>
</svg>
