<svg xmlns="http://www.w3.org/2000/svg" width="17.357" height="18.196" viewBox="0 0 17.357 18.196">
    <g id="delivery-man" transform="translate(.153 .159)">
        <g id="Group_793" data-name="Group 793">
            <g id="Group_792" data-name="Group 792">
                <path id="Path_2509" fill="#99a6ad" stroke="#99a6ad" stroke-width="0.3px" d="M18.085 15.364l-.695-4.837a3.143 3.143 0 0 0-3.047-2.736h-3v-.918a.462.462 0 0 0-.02-.105 3.254 3.254 0 0 0 1.336-2.648V3.2h1.319v-.916h-1.451A3.058 3.058 0 0 0 8.69.139 3.2 3.2 0 0 0 6.5 3.2v.92a3.254 3.254 0 0 0 1.343 2.648.469.469 0 0 0-.02.105v.918h-3a3.143 3.143 0 0 0-3.047 2.736l-.695 4.837a2.222 2.222 0 0 0 .484 1.725 2.188 2.188 0 0 0 1.692.8h2.81a.9.9 0 0 0 .879-.918v-.459h5.274v.459a.9.9 0 0 0 .879.918h2.81a2.187 2.187 0 0 0 1.691-.8 2.222 2.222 0 0 0 .485-1.725zM9.581.907a2.2 2.2 0 0 1 2.012 1.377H7.569A2.2 2.2 0 0 1 9.581.907zM7.383 4.12V3.2h4.4v.92a2.248 2.248 0 0 1-2.2 2.295 2.248 2.248 0 0 1-2.2-2.295zm3.078 3.213v.459H8.7v-.46zm-7.819 3.33a2.245 2.245 0 0 1 2.177-1.954h9.524a2.244 2.244 0 0 1 2.177 1.954l.115.8h-1.777V9.627a.45.45 0 0 0-.44-.459H4.744a.45.45 0 0 0-.44.459v1.836H2.527zm11.336-.577V11H10.9v-.918zm-3.957 0v1.836h-.879v-1.836zm-1.759 0V11H5.184v-.918zm-5.276 5.966v.889a1.316 1.316 0 0 1-.757-.45 1.261 1.261 0 0 1-.281-.989l.452-3.121h1.9v2.754h-.44a.9.9 0 0 0-.874.917zm3.078.918h-2.2v-.918H4.3a.45.45 0 0 0 .44.459h1.324zm-.879-1.377v-3.671h3.077v.459a.45.45 0 0 0 .44.459h1.759a.45.45 0 0 0 .44-.459v-.459h3.078v3.672zM15.3 16.97h-2.2v-.459h1.319a.45.45 0 0 0 .44-.459h.44v.918zm1.637-.479a1.318 1.318 0 0 1-.757.45v-.889a.9.9 0 0 0-.879-.918h-.44v-2.753h1.909l.448 3.121a1.26 1.26 0 0 1-.284.989z" data-name="Path 2509" transform="translate(-1.056 -.001)"/>
            </g>
        </g>
    </g>
</svg>
