<svg xmlns="http://www.w3.org/2000/svg" id="ic-actions-add" width="16" height="16" viewBox="0 0 16 16">
    <defs>
        <style>
            .cls-3{fill:#f8f9fa}
        </style>
    </defs>
    <path id="Rectangle_25" fill="none" d="M0 0H16V16H0z"/>
    <g id="Layer" transform="translate(.667 .667)">
        <path id="Path_64" fill="#f8f9fa" fill-rule="evenodd" d="M1 8.333a7.333 7.333 0 1 1 7.333 7.333A7.333 7.333 0 0 1 1 8.333zm7.333-6a6 6 0 1 0 6 6 6 6 0 0 0-6-6z" transform="translate(-1 -1)"/>
        <path id="Path_65" d="M11.667 14a.627.627 0 0 1-.667-.574V6.573a.674.674 0 0 1 1.333 0v6.853a.627.627 0 0 1-.666.574z" class="cls-3" transform="translate(-4.333 -2.666)"/>
        <path id="Path_66" d="M6 11.667A.627.627 0 0 1 6.573 11h6.853a.674.674 0 0 1 0 1.333H6.573A.627.627 0 0 1 6 11.667z" class="cls-3" transform="translate(-2.666 -4.333)"/>
    </g>
</svg>
