<svg xmlns="http://www.w3.org/2000/svg" id="ic-actions-calendar" width="16" height="16" viewBox="0 0 16 16">
    <defs>
        <style>
            .cls-3{fill:#fff}
        </style>
    </defs>
    <path id="Rectangle_29" fill="none" d="M0 0H16V16H0z"/>
    <g id="Layer" transform="translate(.667 1.333)">
        <g id="Vrstva_98">
            <path id="Path_72" fill="#fff" fill-rule="evenodd" d="M13.667 3.333H13v-.666a.667.667 0 0 0-1.333 0v.667H5v-.667a.667.667 0 1 0-1.333 0v.667H3a2 2 0 0 0-2 2v8a2 2 0 0 0 2 2h10.667a2 2 0 0 0 2-2v-8a2 2 0 0 0-2-2zm-11.333 2A.667.667 0 0 1 3 4.667h10.667a.667.667 0 0 1 .667.667V6h-12zm12 8a.667.667 0 0 1-.667.667H3a.667.667 0 0 1-.667-.667v-6h12z" transform="translate(-1 -2)"/>
            <rect id="Rectangle_4" width="2" height="2" class="cls-3" rx=".8" transform="translate(2.667 6.667)"/>
            <rect id="Rectangle_5" width="2" height="2" class="cls-3" rx=".8" transform="translate(6 6.667)"/>
        </g>
    </g>
</svg>
