<svg xmlns="http://www.w3.org/2000/svg" id="Layer" width="15.429" height="13.406" viewBox="0 0 15.429 13.406">
    <g id="Vrstva_176" data-name="Vrstva 176">
        <path id="Path_198" fill="#307dd2" d="M14.227 6.338a.831.831 0 0 0-.7-.358h-1.3v-.745A2.173 2.173 0 0 0 10.117 3H3.1A2.173 2.173 0 0 0 1 5.235v7.452a2.173 2.173 0 0 0 2.1 2.235h.13A2.115 2.115 0 0 0 5.208 16.4a2.115 2.115 0 0 0 1.978-1.473h2.356a2.065 2.065 0 0 0 3.962 0 .66.66 0 0 0 .119 0h1.964a.869.869 0 0 0 .842-.894V9.759a.9.9 0 0 0-.168-.537zm-9.019 8.585a.747.747 0 1 1 .7-.745.724.724 0 0 1-.7.745zm6.312 0a.747.747 0 1 1 .7-.745.724.724 0 0 1-.7.745zm3.507-1.49h-1.4a.66.66 0 0 0-.119 0 2.065 2.065 0 0 0-3.962 0h-2.36a2.115 2.115 0 0 0-1.978-1.473 2.115 2.115 0 0 0-1.978 1.472H3.1a.724.724 0 0 1-.7-.745V5.235a.724.724 0 0 1 .7-.745h7.013a.724.724 0 0 1 .7.745v5.216a.7.7 0 1 0 1.4 0v-2.98h1.052l1.753 2.481z" data-name="Path 198" transform="translate(-1 -3)"/>
    </g>
</svg>
