<svg xmlns="http://www.w3.org/2000/svg" id="ic-contact-map-pin" width="24" height="24" viewBox="0 0 24 24">
    <defs>
        <style>
            .cls-2{fill:#fff}
        </style>
    </defs>
    <path id="Rectangle_88" fill="none" d="M0 0H24V24H0z"/>
    <g id="Layer" transform="translate(.01 .04)">
        <g id="Vrstva_146">
            <path id="Path_160" d="M7.2 17c1.61 2.56 3.34 4.8 3.86 5.46a1.19 1.19 0 0 0 1.88 0c.52-.66 2.25-2.9 3.86-5.46a31.57 31.57 0 0 0 2.18-4 9.56 9.56 0 0 0 1-3.73 8.14 8.14 0 0 0-8-8.27A8.14 8.14 0 0 0 4 9.33a9.56 9.56 0 0 0 1 3.73A31.57 31.57 0 0 0 7.2 17zM12 3a6.14 6.14 0 0 1 6 6.27 7.78 7.78 0 0 1-.84 2.91A30 30 0 0 1 15.11 16C14 17.76 12.76 19.42 12 20.43c-.76-1-2-2.67-3.11-4.48a30 30 0 0 1-2.05-3.71A7.78 7.78 0 0 1 6 9.33a6.14 6.14 0 0 1 6-6.27z" class="cls-2"/>
            <circle id="Ellipse_9" cx="2" cy="2" r="2" class="cls-2" transform="translate(10 7.06)"/>
        </g>
    </g>
</svg>
