<svg xmlns="http://www.w3.org/2000/svg" id="Layer" width="9.81" height="9.538" viewBox="0 0 9.81 9.538">
    <defs>
        <style>
            .cls-1{fill:#fff}
        </style>
    </defs>
    <path id="Path_76" d="M4.832 13.894a.628.628 0 0 1 0-.906l8.449-8.182a.677.677 0 0 1 .659-.206.654.654 0 0 1 .49.475.631.631 0 0 1-.214.639l-8.448 8.18a.679.679 0 0 1-.936 0z" class="cls-1" data-name="Path 76" transform="translate(-4.639 -4.58)"/>
    <path id="Path_77" d="M4.832 4.826a.679.679 0 0 1 .936 0l8.449 8.182a.631.631 0 0 1 .214.639.654.654 0 0 1-.49.475.677.677 0 0 1-.659-.207l-8.45-8.183a.628.628 0 0 1 0-.906z" class="cls-1" data-name="Path 77" transform="translate(-4.639 -4.601)"/>
</svg>
