<svg xmlns="http://www.w3.org/2000/svg" width="16" height="16" viewBox="0 0 16 16">
    <path fill="none" d="M0 0H16V16H0z"/>
    <g>
        <g>
            <path fill="#fff" d="M13.667 2H3a2 2 0 0 0-2 2v6.667a2 2 0 0 0 2 2h2.667V14H4.333a.667.667 0 1 0 0 1.333h8a.667.667 0 1 0 0-1.333H11v-1.333h2.667a2 2 0 0 0 2-2V4a2 2 0 0 0-2-2zm-4 12H7v-1.333h2.667zm4.667-3.333a.667.667 0 0 1-.667.667H3a.667.667 0 0 1-.667-.667V4A.667.667 0 0 1 3 3.333h10.667a.667.667 0 0 1 .666.667z" transform="translate(.667 1.333) translate(-1 -2)"/>
        </g>
    </g>
</svg>
