<svg xmlns="http://www.w3.org/2000/svg" id="ic-ecommerce-card" width="24" height="24" viewBox="0 0 24 24">
    <defs>
        <style>
            .cls-2{fill:#fff}
        </style>
    </defs>
    <path id="Rectangle_109" fill="none" d="M0 0H24V24H0z"/>
    <g id="ic-ecommerce-card-2">
        <g id="Layer">
            <path id="Path_194" d="M20 4H4a3 3 0 0 0-3 3v10a3 3 0 0 0 3 3h16a3 3 0 0 0 3-3V7a3 3 0 0 0-3-3zM4 6h16a1 1 0 0 1 1 1v1H3V7a1 1 0 0 1 1-1zm16 12H4a1 1 0 0 1-1-1v-7h18v7a1 1 0 0 1-1 1z" class="cls-2"/>
        </g>
        <g id="Layer-2">
            <path id="Path_195" d="M5 14h4a1 1 0 0 0 0-2H5a1 1 0 0 0 0 2z" class="cls-2"/>
        </g>
        <g id="Layer-3">
            <path id="Path_196" d="M12 15H5a1 1 0 0 0 0 2h7a1 1 0 0 0 0-2z" class="cls-2"/>
        </g>
    </g>
</svg>
