<svg xmlns="http://www.w3.org/2000/svg" id="Layer" width="14.601" height="12.605" viewBox="0 0 14.601 12.605">
    <defs>
        <style>
            .cls-1{fill:#307dd2}
        </style>
    </defs>
    <g id="Vrstva_143" data-name="Vrstva 143">
        <path id="Path_156" d="M10 7.208l.093 2.721 2.721.093 4.321-4.314a1.327 1.327 0 0 0 0-1.878l-.956-.936a1.327 1.327 0 0 0-1.872 0zm5.13-3.218a.338.338 0 0 1 .113 0h.192a.219.219 0 0 1 .066.04l.471.471a.332.332 0 0 1 0 .471L12.3 8.649l-.9-.033-.066-.876L15 4.063a.305.305 0 0 1 .113-.073z" class="cls-1" data-name="Path 156" transform="translate(-4.027 -2.508)"/>
        <path id="Path_157" d="M14.938 8.155a.664.664 0 0 0-.664.664v5.31a.664.664 0 0 1-.664.664H2.991a.664.664 0 0 1-.664-.664V7.491a.664.664 0 0 1 .664-.664h2.655a.664.664 0 1 0 0-1.327H2.991A1.991 1.991 0 0 0 1 7.491v6.637a1.991 1.991 0 0 0 1.991 1.991H13.61a1.991 1.991 0 0 0 1.99-1.991V8.819a.664.664 0 0 0-.662-.664z" class="cls-1" data-name="Path 157" transform="translate(-1 -3.514)"/>
    </g>
</svg>
