<svg xmlns="http://www.w3.org/2000/svg" width="16" height="17" viewBox="0 0 16 17">
    <g id="ic-ecommerce-delivery">
        <path id="Rectangle_111" fill="none" d="M0 0H16V16H0z" data-name="Rectangle 111"/>
        <g id="Layer" transform="translate(.66 1.988)">
            <g id="Vrstva_176" data-name="Vrstva 176">
                <path id="Path_198" fill="#7ca1bb" d="M13.453 5.963a.8.8 0 0 0-.66-.318h-1.228v-.661A1.983 1.983 0 0 0 9.584 3h-6.6A1.983 1.983 0 0 0 1 4.984V11.6a1.983 1.983 0 0 0 1.981 1.984H3.1a1.98 1.98 0 0 0 3.724 0h2.218a1.98 1.98 0 0 0 3.731 0 .659.659 0 0 0 .112 0h1.849a.793.793 0 0 0 .792-.794V9a.768.768 0 0 0-.158-.476zm-8.491 7.62a.661.661 0 1 1 .66-.661.661.661 0 0 1-.66.662zm5.943 0a.661.661 0 1 1 .66-.661.661.661 0 0 1-.665.662zm3.3-1.323h-1.32a.659.659 0 0 0-.112 0 1.98 1.98 0 0 0-3.731 0H6.824a1.98 1.98 0 0 0-3.724 0h-.119a.661.661 0 0 1-.66-.661V4.984a.661.661 0 0 1 .66-.661h6.6a.661.661 0 0 1 .66.661v4.63a.66.66 0 1 0 1.321 0V6.969h.99l1.651 2.2z" data-name="Path 198" transform="translate(-1 -3)"/>
            </g>
        </g>
    </g>
</svg>
