<svg xmlns="http://www.w3.org/2000/svg" width="16" height="16" viewBox="0 0 16 16">
    <g id="ic-ecommerce-house">
        <path id="Rectangle_113" fill="none" d="M0 0H16V16H0z" data-name="Rectangle 113"/>
        <g id="Layer" transform="translate(.065 1.323)">
            <path id="Path_200" fill="#ffffff" d="M13.688 2.489A.8.8 0 0 0 12.955 2h-10a.8.8 0 0 0-.733.489L.159 7.517a.794.794 0 0 0 .733 1.1h.977v5.292h-.515a.661.661 0 0 0 0 1.323H14.56a.661.661 0 0 0 0-1.323h-.806V8.615h1.268a.794.794 0 0 0 .733-1.1zM5.831 13.907V10.6h1.32v3.122a.583.583 0 0 0 .04.185zm2.641 0a.835.835 0 0 0 0-.185V10.6h1.321v3.307zm3.995 0h-1.321V10.07a.793.793 0 0 0-.792-.794H5.316a.793.793 0 0 0-.792.794v3.837H3.2V8.615h1.079a.778.778 0 0 0 .469-.152l1.393-1.012 1.321.979a.791.791 0 0 0 .938 0l1.32-.979 1.393 1.012a.772.772 0 0 0 .462.152h.806zm-.66-6.615l-1.565-1.138a.791.791 0 0 0-.938 0l-1.347.979-1.321-.979a.791.791 0 0 0-.938 0L4.107 7.292H1.678l1.657-3.969h9.244l1.638 3.969z" data-name="Path 200" transform="translate(-.098 -2)"/>
        </g>
    </g>
</svg>
