<svg xmlns="http://www.w3.org/2000/svg" width="24" height="24" viewBox="0 0 24 24">
    <path fill="none" d="M0 0H24V24H0z"/>
    <g>
        <g>
            <path fill="#fff" d="M21.574 7.9a1.319 1.319 0 0 0-1.091-.525h-2.029V6.279A3.276 3.276 0 0 0 15.182 3H4.273A3.276 3.276 0 0 0 1 6.279v10.928a3.276 3.276 0 0 0 3.273 3.279h.2a3.271 3.271 0 0 0 6.153 0h3.665a3.271 3.271 0 0 0 6.164 0 1.089 1.089 0 0 0 .185 0h3.055A1.31 1.31 0 0 0 25 19.174v-6.262a1.269 1.269 0 0 0-.262-.787zM7.545 20.486a1.093 1.093 0 1 1 1.091-1.093 1.092 1.092 0 0 1-1.091 1.093zm9.818 0a1.093 1.093 0 1 1 1.091-1.093 1.092 1.092 0 0 1-1.091 1.093zm5.455-2.186h-2.182a1.088 1.088 0 0 0-.185 0 3.271 3.271 0 0 0-6.164 0h-3.665a3.271 3.271 0 0 0-6.153 0h-.2a1.092 1.092 0 0 1-1.091-1.093V6.279a1.092 1.092 0 0 1 1.095-1.093h10.909a1.092 1.092 0 0 1 1.091 1.093v7.65a1.091 1.091 0 1 0 2.182 0V9.557h1.636l2.727 3.643z" transform="translate(0 2.839) translate(-1 -3)"/>
        </g>
    </g>
</svg>
