<svg xmlns="http://www.w3.org/2000/svg" width="24" height="24" viewBox="0 0 24 24">
    <path fill="none" d="M0 0H24V24H0z"/>
    <g>
        <path fill="#fff" fill-rule="evenodd" d="M21 8.18v-2A1.34 1.34 0 0 0 20.25 5a18.43 18.43 0 0 0-16.5 0A1.34 1.34 0 0 0 3 6.22v2A3 3 0 0 0 1 11v8a3 3 0 0 0 3 3h16a3 3 0 0 0 3-3v-8a3 3 0 0 0-2-2.82zM5 6.62a16.49 16.49 0 0 1 14 0V8H5zM8 20v-5h3v5zm5 0v-5h3v5zm8-1a1 1 0 0 1-1 1h-2v-5.5a1.5 1.5 0 0 0-1.5-1.5h-9A1.5 1.5 0 0 0 6 14.5V20H4a1 1 0 0 1-1-1v-8a1 1 0 0 1 1-1h16a1 1 0 0 1 1 1z" transform="translate(0 -.525)"/>
    </g>
</svg>
