<svg xmlns="http://www.w3.org/2000/svg" id="Layer" width="17.09" height="17.067" viewBox="0 0 17.09 17.067">
    <defs>
        <style>
            .cls-1{fill:#96a2b1;fill-rule:evenodd}
        </style>
    </defs>
    <g id="ic-actions1-03">
        <path id="Path_110" d="M11.092 8a3.092 3.092 0 1 0 3.092 3.092A3.092 3.092 0 0 0 11.092 8zm0 4.638a1.546 1.546 0 1 1 1.546-1.546 1.546 1.546 0 0 1-1.546 1.546z" class="cls-1" data-name="Path 110" transform="translate(-2.589 -2.589)"/>
        <path id="Path_111" d="M15.988 6.82a2.319 2.319 0 0 0-.2-3.053l-.549-.549a2.319 2.319 0 0 0-3.092-.2A2.319 2.319 0 0 0 9.889 1h-.773A2.319 2.319 0 0 0 6.8 3.017a2.319 2.319 0 0 0-3.053.2l-.547.55A2.319 2.319 0 0 0 3 6.82a2.319 2.319 0 0 0-2 2.296v.773a2.319 2.319 0 0 0 2.017 2.319 2.319 2.319 0 0 0 .2 3.092l.549.549a2.319 2.319 0 0 0 3.053.2 2.319 2.319 0 0 0 2.319 2.017h.773a2.319 2.319 0 0 0 2.319-2.017 2.319 2.319 0 0 0 3.092-.2l.549-.549a2.319 2.319 0 0 0 .2-3.092 2.319 2.319 0 0 0 2.019-2.319v-.773a2.319 2.319 0 0 0-2.1-2.3zm.472 3.092a.773.773 0 0 1-.773.773 1.4 1.4 0 0 0-.989 2.4.773.773 0 0 1 0 1.09l-.549.549a.773.773 0 0 1-1.09 0 1.4 1.4 0 0 0-2.4.966.773.773 0 0 1-.773.773h-.77a.773.773 0 0 1-.773-.773 1.4 1.4 0 0 0-2.4-.989.773.773 0 0 1-1.09 0l-.549-.557a.773.773 0 0 1 0-1.09 1.4 1.4 0 0 0-.989-2.388.773.773 0 0 1-.773-.773v-.777a.773.773 0 0 1 .773-.773 1.4 1.4 0 0 0 .989-2.4.773.773 0 0 1 0-1.082l.557-.557a.773.773 0 0 1 1.09 0 1.4 1.4 0 0 0 2.388-.989.773.773 0 0 1 .773-.773h.773a.773.773 0 0 1 .773.773 1.4 1.4 0 0 0 2.4.989.773.773 0 0 1 1.09 0l.549.549a.773.773 0 0 1 0 1.09 1.4 1.4 0 0 0 .989 2.4.773.773 0 0 1 .773.773z" class="cls-1" data-name="Path 111" transform="translate(-1 -1)"/>
    </g>
</svg>
