<svg xmlns="http://www.w3.org/2000/svg" id="Layer" width="21.973" height="21.944" viewBox="0 0 21.973 21.944">
    <defs>
        <style>
            .cls-1{fill:#101025;fill-rule:evenodd}
        </style>
    </defs>
    <g id="ic-actions1-03">
        <path id="Path_110" d="M11.975 8a3.975 3.975 0 1 0 3.975 3.975A3.975 3.975 0 0 0 11.975 8zm0 5.963a1.988 1.988 0 1 1 1.988-1.988 1.988 1.988 0 0 1-1.988 1.988z" class="cls-1" data-name="Path 110" transform="translate(-1.043 -1.043)"/>
        <path id="Path_111" d="M20.27 8.483a2.981 2.981 0 0 0-.258-3.926l-.706-.706a2.981 2.981 0 0 0-3.975-.258A2.981 2.981 0 0 0 12.429 1h-.994a2.981 2.981 0 0 0-2.981 2.594 2.981 2.981 0 0 0-3.926.258l-.706.706a2.981 2.981 0 0 0-.258 3.926A2.981 2.981 0 0 0 1 11.435v.994a2.981 2.981 0 0 0 2.594 2.981 2.981 2.981 0 0 0 .258 3.975l.706.706a2.981 2.981 0 0 0 3.926.258 2.981 2.981 0 0 0 2.981 2.594h.994a2.981 2.981 0 0 0 2.981-2.594 2.981 2.981 0 0 0 3.975-.258l.706-.706a2.981 2.981 0 0 0 .258-3.975 2.981 2.981 0 0 0 2.594-2.981v-.994a2.981 2.981 0 0 0-2.7-2.952zm.606 3.975a.994.994 0 0 1-.994.994 1.8 1.8 0 0 0-1.272 3.081.994.994 0 0 1 0 1.4l-.706.706a.994.994 0 0 1-1.4 0 1.8 1.8 0 0 0-3.081 1.242.994.994 0 0 1-.994.994h-.994a.994.994 0 0 1-.994-.994A1.8 1.8 0 0 0 7.36 18.61a.994.994 0 0 1-1.4 0l-.706-.716a.994.994 0 0 1 0-1.4 1.8 1.8 0 0 0-1.272-3.071.994.994 0 0 1-.994-.994v-.994a.994.994 0 0 1 .994-.994A1.8 1.8 0 0 0 5.254 7.36a.994.994 0 0 1 0-1.391l.716-.716a.994.994 0 0 1 1.4 0 1.8 1.8 0 0 0 3.071-1.272.994.994 0 0 1 .994-.994h.994a.994.994 0 0 1 .994.994A1.8 1.8 0 0 0 16.5 5.254a.994.994 0 0 1 1.4 0l.706.706a.994.994 0 0 1 0 1.4 1.8 1.8 0 0 0 1.272 3.081.994.994 0 0 1 .994.994z" class="cls-1" data-name="Path 111" transform="translate(-1 -1)"/>
    </g>
</svg>
