<svg xmlns="http://www.w3.org/2000/svg" width="24" height="24" viewBox="0 0 24 24">
    <path fill="none" d="M0 0H24V24H0z"/>
    <g>
        <g>
            <path fill="#fff" fill-rule="evenodd" d="M18.77 13.08L17.72 9.6a4 4 0 1 0-5.35-5.26l-5.5-1.18A3 3 0 1 0 3.59 7l1.74 6.55a3 3 0 1 0 3.85 4.54l3.9.79a5 5 0 1 0 5.69-5.76zM16 4a2 2 0 1 1-2 2 2 2 0 0 1 2-2zM3 4a1 1 0 1 1 1 1 1 1 0 0 1-1-1zm4 13a1 1 0 1 1 1-1 1 1 0 0 1-1 1zm.28-4L5.55 6.56a3.06 3.06 0 0 0 1.21-1.38L12 6.32A4 4 0 0 0 15.75 10l1 3.22a5 5 0 0 0-3.55 3.62l-3.2-.66a1.1 1.1 0 0 0 0-.18 3 3 0 0 0-2.72-3zM18 21a3 3 0 1 1 3-3 3 3 0 0 1-3 3z" transform="translate(-.005 -.045)"/>
        </g>
    </g>
</svg>
