<svg xmlns="http://www.w3.org/2000/svg" id="Layer" width="17.737" height="14.903" viewBox="0 0 17.737 14.903">
    <path id="Path_200" fill="#99a6ad" d="M15.435 2.551A.9.9 0 0 0 14.608 2H3.326a.9.9 0 0 0-.827.551L.167 8.215a.894.894 0 0 0 .827 1.237H2.1v5.961h-.585a.745.745 0 0 0 0 1.49h14.9a.745.745 0 1 0 0-1.49h-.909V9.452h1.434a.894.894 0 0 0 .827-1.237zM6.568 15.413v-3.726h1.49V15.2a.656.656 0 0 0 .045.209zm2.981 0a.939.939 0 0 0 0-.209v-3.517h1.49v3.726zm4.508 0h-1.49v-4.322a.894.894 0 0 0-.894-.894H5.986a.894.894 0 0 0-.894.894v4.322H3.6V9.452h1.216a.879.879 0 0 0 .529-.171L6.918 8.14l1.49 1.1a.894.894 0 0 0 1.058 0l1.49-1.1 1.572 1.14a.872.872 0 0 0 .522.171h.909zm-.745-7.452L11.545 6.68a.894.894 0 0 0-1.058 0l-1.52 1.1-1.49-1.1a.894.894 0 0 0-1.058 0l-1.8 1.282H1.881l1.87-4.472h10.432l1.848 4.471z" data-name="Path 200" transform="translate(-.098 -2)"/>
</svg>
