<svg xmlns="http://www.w3.org/2000/svg" id="Layer" width="9.546" height="8.336" viewBox="0 0 9.546 8.336">
    <g id="Vrstva_173" data-name="Vrstva 173">
        <path id="Path_193" fill="#fff" d="M10.072 4.613H8.349a.371.371 0 0 0-.026-.074l-1.09-1.888a.436.436 0 1 0-.754.436l.872 1.526h-2.96l.872-1.526a.436.436 0 1 0-.746-.436l-1.09 1.888a.371.371 0 0 0-.026.074H1.579a.523.523 0 0 0-.51.654l1.268 5.053a.528.528 0 0 0 .51.4h5.96a.528.528 0 0 0 .506-.4l1.269-5.053a.523.523 0 0 0-.51-.654zM8.537 9.845H3.113l-1.09-4.36h7.6z" data-name="Path 193" transform="translate(-1.052 -2.381)"/>
    </g>
</svg>
