<svg xmlns="http://www.w3.org/2000/svg" id="Layer" width="16.986" height="16.246" viewBox="0 0 16.986 16.246">
    <defs>
        <style>
            .cls-1{fill:#99a6ad}
        </style>
    </defs>
    <g id="Vrstva_106" data-name="Vrstva 106">
        <path id="Path_86" d="M9.417 20.72H3.3a2.319 2.319 0 0 1-1.971-1.036 2.234 2.234 0 0 1-.4-1.283v-4.638a.727.727 0 0 1 .456-.727.727.727 0 0 1 .835.124.773.773 0 0 1 .255.6v4.591a.773.773 0 0 0 .3.634.719.719 0 0 0 .448.155h12.323a.773.773 0 0 0 .827-.835v-4.542a.77.77 0 0 1 1.538-.085.479.479 0 0 1 0 .1v4.553a2.319 2.319 0 0 1-2.319 2.319z" class="cls-1" data-name="Path 86" transform="translate(-.928 -4.474)"/>
        <path id="Path_87" d="M10.188 4.32v9.894a.889.889 0 0 0 .1.464.773.773 0 0 0 1.445-.394V4.32l.116.093 1.894 1.546a.79.79 0 0 0 .974-1.244l-3.161-2.528a.9.9 0 0 0-1.144 0L7.219 4.722A.763.763 0 0 0 8.193 5.9l1.369-1.1z" class="cls-1" data-name="Path 87" transform="translate(-2.294 -1.983)"/>
    </g>
</svg>
