<svg xmlns="http://www.w3.org/2000/svg" xmlns:xlink="http://www.w3.org/1999/xlink" width="204" height="141" viewBox="0 0 204 141">
    <defs>
        <linearGradient id="linear-gradient" x1=".178" x2=".719" y1=".718" y2=".418" gradientUnits="objectBoundingBox">
            <stop offset="0" stop-color="#a3c6ff"/>
            <stop offset="1" stop-color="#d7e7ff"/>
        </linearGradient>
        <linearGradient id="linear-gradient-2" x1=".517" x2=".669" y1=".469" y2=".274" gradientUnits="objectBoundingBox">
            <stop offset="0" stop-color="#965cf2"/>
            <stop offset="1" stop-color="#ff8adc"/>
        </linearGradient>
        <linearGradient id="linear-gradient-3" x1=".528" x2=".44" y1=".295" y2=".88" gradientUnits="objectBoundingBox">
            <stop offset="0" stop-color="#c4e0f5"/>
            <stop offset="1" stop-color="#e1e8f6"/>
        </linearGradient>
        <linearGradient id="linear-gradient-4" x1=".438" x2=".574" y1=".615" y2=".401" gradientUnits="objectBoundingBox">
            <stop offset="0" stop-color="#6d6afe"/>
            <stop offset="1" stop-color="#3fb0f7"/>
        </linearGradient>
        <linearGradient id="linear-gradient-5" x1=".391" x2=".639" y1=".875" y2=".023" xlink:href="#linear-gradient-4"/>
        <linearGradient id="linear-gradient-6" x1=".88" x2=".128" y1=".728" y2=".325" xlink:href="#linear-gradient-2"/>
        <linearGradient id="linear-gradient-7" x1=".486" x2=".346" y1=".295" y2=".879" xlink:href="#linear-gradient-3"/>
        <linearGradient id="linear-gradient-8" x1=".359" x2=".731" y1=".595" y2=".345" xlink:href="#linear-gradient-4"/>
        <linearGradient id="linear-gradient-9" x1=".617" x2=".291" y1=".319" y2=".875" xlink:href="#linear-gradient-2"/>
        <linearGradient id="linear-gradient-10" x1=".373" x2=".73" y1=".239" y2="1.1" xlink:href="#linear-gradient-2"/>
        <linearGradient id="linear-gradient-11" x1=".409" x2=".64" y1=".707" y2=".133" xlink:href="#linear-gradient-4"/>
        <linearGradient id="linear-gradient-12" x1=".223" x2=".818" y1=".575" y2=".368" xlink:href="#linear-gradient-2"/>
        <linearGradient id="linear-gradient-13" x1=".205" x2="1.074" y1=".592" y2=".415" gradientUnits="objectBoundingBox">
            <stop offset="0" stop-color="#1c8ef4"/>
            <stop offset="1" stop-color="#00cfdd"/>
        </linearGradient>
        <linearGradient id="linear-gradient-14" x1=".57" x2=".3" y1=".774" y2="-.071" xlink:href="#linear-gradient-2"/>
        <linearGradient id="linear-gradient-15" x1=".462" x2=".552" y1=".629" y2=".321" xlink:href="#linear-gradient-4"/>
        <linearGradient id="linear-gradient-16" x1=".039" x2=".773" y1=".3" y2=".619" xlink:href="#linear-gradient-2"/>
        <linearGradient id="linear-gradient-17" x1=".103" x2=".887" y1=".321" y2=".674" xlink:href="#linear-gradient-13"/>
        <linearGradient id="linear-gradient-18" x1=".586" x2=".785" y1=".591" y2=".162" xlink:href="#linear-gradient-2"/>
        <linearGradient id="linear-gradient-19" x1="0" x2="1" y1=".5" y2=".5" xlink:href="#linear-gradient-4"/>
        <linearGradient id="linear-gradient-21" x1=".468" x2="-.068" y1=".493" y2=".569" gradientUnits="objectBoundingBox">
            <stop offset="0" stop-color="#ff8a78"/>
            <stop offset="1" stop-color="#ffa799"/>
        </linearGradient>
        <linearGradient id="linear-gradient-22" x1="-.149" x2=".476" y1=".728" y2=".494" gradientUnits="objectBoundingBox">
            <stop offset="0" stop-color="#ffb89e"/>
            <stop offset="1" stop-color="#ffa799"/>
        </linearGradient>
        <linearGradient id="linear-gradient-23" x1=".404" x2=".596" y1=".988" y2=".256" xlink:href="#linear-gradient-13"/>
        <linearGradient id="linear-gradient-24" x1=".512" x2=".577" y1=".43" y2=".616" xlink:href="#linear-gradient-22"/>
        <linearGradient id="linear-gradient-25" x1=".742" x2=".33" y1=".721" y2=".112" xlink:href="#linear-gradient-13"/>
        <linearGradient id="linear-gradient-26" x1=".505" x2=".611" y1=".464" y2=".799" xlink:href="#linear-gradient-21"/>
        <linearGradient id="linear-gradient-27" x1=".732" x2=".397" y1=".132" y2=".819" gradientUnits="objectBoundingBox">
            <stop offset="0" stop-color="#5a2d68"/>
            <stop offset="1" stop-color="#22043d"/>
        </linearGradient>
        <linearGradient id="linear-gradient-28" x1=".401" x2=".625" y1=".74" y2=".124" xlink:href="#linear-gradient-13"/>
        <linearGradient id="linear-gradient-29" x1=".697" x2=".228" y1=".261" y2=".775" gradientUnits="objectBoundingBox">
            <stop offset="0" stop-color="#3874c2"/>
            <stop offset="1" stop-color="#214075"/>
        </linearGradient>
        <linearGradient id="linear-gradient-30" x1=".644" x2=".217" y1=".321" y2=".982" xlink:href="#linear-gradient-29"/>
        <linearGradient id="linear-gradient-31" x1=".813" x2="-.07" y1=".257" y2=".737" xlink:href="#linear-gradient-29"/>
        <linearGradient id="linear-gradient-32" x1=".587" x2=".051" y1=".35" y2=".693" xlink:href="#linear-gradient-29"/>
        <linearGradient id="linear-gradient-33" x1=".363" x2=".576" y1=".773" y2=".188" xlink:href="#linear-gradient-13"/>
        <linearGradient id="linear-gradient-34" x1=".68" x2=".367" y1=".284" y2=".643" xlink:href="#linear-gradient-21"/>
        <linearGradient id="linear-gradient-35" x1=".611" x2=".437" y1=".316" y2=".791" xlink:href="#linear-gradient-22"/>
        <linearGradient id="linear-gradient-36" x1=".988" x2=".331" y1=".187" y2=".82" gradientUnits="objectBoundingBox">
            <stop offset="0" stop-color="#8a4791"/>
            <stop offset="1" stop-color="#562e65"/>
        </linearGradient>
        <linearGradient id="linear-gradient-37" x1=".106" x2="1.27" y1=".625" y2=".256" xlink:href="#linear-gradient-4"/>
        <linearGradient id="linear-gradient-38" x1=".631" x2=".432" y1=".891" y2=".089" xlink:href="#linear-gradient-13"/>
        <clipPath id="clip-path">
            <path id="Rectangle_901" fill="#fff" d="M0 0H204V141H0z" transform="translate(832 308)"/>
        </clipPath>
        <style>
            .cls-10,.cls-21{fill:#fff}.cls-10,.cls-12,.cls-18,.cls-21,.cls-23,.cls-24,.cls-25,.cls-30,.cls-38,.cls-4,.cls-41,.cls-42,.cls-45,.cls-46,.cls-54,.cls-57,.cls-58,.cls-8{fill-rule:evenodd}.cls-18,.cls-21,.cls-25,.cls-4,.cls-42{opacity:.5}.cls-4{fill:#a1c3ff}.cls-8{fill:#864de2}.cls-12{fill:#6d6afd;opacity:.2}.cls-18{fill:#3856d8}.cls-42{mix-blend-mode:multiply;isolation:isolate}.cls-23{fill:#d0e7ff}.cls-24{fill:#ecf5ff}.cls-25{fill:#22d2fb}.cls-30{fill:#86e4fd}.cls-38{fill:#d4e5ff}.cls-41{fill:url(#linear-gradient-19)}.cls-42{fill:#bdddff}.cls-45{fill:#161a40}.cls-46{fill:#161f69}.cls-54{fill:#ffa698}.cls-57{fill:#ffa495}.cls-58{fill:#193161}
        </style>
    </defs>
    <g id="Mask_Group_1" clip-path="url(#clip-path)" transform="translate(-832 -308)">
        <g id="Group_2828" transform="translate(841.9 267.458)">
            <g id="Group_2882" transform="translate(6.6 45.312)">
                <g id="Group_2830" transform="translate(132.082 1.79)">
                    <g id="Group_2828-2" transform="translate(0 37.547)">
                        <path id="Path_8461" fill="url(#linear-gradient)" fill-rule="evenodd" d="M2282.352 769.573c-.674 2.225-4.584 1.915-8.13.8-1.288-.405-5.138-2.221-5.409-.972-.134.44 1.19 2.092 2.612 3.814 1.271 1.538 5.233 5.478 3.427 8.066-1.639 2.349-7.731-2.24-9.491-3.994-6.031-6-6.487-4.292-1.78 1.817a20.339 20.339 0 0 1 3.709 7.56c.156.948.056 1.77-1.015 1.748-1.224-.025-3.507-1.077-6.9-2.558-7.749-3.389-13.672-8.531-23.643.083 2.271-11.734 4.725-21.078 7.4-31.813.6-2.392 1.262-4.9 1.964-7.218a35.935 35.935 0 0 1 3.1-7.812 7.132 7.132 0 0 1 .791-1.058l.019-.02c1.493-1.569 2.258.227 1.636 4.592-.272 1.916-.571 3.74-.923 5.848-.494 2.951-.678 4.838-.347 4.948.369.118 1.192-2.122 3.073-7.31 2.425-6.693 5.843-14.908 7.536-13.747.556.379.75 2.53.239 7.98-1.066 9.7 1.1 3.075 3.335-1.322 1.224-2.542 4.222-10.834 6.156-8.263.8 1.073-.121 4.765-.981 7.6-.2.648-.389 1.252-.557 1.769-.135.413-.253.79-.358 1.134-1.376 4.543-.236 3.352 2.122-.287a25.762 25.762 0 0 1 3.449-4.539c4-3.757 3.991.017 2.875 3.7-.12.395-.252.788-.393 1.171-.51 1.385-1.063 2.681-1.366 3.68-.485 1.6-.327 2.441 1.686 1.657a12.769 12.769 0 0 1 3.439-.778c2.979-.281 4.352.4 4.941 3.135a3.778 3.778 0 0 1-.117 1.9 10.772 10.772 0 0 1-4.565 5.255c-1.974 1.274-3.834 2.218-4.245 3.574a1.949 1.949 0 0 0-.08.7c.113 1.759 2.625 3.553 4.54 5.043 2.024 1.579 2.592 2.994 2.251 4.117z" opacity="0.5" transform="translate(-2234.723 -730.253)"/>
                        <path id="Path_8462" d="M2275.576 877.72a97.533 97.533 0 0 0-19.067 10.97 46.627 46.627 0 0 1 8.229 4.7c-3.061-1.384-6.233-2.719-9.271-3.938-3.469 2.556-6.851 5.3-10.143 8.169-1.243 1.082-2.521 2.244-3.816 3.456a66.682 66.682 0 0 1 9.988 8.259c-3.818-2.433-7.249-5.058-11.034-7.275-4.642 4.4-9.437 9.309-13.558 13.3 3.413-5.367 9.414-11.992 14.94-17.11 1.262-5.015 3.9-15.243 5.922-19.336-.982 3.609-2.967 12.6-4.173 17.753q.528-.466 1.044-.91a107.5 107.5 0 0 1 13.979-9.8l.016-.047a71.868 71.868 0 0 1 4.8-10.568c-1.186 3.417-2.5 6.569-3.6 9.9a87.531 87.531 0 0 1 15.744-7.523z" class="cls-4" transform="translate(-2226.904 -858.701)"/>
                    </g>
                    <g id="Group_2829" transform="translate(2.198)">
                        <path id="Path_8463" fill="#d6e6ff" fill-rule="evenodd" d="M2266.619 418.618c2.251-2 11.353-4.885 11.016-.3s-6.312-.885-11.016.3zm-14.383 27.195a4.985 4.985 0 0 0 .095-.657c4.271-1.935 10.991 1.426 10.152-2.947-.805-4.2-7.831-.028-10.13 2.6.149-3.618-1.75-11.047-5.221-8.762-3.669 2.416 3.191 4.856 4.9 9.158-.039.053-.076.106-.109.157.046-.026.094-.05.141-.075a5.366 5.366 0 0 1 .172.526zm2.617-7.8a5.489 5.489 0 0 0-.136-.578l-.107.045.089-.107c-1.336-4.428-7.932-7.459-4.068-9.539 3.649-1.964 4.887 5.555 4.43 9.157 2.5-2.413 9.914-5.99 10.346-1.718.449 4.437-5.969.475-10.395 2.046a5.235 5.235 0 0 1-.16.694zm3.218-7.459a5.054 5.054 0 0 0 .267-.623c4.665-.946 10.442 4.259 10.773-.246.323-4.4-8.038-1.922-10.707.053 1.12-3.391 1.268-11.262-2.725-9.941-4.364 1.444 2.4 5.906 2.392 10.757zm22.356-20.929c2.251-2 11.354-4.885 11.016-.3s-6.312-.884-11.016.3zm-7.936 4.057c2.409-1.807 7.05-10.151 2.491-10.735s-.392 6.361-2.491 10.735zm-5.595 4.7c1.865-2.364 4.209-11.621-.347-11.015s1.254 6.249.347 11.015zm-4.922 5.81c.3-4.842-6.168-9.713-1.724-10.884s3.277 8.305 1.724 10.884zm.326-.376c4.7-1.185 10.679 4.283 11.016-.3s-8.765-1.7-11.016.3zm9.912-9.851c4.7-1.185 10.679 4.283 11.016-.3s-8.764-1.707-11.015.293z" opacity="0.5" transform="translate(-2246.068 -402.909)"/>
                        <path id="Path_8464" d="M2263.658 446.457c.548-1.624 1.153-3.243 1.816-4.843-.289-1.917-1.18-5.777-3.821-8.189 2.916 1.726 3.725 5.8 3.916 7.961a69.278 69.278 0 0 1 3.364-6.958c.072-1.816-.045-6.027-2.335-9 2.686 2.3 2.666 6.729 2.45 8.793a57.713 57.713 0 0 1 3.841-5.979c.19-1.7.415-6.086-1.756-9.3 2.636 2.558 2.219 7.221 1.863 9.152a46.173 46.173 0 0 1 4.946-5.675c.4-1.692 1.151-5.974-.588-9.4 2.284 2.854 1.307 7.4.711 9.287a36.616 36.616 0 0 1 5.753-4.54c.841-1.58 2.595-5.464 1.807-9.169 1.447 3.281-.557 7.328-1.634 9.06a30.2 30.2 0 0 1 9.821-3.995 14.273 14.273 0 0 1 3.313-.5q.234-.022.47-.041l-.254.038a7.169 7.169 0 0 1 4.219 1.174 12.966 12.966 0 0 0-7.289-.544 32.057 32.057 0 0 0-10.23 4.714c1.854-.706 6.326-1.943 9.305.167-3.624-1.576-7.99-.48-9.554.006a38.914 38.914 0 0 0-5.246 4.449c1.911-.71 6.279-1.868 9.206.2-3.478-1.512-7.639-.565-9.352-.056a48.017 48.017 0 0 0-4.338 5.105c1.812-.7 6.355-1.993 9.371.142-3.552-1.545-7.818-.523-9.458-.023a59.07 59.07 0 0 0-3.829 5.946c1.97-.712 6.216-1.778 9.081.25-3.353-1.458-7.343-.629-9.159-.112a70.379 70.379 0 0 0-3.465 7.1c1.844-1.048 5.787-2.778 8.926-1.294-3.524-.847-7.274.627-8.994 1.456-.714 1.707-1.321 3.337-1.827 4.837q-.458 1.354-.884 2.789c1.738-1.2 5.524-3.292 8.791-2.087-3.592-.533-7.2 1.275-8.839 2.251-3.124 10.569-4.869 23.986-3.178 34.477-3.148-11.32-.364-26.081 2.132-34.682-.458-1.886-1.687-5.646-4.528-7.813 3.048 1.457 4.216 5.425 4.6 7.565.298-.995.583-1.909.856-2.719z" class="cls-4" transform="translate(-2256.81 -407.945)"/>
                    </g>
                </g>
                <g id="Group_2881">
                    <g id="Group_2838" transform="translate(94.755)">
                        <g id="Group_2832" transform="translate(17.912 11.934)">
                            <g id="Group_2831" fill-rule="evenodd">
                                <path id="Path_8465" fill="url(#linear-gradient-2)" d="M2076.93 524.342l-19.289-11.21 4.478-21.254V491.626l.005-.009V491.604l.006-.009.005-.008.005-.008.006-.008v-.005l.006-.008.006-.008.006-.007.007-.007.007-.007.006-.006.007-.007h.011l.007-.006.007-.005.008-.005.008-.005h.006a.317.317 0 0 1 .288-.013l19.287 11.209c-.462-.455-3.028 15.383-4.883 21.651z" transform="translate(-2057.641 -491.346)"/>
                                <path id="Path_8466" fill="#783fd3" d="M2062.118 495.988l14.7 8.8 1.089 19.183c-.174 1.667-.676 3.277-.887 4.931l-19.385-11.664z" transform="translate(-2057.64 -495.455)"/>
                            </g>
                            <path id="Path_8467" d="M2180.455 594.828a.579.579 0 0 1 .094-.07c.151-.086.287-.049.332.1l4.555 16.04 4.477-21.254a.759.759 0 0 1 .327-.479.43.43 0 0 1 .093-.04c.185-.049.293.108.241.346l-4.5 21.4a3.211 3.211 0 0 1-.273.837.966.966 0 0 1-.363.409.314.314 0 0 1-.357.008.959.959 0 0 1-.261-.5l-4.6-16.172a.705.705 0 0 1 .235-.625z" class="cls-8" transform="translate(-2166.147 -577.901)"/>
                        </g>
                        <g id="Group_2836">
                            <path id="Path_8468" fill="url(#linear-gradient-3)" fill-rule="evenodd" d="M1905.744 389.151c0-.47-.367-.852-.2-1.154.176-.327.9-.527 1.214-.627a2.014 2.014 0 0 1 1.6.292l31.755 18.232a5.726 5.726 0 0 1 2.6 4.5l-.062 17.625a1.836 1.836 0 0 1-.741 1.659 3.012 3.012 0 0 1-1.449.411c-.271-.047-.12-.406-.423-.58l-31.755-18.232a5.724 5.724 0 0 1-2.6-4.5z" transform="translate(-1905.036 -387.304)"/>
                            <path id="Path_8469" d="M1901.538 391.181c0-1.651 1.174-2.32 2.613-1.489l31.755 18.232a5.726 5.726 0 0 1 2.6 4.5l-.062 17.625c0 1.651-1.176 2.319-2.613 1.489l-31.759-18.238a5.723 5.723 0 0 1-2.6-4.5z" class="cls-10" transform="translate(-1901.476 -389.102)"/>
                            <path id="Path_8470" fill="url(#linear-gradient-4)" fill-rule="evenodd" d="M1901.945 391.181c0-1.651 1.174-2.32 2.613-1.489l31.755 18.232a5.726 5.726 0 0 1 2.6 4.5l-.009 2.673-36.964-21.222z" transform="translate(-1901.883 -389.102)"/>
                            <g id="Group_2835" transform="translate(1.965 11.013)">
                                <g id="Group_2833">
                                    <path id="Path_8471" d="M1923.834 483.424c2.74.627 4.844 3.889 4.7 7.287s-2.482 5.643-5.221 5.017-4.844-3.889-4.7-7.287 2.481-5.641 5.221-5.017z" class="cls-12" transform="translate(-1918.605 -483.319)"/>
                                    <path id="Path_8472" fill="url(#linear-gradient-5)" fill-rule="evenodd" d="M1941.383 508.513a3.828 3.828 0 0 1 2.534 3.928c-.077 1.832-1.338 3.043-2.815 2.7a3.827 3.827 0 0 1-2.534-3.928c.078-1.832 1.338-3.043 2.815-2.7zm-.066 1.555c-.784-.179-1.454.464-1.5 1.437a2.033 2.033 0 0 0 1.346 2.086c.785.18 1.454-.464 1.5-1.437a2.033 2.033 0 0 0-1.346-2.086z" transform="translate(-1936.274 -505.574)"/>
                                </g>
                                <g id="Group_2834" transform="translate(11.485 5.405)">
                                    <path id="Path_8473" d="M2018.839 531.338c.054-.781.622-1.112 1.27-.738l19.655 10.764a2.427 2.427 0 0 1 1.074 2.091l-.1 1.544c-.054.78-.623 1.112-1.27.738l-19.655-10.764a2.426 2.426 0 0 1-1.074-2.09z" class="cls-12" transform="translate(-2018.732 -530.446)"/>
                                    <path id="Path_8474" d="M2020.344 588.581c.06-.461.408-.657.777-.436l11.211 6.356a1.341 1.341 0 0 1 .558 1.235l-.117.912c-.06.461-.409.656-.777.436l-11.211-6.356a1.341 1.341 0 0 1-.558-1.235z" class="cls-12" transform="translate(-2020.047 -581.446)"/>
                                </g>
                            </g>
                        </g>
                        <g id="Group_2837" transform="translate(11.829 14.507)">
                            <path id="Path_8475" fill="url(#linear-gradient-6)" fill-rule="evenodd" d="M2024.875 529.986l4.66 15.531c.061.167.017 1.291.108 1.389l-19.287-11.206a.766.766 0 0 1-.284-.514l-4.6-16.171-.862-3.031a.788.788 0 0 1 .166-.549c.8.73 5.078 3.347 5.866 3.811 1.321 1.035 1.366 2.1 3.367 4.225a3.465 3.465 0 0 0 .99.793z" transform="translate(-2004.608 -515.247)"/>
                            <path id="Path_8476" d="M2180.455 638.025a.579.579 0 0 1 .094-.07c.151-.086.287-.049.332.1l4.555 16.04.361.807a.961.961 0 0 1-.362.409.313.313 0 0 1-.357.008.957.957 0 0 1-.261-.5l-4.6-16.172a.706.706 0 0 1 .238-.622z" class="cls-8" transform="translate(-2160.064 -623.672)"/>
                            <path id="Path_8477" fill="#d477e4" fill-rule="evenodd" d="M2015.608 522.389l9.729 5.654c-.253-.124-.641.445-.574.716l-9.826-5.71a6.045 6.045 0 0 1-.819-.53c-1.4-1.1-2.056-2.615-2.968-3.837a3.921 3.921 0 0 0-.782-.792c-.243-.132-.371-.2-.328-.181l-5.422-3.192a.789.789 0 0 1 .167-.544c.1-.109.263-.244.409-.167l5.432 3.2c-.043-.021.086.049.328.181a3.911 3.911 0 0 1 .782.792 17.4 17.4 0 0 0 3.223 3.982 5.082 5.082 0 0 0 .649.428z" transform="translate(-2004.609 -513.783)"/>
                        </g>
                    </g>
                    <g id="Group_2858" transform="translate(31.389 8.784)">
                        <g id="Group_2844" transform="translate(26.124 4.589)">
                            <g id="Group_2839" fill-rule="evenodd">
                                <path id="Path_8478" fill="url(#linear-gradient-7)" d="M1677.117 504.209a2.048 2.048 0 0 0-1.742-.195l-1.308.511c-.475 2.458 67.355 115.227 67.962 115.852l1.167-.44a2.28 2.28 0 0 0 1.281-1.875l9.857-67.282a.047.047 0 0 0 0-.007 4.807 4.807 0 0 0-.8-3.255 3.789 3.789 0 0 0-1.317-1.27z" transform="translate(-1662.906 -503.899)"/>
                                <path id="Path_8479" fill="url(#linear-gradient-8)" d="M1664.805 550.574l-75.1-42.039c-1.421-.787-2.773-.032-3.024 1.682l-9.857 67.282a4.725 4.725 0 0 0 2.114 4.53l75.1 42.039c1.42.787 2.776.034 3.027-1.68l9.857-67.283a4.73 4.73 0 0 0-2.117-4.531z" transform="translate(-1576.785 -507.727)"/>
                            </g>
                            <g id="Group_2840" transform="translate(7.438 33.494)">
                                <path id="Path_8480" d="M1712.966 818.29a.4.4 0 0 0-.6.336.961.961 0 0 0 .421.916c.294.163.565.007.615-.342a.952.952 0 0 0-.432-.911zm-70.841 9.152l4.058-27.7-.494-.273-4.058 27.7.493.276zm4.063-29.608c-.278-.154-.555 0-.606.348a.961.961 0 0 0 .421.911.4.4 0 0 0 .62-.334.964.964 0 0 0-.435-.925zm3.995 34.119l3.817-26.045-.494-.274-3.815 26.043.493.276zm3.825-27.95c-.283-.157-.559 0-.611.345a.96.96 0 0 0 .426.913.4.4 0 0 0 .615-.336.962.962 0 0 0-.43-.922zm4.114 32.394l5.188-34.5-.5-.276-5.187 34.5.5.279zm5.2-36.4a.4.4 0 0 0-.615.342.961.961 0 0 0 .431.917.4.4 0 0 0 .605-.342.963.963 0 0 0-.421-.917zm3.011 41l6.281-43.115-.484-.269-6.281 43.113.484.271zm6.3-45.017c-.288-.161-.555 0-.606.353a.943.943 0 0 0 .422.9.393.393 0 0 0 .609-.333.951.951 0 0 0-.425-.925zm1.773 49.533l6.535-44.852-.494-.273-6.534 44.849.493.276zm6.545-46.758a.4.4 0 0 0-.611.345.96.96 0 0 0 .427.914.4.4 0 0 0 .614-.336.963.963 0 0 0-.43-.923zm1.337 51.17l6.224-41.4-.5-.276-6.225 41.4.5.279zm6.228-43.3c-.279-.155-.554-.007-.605.348a.956.956 0 0 0 .422.9.4.4 0 0 0 .613-.33.948.948 0 0 0-.43-.922zm1.613 46.733l.493.274 5.207-35.542-.494-.273-5.207 35.542zm5.714-37.171a.4.4 0 0 0-.615.342.964.964 0 0 0 .431.916.4.4 0 0 0 .61-.339.963.963 0 0 0-.426-.92zm2.7 42.84l5.1-34.823-.489-.27-5.1 34.82.489.274zm5.115-36.719a.392.392 0 0 0-.6.336.956.956 0 0 0 .42.917.4.4 0 0 0 .616-.342.954.954 0 0 0-.432-.911zm3.6 33.158l.5.276 5.208-35.547-.5-.276z" class="cls-18" transform="translate(-1641.632 -795.915)"/>
                                <path id="Path_8481" d="M1723.771 862.073a.849.849 0 0 0-.327-.346.429.429 0 0 0-.473 0c-1.21.933-2.316 1.739-3.353 2.435-1.022.7-1.984 1.282-2.875 1.778-4.149 2.265-7.154 2.425-10.112.783-2.895-1.668-5.687-5.183-9.333-10.13-4.079-5.535-7.677-9.284-11.3-11.293a15.417 15.417 0 0 0-1.609-.777c-4.176-1.72-8.422-1.122-13.506 1.733-.528.282-1.037.587-1.546.88-3.912 2.266-7.578 4.385-11.534 2.192-2.057-1.14-4.193-3.448-6.482-7.508a.857.857 0 0 0-.325-.342.422.422 0 0 0-.478.013.826.826 0 0 0-.055.992c2.557 4.542 4.92 7.1 7.185 8.358 4.263 2.364 8.174.092 12.349-2.323.518-.287 1.026-.581 1.544-.869 4.849-2.73 8.871-3.317 12.783-1.711a14.024 14.024 0 0 1 1.45.7c3.418 1.9 6.871 5.5 10.809 10.84 3.784 5.119 6.689 8.774 9.831 10.586l.181.1c3.116 1.728 6.379 1.58 10.789-.819q1.369-.746 2.95-1.815c1.047-.717 2.175-1.536 3.384-2.469a.8.8 0 0 0 .053-.988z" class="cls-18" transform="translate(-1649.329 -836.196)"/>
                                <path id="Path_8482" fill="#6bb6ff" fill-rule="evenodd" d="M1717.842 847.164a.835.835 0 0 0-.327-.341.43.43 0 0 0-.474.01c-1.209.95-2.315 1.771-3.352 2.482s-1.985 1.31-2.876 1.819c-4.149 2.322-7.154 2.524-10.112.924-2.894-1.627-5.687-5.1-9.333-10-4.078-5.478-7.677-9.177-11.3-11.135a15.178 15.178 0 0 0-1.608-.754c-4.176-1.662-8.422-1.005-13.506 1.921-.528.29-1.037.6-1.546.9-3.912 2.32-7.578 4.49-11.534 2.353-2.057-1.112-4.194-3.389-6.482-7.418a.84.84 0 0 0-.324-.338.421.421 0 0 0-.478.02.827.827 0 0 0-.056.992c2.557 4.505 4.92 7.034 7.185 8.257 4.263 2.3 8.174-.022 12.349-2.495.518-.295 1.026-.6 1.543-.89 4.849-2.8 8.872-3.441 12.784-1.889a13.772 13.772 0 0 1 1.45.681c3.418 1.847 6.871 5.4 10.81 10.689 3.783 5.066 6.688 8.68 9.831 10.449l.181.1c3.116 1.684 6.378 1.491 10.788-.97q1.37-.765 2.95-1.856c1.046-.732 2.175-1.566 3.384-2.516a.8.8 0 0 0 .053-.995z" transform="translate(-1644.08 -823.9)"/>
                                <path id="Path_8483" fill="aqua" fill-rule="evenodd" d="M1722.2 847.331a51.345 51.345 0 0 1-6.228 4.3c-4.149 2.322-7.154 2.524-10.112.924-2.894-1.627-5.687-5.1-9.333-10-3.228-4.336-7.724-9.831-12.91-11.89-5.565-2.215-10.232-.028-15.052 2.824-3.912 2.32-7.578 4.49-11.534 2.353-2.057-1.112-4.194-3.389-6.483-7.418a.837.837 0 0 0-.324-.338c.649 1.668 3.562 6.619 6.376 8.14 4.263 2.3 7.93.283 12.1-2.189 4.657-2.651 9.467-5.036 14.846-2.9 4.883 1.95 9.584 7.652 12.625 11.737 3.784 5.066 6.506 8.528 9.648 10.3a7.807 7.807 0 0 0 7.124.527c2.424-.901 8.029-4.442 9.257-6.37z" transform="translate(-1649.241 -824.398)"/>
                            </g>
                            <g id="Group_2843" transform="translate(2.727 44.727)">
                                <g id="Group_2841" transform="translate(0 23.158)">
                                    <path id="Path_8484" d="M1600.768 1096.231c.06-.423.381-.6.717-.4l73.56 42.179a1.214 1.214 0 0 1 .5 1.132l-.195 1.284c-.06.423-.382.6-.717.4l-73.56-42.179a1.213 1.213 0 0 1-.5-1.132z" class="cls-21" transform="translate(-1600.564 -1095.746)"/>
                                    <path id="Path_8485" d="M1602.479 1098.046c.055-.384.346-.548.65-.365l27.912 16a1.1 1.1 0 0 1 .452 1.027l-.177 1.165c-.055.384-.346.548-.65.365l-27.912-16a1.1 1.1 0 0 1-.452-1.027z" class="cls-21" transform="translate(-1602.094 -1097.392)"/>
                                </g>
                                <g id="Group_2842" transform="translate(28.72)">
                                    <path id="Path_8486" d="M1893.7 928.051l-1.589 11.466 9.715.263z" class="cls-21" transform="translate(-1887.391 -924.128)"/>
                                    <path id="Path_8487" d="M1858.671 913.813c-3.8-2.328-6.505-7.969-6.038-12.6s3.93-6.5 7.731-4.173 6.505 7.968 6.037 12.6-3.929 6.5-7.731 4.173zm-.2 1.963c4.692 2.872 8.964.565 9.541-5.15s-2.758-12.676-7.45-15.549-8.963-.567-9.541 5.15 2.76 12.673 7.452 15.549z" class="cls-21" transform="translate(-1850.957 -893.842)"/>
                                </g>
                            </g>
                        </g>
                        <g id="Group_2849" transform="translate(87.478 42.406)">
                            <path id="Path_8488" d="M2114.673 860.7l21.57 11.677 1.281-.738 1.127-7.149 1.36-18.725-21.726-11.761c-1.961-1.061-3.832 0-4.178 2.372l-2.356 18.106a6.441 6.441 0 0 0 2.922 6.218z" transform="translate(-2111.695 -833.597)" style="mix-blend-mode:multiply;isolation:isolate" fill="url(#linear-gradient-9)" fill-rule="evenodd" opacity="0.5"/>
                            <g id="Group_2848" transform="translate(2.348 .31)">
                                <g id="Group_2845">
                                    <path id="Path_8489" d="M2201.147 862.388l-2.689 18.311.323.035.881-.353a2.922 2.922 0 0 0 1.614-2.384l2.151-16.529a.051.051 0 0 0 0-.01 6 6 0 0 0-1.011-4.089 4.682 4.682 0 0 0-1.659-1.578l-35.3-19.116a2.57 2.57 0 0 0-2.2-.217l-.777.313c-.39.152-.511.271-.509.3.372 3.408 39.69 21.806 39.176 25.317z" class="cls-23" transform="translate(-2158.557 -836.303)"/>
                                    <path id="Path_8490" d="M2173.481 858.922l-35.3-19.116a2.549 2.549 0 0 0-2.194-.218 2.858 2.858 0 0 0-1.616 2.386l-2.151 16.529a5.875 5.875 0 0 0 2.663 5.674l35.3 19.116c1.79.969 3.5 0 3.815-2.166l2.151-16.53a5.882 5.882 0 0 0-2.668-5.675z" class="cls-24" transform="translate(-2132.168 -839.072)"/>
                                </g>
                                <g id="Group_2846" transform="translate(19.348 15.827)">
                                    <path id="Path_8491" d="M2334.718 985.187l-20.107-10.8a.61.61 0 0 0-.525-.052.683.683 0 0 0-.386.57l-.135.815a1.405 1.405 0 0 0 .637 1.356l20.107 10.8a.6.6 0 0 0 .912-.518l.134-.815a1.406 1.406 0 0 0-.637-1.356z" class="cls-25" transform="translate(-2312.096 -974.293)"/>
                                    <path id="Path_8492" d="M2328.365 1028.672l-20.107-10.805a.609.609 0 0 0-.525-.052.683.683 0 0 0-.386.57l-.135.815a1.4 1.4 0 0 0 .637 1.356l20.108 10.8a.6.6 0 0 0 .912-.518l.135-.816a1.405 1.405 0 0 0-.639-1.35z" class="cls-25" transform="translate(-2306.472 -1012.79)"/>
                                    <path id="Path_8493" d="M2309.9 1065.505l-8-4.155a.609.609 0 0 0-.525-.052.683.683 0 0 0-.386.571l-.134.815a1.406 1.406 0 0 0 .636 1.356l8 4.155a.6.6 0 0 0 .912-.518l.135-.815a1.407 1.407 0 0 0-.638-1.357z" class="cls-25" transform="translate(-2300.85 -1051.286)"/>
                                </g>
                                <g id="Group_2847" fill-rule="evenodd" transform="translate(2.685 4.772)">
                                    <path id="Path_8494" fill="#22d2fb" d="M2155.658 932.718c-.62 5.576 2.467 12.338 6.9 15.093s8.693-.921 9.159-5.118-.318-5.931-1.586-8.679c-.772.436-1.545.872-2.316 1.3a8.64 8.64 0 0 1 1.031 5.595c-.3 2.7-3.036 5.059-5.885 3.289s-4.833-6.115-4.435-9.7c-.943-.589-1.908-1.185-2.868-1.78z" transform="translate(-2155.579 -926.431)"/>
                                    <path id="Path_8495" fill="#12a3eb" d="M2159.424 883.176c-1.659.92-2.843 2.89-3.154 5.682.959.6 1.925 1.191 2.872 1.783a4.539 4.539 0 0 1 2.023-3.652q-.874-1.902-1.741-3.813z" transform="translate(-2156.19 -882.572)"/>
                                    <path id="Path_8496" fill="#1c8df3" d="M2189.778 879.072c-2.221-1.377-4.353-1.49-6.005-.57q.864 1.915 1.74 3.822a3.726 3.726 0 0 1 3.857.362 9.628 9.628 0 0 1 3.44 4.166c.771-.427 1.542-.855 2.315-1.291a14.876 14.876 0 0 0-5.347-6.489z" transform="translate(-2180.539 -877.906)"/>
                                </g>
                            </g>
                        </g>
                        <g id="Group_2853" transform="translate(20.18)">
                            <path id="Path_8497" d="M1661.208 560.8c-.365 2.786-2.471 4-4.7 2.709l-26.4-15.461.6-4.191 4.845-22.249 24.638 14.43a7.929 7.929 0 0 1 3.38 7.388z" transform="translate(-1618.043 -514.987)" style="mix-blend-mode:multiply;isolation:isolate" fill="url(#linear-gradient-10)" fill-rule="evenodd" opacity="0.5"/>
                            <g id="Group_2852">
                                <path id="Path_8498" d="M1533.639 467.181c.13-.992-.14-1.59.352-2.151a5.808 5.808 0 0 1 1.715-.972 3.166 3.166 0 0 1 2.733.359l32.652 19.165a8.1 8.1 0 0 1 3.449 7.539l-1.937 14.272a4.345 4.345 0 0 1-1.2 2.667 4.646 4.646 0 0 1-2.062 1.021c-.647.081-.818-.5-1.544-.923l-32.651-19.165a8.092 8.092 0 0 1-3.449-7.539z" class="cls-23" transform="translate(-1530.88 -463.889)"/>
                                <path id="Path_8499" d="M1526.961 471.131c.373-2.843 2.522-4.083 4.8-2.764l32.652 19.165a8.1 8.1 0 0 1 3.448 7.539l-1.937 14.272c-.373 2.843-2.524 4.082-4.8 2.764l-32.651-19.165a8.092 8.092 0 0 1-3.449-7.539z" class="cls-24" transform="translate(-1524.967 -467.386)"/>
                                <g id="Group_2850" transform="translate(16.674 15.559)">
                                    <path id="Path_8500" d="M1676.617 600.505c.111-.844.748-1.2 1.423-.8l20.535 11.642a2.455 2.455 0 0 1 1.021 2.261l-.214 1.67c-.111.844-.749 1.2-1.423.8l-20.534-11.643a2.455 2.455 0 0 1-1.022-2.261z" class="cls-30" transform="translate(-1675.692 -599.54)"/>
                                    <path id="Path_8501" d="M1670.472 657.111c.065-.5.441-.71.84-.472l12.126 6.875a1.45 1.45 0 0 1 .6 1.335l-.127.986c-.065.5-.442.71-.84.472l-12.126-6.875a1.448 1.448 0 0 1-.6-1.335z" class="cls-30" transform="translate(-1670.336 -650.003)"/>
                                </g>
                                <g id="Group_2851" transform="translate(1.884 7.577)">
                                    <path id="Path_8502" d="M1548.568 530.094c3.759.86 6.646 5.336 6.448 10s-3.4 7.743-7.164 6.883-6.646-5.336-6.448-10 3.405-7.743 7.164-6.883z" class="cls-12" transform="translate(-1541.395 -529.95)"/>
                                    <path id="Path_8503" fill="url(#linear-gradient-11)" fill-rule="evenodd" d="M1558.536 613.174a4.519 4.519 0 0 1-2.868.251c-2.807-.642-5.051-3.617-5.5-7.013l5.358-.107z" transform="translate(-1549.162 -597.546)"/>
                                    <path id="Path_8504" fill="url(#linear-gradient-12)" fill-rule="evenodd" d="M1605.407 548.148a9.1 9.1 0 0 1 3.729 7.842 6.609 6.609 0 0 1-2.546 5.26l-3.021-6.9z" transform="translate(-1596.437 -546.06)"/>
                                    <path id="Path_8505" fill="url(#linear-gradient-13)" fill-rule="evenodd" d="M1555.655 540.228a5.418 5.418 0 0 1 1.048.357l-1.844 6.224-5.4.108q-.015-.369 0-.741c.175-4.028 2.947-6.691 6.196-5.948z" transform="translate(-1548.53 -538.939)"/>
                                </g>
                            </g>
                        </g>
                        <g id="Group_2857" transform="translate(0 21.23)">
                            <path id="Path_8506" d="M1599.421 812.769l5.812 3.411a8.354 8.354 0 0 1 3.559 7.78l-2 14.728c-.385 2.933-2.6 4.212-4.954 2.852l-10.01-5.876 2.352-14.413z" transform="translate(-1563.979 -793.982)" style="mix-blend-mode:multiply;isolation:isolate" fill="url(#linear-gradient-14)" fill-rule="evenodd" opacity="0.5"/>
                            <g id="Group_2856">
                                <path id="Path_8507" d="M1357.7 652.275c.13-.992-.14-1.591.352-2.151a5.813 5.813 0 0 1 1.716-.972 3.166 3.166 0 0 1 2.733.359l32.652 19.165a8.1 8.1 0 0 1 3.448 7.539l-1.937 14.273a4.342 4.342 0 0 1-1.195 2.667 4.642 4.642 0 0 1-2.062 1.02c-.647.081-.818-.5-1.544-.923l-32.651-19.165a8.091 8.091 0 0 1-3.449-7.539z" class="cls-23" transform="translate(-1354.944 -648.983)"/>
                                <path id="Path_8508" fill="url(#linear-gradient-15)" fill-rule="evenodd" d="M1351.024 656.225c.373-2.843 2.522-4.083 4.8-2.764l32.652 19.165a8.1 8.1 0 0 1 3.449 7.539l-1.937 14.272c-.373 2.843-2.524 4.082-4.8 2.764l-32.651-19.165a8.091 8.091 0 0 1-3.449-7.539z" transform="translate(-1349.031 -652.48)"/>
                                <path id="Path_8509" fill="url(#linear-gradient-16)" fill-rule="evenodd" d="M1444.394 719.978c.048-.368.326-.524.62-.348l26.647 15.307a1.071 1.071 0 0 1 .445.985l-.094.728c-.048.368-.326.524-.62.348l-26.647-15.307a1.07 1.07 0 0 1-.445-.985z" transform="translate(-1433.367 -711.463)"/>
                                <g id="Group_2854" transform="translate(3.418 4.503)">
                                    <path id="Path_8510" d="M1394.448 700.737l-.581 4.189 3.549.1z" class="cls-21" transform="translate(-1392.143 -699.304)"/>
                                    <path id="Path_8511" d="M1381.651 695.535a5.237 5.237 0 0 1-2.206-4.6c.171-1.692 1.436-2.374 2.824-1.525a5.236 5.236 0 0 1 2.206 4.6c-.171 1.692-1.436 2.375-2.824 1.525zm-.072.717c1.714 1.049 3.275.206 3.485-1.881a6.461 6.461 0 0 0-2.722-5.68c-1.714-1.049-3.274-.207-3.485 1.881a6.462 6.462 0 0 0 2.722 5.68z" class="cls-21" transform="translate(-1378.833 -688.24)"/>
                                </g>
                                <g id="Group_2855" transform="translate(1.898 14.525)">
                                    <path id="Path_8512" d="M1381.2 788.116l-.581 4.189 3.549.1z" class="cls-21" transform="translate(-1378.891 -786.682)"/>
                                    <path id="Path_8513" d="M1368.4 782.913a5.237 5.237 0 0 1-2.206-4.6c.171-1.692 1.436-2.374 2.825-1.524a5.236 5.236 0 0 1 2.205 4.6c-.171 1.692-1.435 2.375-2.824 1.525zm-.072.717c1.714 1.049 3.274.207 3.485-1.881a6.461 6.461 0 0 0-2.722-5.68c-1.714-1.049-3.274-.207-3.485 1.881a6.462 6.462 0 0 0 2.721 5.68z" class="cls-21" transform="translate(-1365.581 -775.617)"/>
                                </g>
                                <path id="Path_8514" d="M1440.7 750.591c.038-.29.257-.413.489-.274l21 12.061a.843.843 0 0 1 .351.777l-.074.573c-.038.29-.257.413-.489.274l-21-12.061a.843.843 0 0 1-.351-.777z" class="cls-21" transform="translate(-1430.115 -738.644)"/>
                                <path id="Path_8515" fill="url(#linear-gradient-17)" fill-rule="evenodd" d="M1433.374 813.393c.048-.368.326-.524.62-.348l26.647 15.307a1.071 1.071 0 0 1 .445.986l-.094.728c-.048.368-.326.524-.62.348l-26.647-15.307a1.069 1.069 0 0 1-.445-.985z" transform="translate(-1423.611 -794.163)"/>
                                <path id="Path_8516" d="M1429.679 844.005c.038-.29.257-.413.489-.274l21 12.061a.844.844 0 0 1 .351.777l-.074.573c-.038.29-.257.413-.489.274l-21-12.061a.842.842 0 0 1-.351-.777z" class="cls-21" transform="translate(-1420.358 -821.343)"/>
                            </g>
                        </g>
                    </g>
                    <g id="Group_2871" transform="translate(75.296 65.659)">
                        <g id="Group_2859" transform="translate(15.601)">
                            <path id="Path_8517" d="M1869.891 962.169c.276-2.208 1.945-3.063 3.726-1.905l37.872 22.946a6.873 6.873 0 0 1 2.724 6.1l-2.008 16.536c-.277 2.208-1.947 3.062-3.727 1.905l-37.872-22.951a6.871 6.871 0 0 1-2.724-6.1z" class="cls-10" transform="translate(-1867.843 -959.747)"/>
                            <path id="Path_8518" d="M2082.776 1117.833c.2-1.584 1.4-2.2 2.674-1.367l13.1 8.1a4.933 4.933 0 0 1 1.955 4.375l-1.441 11.867c-.2 1.584-1.4 2.2-2.674 1.368l-13.1-8.1a4.931 4.931 0 0 1-1.955-4.374z" class="cls-38" transform="translate(-2056.822 -1098.162)"/>
                            <path id="Path_8519" d="M1905.619 1005.725c.2-1.584 1.4-2.2 2.674-1.367l13.1 8.1a4.933 4.933 0 0 1 1.955 4.375l-1.441 11.867c-.2 1.584-1.4 2.2-2.675 1.367l-13.1-8.1a4.931 4.931 0 0 1-1.955-4.374z" class="cls-38" transform="translate(-1899.985 -998.913)"/>
                        </g>
                        <g id="Group_2862" transform="translate(21.716 11.755)">
                            <g id="Group_2861">
                                <g id="Group_2860" fill-rule="evenodd">
                                    <path id="Path_8520" fill="url(#linear-gradient-18)" d="M1921.152 1071.473l6.674-9.245 1.294 9.8 3.252-3.534 1.915 10.483z" transform="translate(-1921.152 -1062.228)"/>
                                    <path id="Path_8521" fill="#ffdb59" d="M2006.3 1065.636a1.762 1.762 0 0 1 1.2 1.866c-.051.885-.671 1.485-1.385 1.34a1.762 1.762 0 0 1-1.2-1.866c.049-.885.669-1.485 1.385-1.34z" transform="translate(-1995.303 -1065.226)"/>
                                </g>
                            </g>
                        </g>
                        <g id="Group_2863" transform="translate(44.237 23.551)">
                            <path id="Path_8522" d="M2144.768 1186.9l-1.014 7.315 6.2.168z" class="cls-41" transform="translate(-2140.743 -1184.398)"/>
                            <path id="Path_8523" d="M2122.418 1177.818a9.145 9.145 0 0 1-3.852-8.039c.3-2.955 2.507-4.147 4.933-2.662a9.145 9.145 0 0 1 3.852 8.039c-.3 2.955-2.507 4.148-4.933 2.663zm-.126 1.252c2.993 1.833 5.719.361 6.087-3.286a11.283 11.283 0 0 0-4.753-9.92c-2.993-1.832-5.719-.361-6.087 3.285a11.284 11.284 0 0 0 4.753 9.921z" class="cls-41" transform="translate(-2117.497 -1165.076)"/>
                        </g>
                        <g id="Group_2870" transform="translate(0 9.675)">
                            <path id="Path_8524" d="M1766.037 1649.511l-18.137-10.331c-1.978-.9-4.808-1.623-6.823-.574-1.836.955-4.86 2.911-6.2 3.673-1.016.579-4.542 2.692-2.346 3.886 6.46 3.513 12.853 7.464 19.413 11.032a9.2 9.2 0 0 0 4.961.761 13.134 13.134 0 0 0 5.373-1.6l3.217-1.873c1.423-.828 2.177-1.808 2.252-2.714.073-.886-.496-1.706-1.71-2.26z" class="cls-42" transform="translate(-1731.824 -1569.955)"/>
                            <g id="Group_2869" transform="translate(7.369)">
                                <path id="Path_8525" fill="url(#linear-gradient-21)" fill-rule="evenodd" d="M1818.462 1332.424a5.239 5.239 0 0 1-.306.741c-.217.237-.487.38-.614.649-.68 1.445-.829 2.838-.356 10.256l1.741.037.223-2.62c.216-1.062.812-2.616 1.053-3.579.517-2.061.574-3.112.882-4.613l.017-.01c1.908-5.818 3.879-11.538 5.464-17.4l5.435-15.763.173-4.227a3.966 3.966 0 0 0-.551-1.718c-2.8.825-4.366 1.714-7.373 1.607a12.816 12.816 0 0 0-2.184 5.749 58.723 58.723 0 0 1-.928 12.339c-3.351 11.28-1.405 11.085-2.676 18.552z" transform="translate(-1814.521 -1265.495)"/>
                                <g id="Group_2864" transform="translate(0 67.475)">
                                    <path id="Path_8526" fill="#1f202b" fill-rule="evenodd" d="M1796.836 1677.539a2.774 2.774 0 0 1-.589-.086c-.09-.1-.259-.592-.136-.685.22-.145.666.632.725.771z" transform="translate(-1796.068 -1671.66)"/>
                                    <path id="Path_8527" d="M1801.6 1657.769a3.386 3.386 0 0 1-.3 1.991c-.728 2.4-1.155 2.54-.847 3.628a4.862 4.862 0 0 0 1.065 1.91 6.154 6.154 0 0 0 1.22 1.343c.912.63 1.724.925 1.526-.34a6.084 6.084 0 0 0-.3-1.173c-.646-1.5-1.4-2.16-.991-4.033.3-1.391.784-2.308.159-3.245z" class="cls-45" transform="translate(-1799.865 -1654.855)"/>
                                    <path id="Path_8528" d="M1798.28 1633.782a7.843 7.843 0 0 1-1.838 3.695c.145-.039.516.341.721.761 1.505-1.73 2.237-2.572 2.7-1.827a23.719 23.719 0 0 1-.466 2.64 2.633 2.633 0 0 0 .051 1.372c.591 1.419 1.675 3.49 1.261 4.169a2.453 2.453 0 0 0 .307-1.355c0-.979-.169-2.306-.19-3.121-.028-1.1.388-2.057.455-3.558a11.986 11.986 0 0 0 0-1.257c-.063-1.061-.179-2.468-.926-2.866a1.919 1.919 0 0 0-1.313.142 1.566 1.566 0 0 0-.762 1.205z" class="cls-46" transform="translate(-1796.4 -1632.369)"/>
                                </g>
                                <path id="Path_8529" fill="url(#linear-gradient-22)" fill-rule="evenodd" d="M1901.475 1357.126c-.135 1.12-1.157 2.19-1.282 2.92-.3 1.76.974.845 2.417 3.107.578 0 1.85 2.077 3.573 2.187a.926.926 0 0 0 .32-1.614c-.348-.2-.659-.052-.946-.3-.56-.5-1.215-4.348-1.177-5.851 1.561-8.287 2.548-16.187 4.105-24.294a31.788 31.788 0 0 0 .668-9.595 12.98 12.98 0 0 0-.488-4.227 10.091 10.091 0 0 0-.82-1.719c-2.67.825-4.662 1.634-7.687 1.528a8.674 8.674 0 0 0-1.042 5.034c.488 3.7 2.339 6.385 2.749 12.722-1.993 6.969.076 12.533-.394 20.062l.004.04z" transform="translate(-1887.246 -1286.352)"/>
                                <path id="Path_8530" fill="url(#linear-gradient-23)" fill-rule="evenodd" d="M1857.725 1194.525c.409-2.5.839-5.01 1.324-7.536a31.8 31.8 0 0 0 .668-9.595 12.974 12.974 0 0 0-.488-4.226 8.884 8.884 0 0 1-.523-1.305c-.845-1.863-.961-7.346-.955-7.395.4-2.9 1.976-3.926 1.126-6.409a14.28 14.28 0 0 0-4.058-3.184 21.075 21.075 0 0 0-6.692-2.362c-3.126-.353-3.134 4.8-2.046 7.227 2.168 4.837 2.326 7.312 1.217 10.988a12.414 12.414 0 0 0-1.944 5.376 58.734 58.734 0 0 1-.928 12.339c-.52 1.75-.912 3.224-1.208 4.493 2.282 4.158 9.771 3.788 14.507 1.589z" transform="translate(-1837.811 -1140.062)"/>
                                <g id="Group_2865" transform="translate(12.248 72.344)">
                                    <path id="Path_8531" d="M1904.19 1674.816c1.4.172 2.7 3.586 3.785 5.07.525.721 1.639-.023 1.187-.216a11.677 11.677 0 0 1 1.7.016c.877.141.569 1.02-.027 1.432-1.328.917-2.506 1.433-3.709.826a5.686 5.686 0 0 1-.738-.491 3.685 3.685 0 0 1-.491-.4 13.473 13.473 0 0 1-.895-1.858c-.118-.212-.214-.257-.29-.2a23.773 23.773 0 0 0 .078 3.889c-.039.176-.638.315-.758.181l-1.111-5.453a1.945 1.945 0 0 1 .145-1.4 12.084 12.084 0 0 1 1.124-1.396z" class="cls-46" transform="translate(-1902.853 -1674.816)"/>
                                    <path id="Path_8532" d="M1922.873 1713.882a2.5 2.5 0 0 1-.713-.237 5.735 5.735 0 0 1-.738-.491 3.691 3.691 0 0 1-.491-.4c-.422-.505-.628-1.445-1.1-2.089.156-.1.565-.086.974.588a6.489 6.489 0 0 0 1.85 2.512 1.234 1.234 0 0 0 .218.117z" class="cls-45" transform="translate(-1917.887 -1706.516)"/>
                                </g>
                                <path id="Path_8533" fill="#107cce" fill-rule="evenodd" d="M1822.075 1164.415l5.333 1.217c1.071.48.26 2.75-.8 3.016l-7.445-.963c-1.9-.4-2.313-1.653-1.9-2.628l.028-.06a80.162 80.162 0 0 1 4.467-6.794 7.95 7.95 0 0 1 1.885-1.887 2.063 2.063 0 0 1 2.054.057 1.551 1.551 0 0 1 .724 1.967c-.546 1.31-2.621 3.875-4.346 6.075z" transform="translate(-1814.704 -1143.225)"/>
                                <g id="Group_2866" fill-rule="evenodd" transform="translate(15.88 15.146)">
                                    <path id="Path_8534" fill="url(#linear-gradient-24)" d="M2062.452 1179.979c1.277-.779 3-2.255 4.18-2.415.746-.379 1.851-1 2.559-1.374.517-.273.737.621.292.915s-1.609 1.007-1.613 1.009l-.051.02a2.479 2.479 0 0 1 .256 1.6c-.113.617-1.477 1.4-2.332 1.976-.758.507-1.669.126-2.181.527-.862-.402-1.008-1.418-1.11-2.258z" transform="translate(-2047.778 -1176.14)"/>
                                    <path id="Path_8535" fill="url(#linear-gradient-25)" d="M1943.272 1189.529a47.341 47.341 0 0 1 4.627-3.027c.23-.143.577-.138.758-.247.224-.135.406-.24.534-.309a4.54 4.54 0 0 1 1.426 2.138c-.19.165-.381.338-.572.519-.147.14-.3.62-.448.767a34.366 34.366 0 0 1-4.235 4.086 15.322 15.322 0 0 1-1.729 1.255 1.824 1.824 0 0 1-2.192-.719c-.411-.37-.778-.776-1.011-.993a44.646 44.646 0 0 1-5.124-5.161c-1.056-1.417-.881-2.193-.466-2.931.966-1.717 2.425-2.817 4.037-1.261a25.245 25.245 0 0 1 1.939 2.832c.736.954 1.661 2.008 2.456 3.051z" transform="translate(-1934.517 -1182.122)"/>
                                </g>
                                <path id="Path_8536" fill="#0960ac" fill-rule="evenodd" d="M1848.127 1152.512a2.01 2.01 0 0 0-2.08 1.033l-.051.088-.023.042-.038.072-.011.022q-.024.048-.046.1l-.016.036-.038.088-.008.018-.043.11-.011.031-.031.088-.01.029q-.019.056-.036.113l-.008.028-.027.1-.008.029-.032.125-.028.122-.007.031-.023.115v.015l-.022.124-.007.04-.017.114v.011l-.017.127-.005.046-.011.1v.034l-.012.134v.022l-.008.106v.048l-.006.124v.479q0 .148.008.3v.021l.007.124v.031l.01.143v.009l.011.124v.038l.013.13v.034l.015.121v.016l.019.14v.025l.018.12v.029l.022.131v.024l.022.118v.025q.026.133.055.263l.008.035.027.113v.017l.034.132v.012c.023.086.046.171.072.255l.01.032.029.092.011.034.036.108.01.029.033.093.008.022.043.113v.008l.039.1.012.028.045.1c2.168 4.837 2.326 7.312 1.217 10.988a12.416 12.416 0 0 0-1.943 5.376 58.719 58.719 0 0 1-.928 12.339c-.52 1.75-.912 3.224-1.208 4.493 1.05 1.913 3.2 2.867 5.68 3.127 10.215-11.222-4.2-15.25 1.281-25.542.625-1.173 4.46-2.666 5.419-4.116 2.055-2.412 2.869-4.792-.235-8.63-.515-.637-.9-.97-1.59-1.932-1.128.266-3.228-.107-3.48-.568-.088-.16.357-1.57.285-1.742-1.915-.859-1.299-.898-2.435-1.026z" opacity="0.3" transform="translate(-1837.81 -1140.061)"/>
                                <g id="Group_2868" transform="translate(1.421)">
                                    <g id="Group_2867" transform="translate(8.28 .957)">
                                        <path id="Path_8537" fill="url(#linear-gradient-26)" fill-rule="evenodd" d="M1884.948 1112.037c-.242 1.027 3.507 2.136 4.792 1.578l.027-.249c.331-1.532.657-2.834.886-3.91a3.7 3.7 0 0 0 2.193.124c-3.952-3.156-8.574-5.49-9.168-3.9a11.409 11.409 0 0 0 1.909 2.727 2.366 2.366 0 0 1 .265 1.033 11.153 11.153 0 0 1-.904 2.597z" transform="translate(-1883.33 -1099.121)"/>
                                        <path id="Path_8538" d="M1890.143 1062.917c-.341.222-2.76-.582-2.955-.573-1.882.093-3.908-.06-4.281-.615A11.412 11.412 0 0 1 1881 1059a4.745 4.745 0 0 1 1.183-5.375c2.933-2.519 7.535-.673 8.194 2.18.27 1.17-.065 1.267-.009 2.051a12.124 12.124 0 0 1 .133 3.185c-.054.874-.132 1.729-.358 1.876z" class="cls-54" transform="translate(-1880.649 -1052.44)"/>
                                        <path id="Path_8539" fill="#00cedc" fill-rule="evenodd" d="M1893.779 1153.044c.1.934 2.733 1.593 4.328 1.221.171-.04.277-.072.338-.181a3.426 3.426 0 0 1 .946 1.51c-1.379 1.329-5.735.55-6.265-1.007a1.171 1.171 0 0 1 .653-1.543z" transform="translate(-1891.619 -1141.504)"/>
                                    </g>
                                    <path id="Path_8540" fill="url(#linear-gradient-27)" fill-rule="evenodd" d="M1811.639 1053.493c-2.508 2.1-3.92 5.874-2.779 8.016 1.034 1.942 3.556 3.084 2.78 4.313-.641 1.016-2.151 2.035-.355 3.675.925.845 3.183 3.11 7.794 1.937 4.494-1.144 9.209-5.026 5.423-9.27-3.984-4.467-1.654-5.454.632-8.967 1.209-1.857 2.289-5.528 1.254-6.893-1.776-2.342-2.955-.654-4.663-1.482-3.259-1.578-5.931-.45-7.464 2.018-1.373 2.208-.628 4.986-2.622 6.653z" transform="translate(-1808.459 -1044.093)"/>
                                </g>
                            </g>
                        </g>
                    </g>
                    <g id="Group_2880" transform="translate(0 55.382)">
                        <path id="Path_8541" d="M1099.449 1594.248l20.7-11.792c2.257-1.031 5.488-1.852 7.787-.656 2.1 1.091 5.547 3.322 7.073 4.193 1.159.661 5.184 3.072 2.677 4.435-7.373 4.009-14.67 8.519-22.157 12.591a10.5 10.5 0 0 1-5.662.868 14.988 14.988 0 0 1-6.133-1.826l-3.672-2.137c-1.624-.946-2.485-2.064-2.57-3.1-.077-1.007.572-1.943 1.957-2.576z" class="cls-42" transform="translate(-1094.953 -1499.649)"/>
                        <g id="Group_2872" transform="translate(10.788 90.095)">
                            <path id="Path_8542" d="M1171.928 1680.673c.469-.011 2.051-1.5 3.549-.747 1.8.9 5.216.1 6.94.517.307.073.908-.152 1.026.058.372.661.731 1.648-.182 2.295a15.623 15.623 0 0 1-3.056 1.439 25.772 25.772 0 0 1-3.866 1.094 5 5 0 0 0-2.33.649 3.392 3.392 0 0 1-1.777.427 3 3 0 0 1-2.266-1.582 6.768 6.768 0 0 1 .018-2.509 12.673 12.673 0 0 1 .8-2.19z" class="cls-10" transform="translate(-1169.81 -1676.952)"/>
                            <path id="Path_8543" d="M1182.909 1656.149c-.569 1.366-.394 3.481-1.744 4.215a2.006 2.006 0 0 1-2.929-.906c-.343-.782.113-2.117.012-3.833z" class="cls-57" transform="translate(-1177.11 -1655.625)"/>
                            <path id="Path_8544" d="M1175.6 1669.642c1.034.3 3.888.1 5.692.246.776.063 1.471.057 1.834.761.334.648.159 1.2-.6 1.737a12.781 12.781 0 0 1-2.757 1.353 25.873 25.873 0 0 1-3.866 1.094 5 5 0 0 0-2.33.649 3.393 3.393 0 0 1-1.778.428 3.13 3.13 0 0 1-2.266-1.682 6.229 6.229 0 0 1 .018-2.409 4.437 4.437 0 0 1 .132-.51c.142-1.358.59-1.907 1.013-1.674a2.61 2.61 0 0 1 1.017 1.361 1.33 1.33 0 0 0 .787.75 1.553 1.553 0 0 0 1.733-.761 4.9 4.9 0 0 0 .475-1.376v-.138c.136-1.187.713-1.083.626-.833a1.021 1.021 0 0 0 .27 1.004z" class="cls-58" transform="translate(-1169.427 -1667.002)"/>
                            <path id="Path_8545" d="M1285.7 1684.436c-.014.459.689.5.486 1.309.338-.332-.134-1.283-.343-1.427-.082-.06-.155-.084-.143.118z" class="cls-10" transform="translate(-1272.364 -1680.989)"/>
                        </g>
                        <g id="Group_2873" transform="translate(22.448 84.532)">
                            <path id="Path_8546" d="M1279.823 1614.9c.437-.171 1.411-2.112 3.076-1.922a8.472 8.472 0 0 0 2.848-.41c1.748-.5 4.183-2.059 4.6-1.8a1.635 1.635 0 0 1 .342 2.494 12.8 12.8 0 0 1-2.123 2.219 22.456 22.456 0 0 1-3 2.279c-.961.533-1.281.486-1.965 1.411a3.209 3.209 0 0 1-1.521.963 3.618 3.618 0 0 1-2.973-1.116 6.161 6.161 0 0 1-.539-3.706z" class="cls-10" transform="translate(-1277.604 -1610.325)"/>
                            <path id="Path_8547" d="M1275.6 1607.127c-.027 1.48.913 3.382-.071 4.561a2.006 2.006 0 0 1-3.058.234c-.606-.6-.673-2.01-1.4-3.568z" class="cls-57" transform="translate(-1271.078 -1607.127)"/>
                            <path id="Path_8548" d="M1283.682 1610.8q.149-.039.3-.082c1.748-.5 4.084-1.7 4.5-1.445a1.3 1.3 0 0 1 .442 2.136 12.79 12.79 0 0 1-2.123 2.219 22.452 22.452 0 0 1-3 2.279c-.961.533-1.281.486-1.964 1.411a3.214 3.214 0 0 1-1.522.963 3.715 3.715 0 0 1-3.017-1.123 8.922 8.922 0 0 1-.613-2.568c-.146-1.316-.055-1.986.518-1.969a3.175 3.175 0 0 1 1.945.867c.948.591 1.583-.172 1.738-1.117a5.517 5.517 0 0 0-.087-1.248c-.015-.044-.031-.087-.049-.13-.31-1.154.265-1.269.275-1a.989.989 0 0 0 .879 1.008 7.742 7.742 0 0 0 1.778-.201z" class="cls-58" transform="translate(-1275.989 -1608.997)"/>
                            <path id="Path_8549" d="M1378.684 1609.481c.185.42.839.156 1 .971.163-.445-.673-1.1-.924-1.14-.1-.012-.177-.012-.076.169z" class="cls-10" transform="translate(-1366.3 -1609.056)"/>
                        </g>
                        <path id="Path_8550" fill="url(#linear-gradient-28)" fill-rule="evenodd" d="M1125.861 1009.9c3.476 4.034 3.529 4.348 10.319 8.337l1.292-2.543c-2.279-4.667-2.96-5.288-5.919-8.921a34.457 34.457 0 0 0 6.96-6.546c4.429-5.911 1.969-10.019-1.857-9.186-3.337.726-8.543 9.365-11.375 14.236-1.181 2.032-1.465 2.255.58 4.623z" transform="translate(-1118.74 -977.083)"/>
                        <path id="Path_8551" fill="#0960ac" fill-rule="evenodd" d="M1193.515 1006.831a34.238 34.238 0 0 0 5.815-5.706c4.428-5.911 1.841-9.9-1.985-9.068-1.997.61-5.558 4.834-3.83 14.774z" transform="translate(-1179.557 -977.977)" style="mix-blend-mode:multiply;isolation:isolate" opacity="0.35"/>
                        <g id="Group_2874" fill-rule="evenodd" transform="translate(15.673 40.034)">
                            <path id="Path_8552" fill="url(#linear-gradient-29)" d="M1222.309 1223.693c.382 4.289 2.532 17.988 1.934 21.749-.9 5.655-.643 12.488-.632 18.49-.152 2.522-3.619 3.84-4.629 2.238-.811-5.363-1.963-10.062-2.432-13.043-.525-3.338-.352-7.393.5-9.586a114.143 114.143 0 0 0-3.346-12.861c-.492-1.546-3.283-6.54-.395-11.5z" transform="translate(-1212.013 -1219.175)"/>
                            <path id="Path_8553" fill="url(#linear-gradient-30)" d="M1275.835 1595.348c0 .445-.014 1.123-.013 1.56-.152 2.522-3.663 3.89-4.672 2.287-.06-.4-.146-.787-.21-1.175 1.36 1.463 4.018-.437 4.895-2.672z" transform="translate(-1264.182 -1552.201)"/>
                            <path id="Path_8554" d="M1251.143 1286.655c-1.131 5.671-4.329 13.247-6.075 18.949-.909-4.886-3.183-13.206-1.216-18.3-.2-1.365-.813-3.957-1.558-6.727 1.513-2.869.067-5.159.782-9.2 4.006-.7-2.04-5.588 6.438-.438.758 6.088 1.471 9.915 1.629 15.716z" transform="translate(-1238.821 -1262.94)" style="mix-blend-mode:multiply;isolation:isolate" fill="#1e2353" opacity="0.3"/>
                        </g>
                        <g id="Group_2875" fill-rule="evenodd" transform="translate(11.414 42.634)">
                            <path id="Path_8555" fill="url(#linear-gradient-31)" d="M1189.81 1268.336c-2.311 5.232-6.576 15.5-8.844 21.918-1.173 1.705-5.357 1.528-5.349-.063.923-5.369 2.009-13.649 3.937-18.358a42.228 42.228 0 0 1 3.551-5.937c.61-2.37 1.374-8.769 1.964-12.233-.529-2.866-2.841-7.657 1.6-11.821 1.792 1.274 7.332 2.072 9.844.652.406 11.319-2.373 16.04-6.703 25.842z" transform="translate(-1175.533 -1241.842)"/>
                            <path id="Path_8556" fill="url(#linear-gradient-32)" d="M1180.785 1654.157c-.1.281-.3.848-.4 1.116-1.208 1.756-5.515 1.573-5.507-.065q.069-.4.138-.816c1.031 1.047 4.136 1.061 5.769-.235z" transform="translate(-1174.882 -1606.864)"/>
                        </g>
                        <path id="Path_8557" fill="url(#linear-gradient-33)" fill-rule="evenodd" d="M1206.462 1006.125c.373 3.363-.638 6.669.391 9.739.046.317.075 1.562.13 1.9.678 3.977 9.089 8 16.1 4.185.039-.493-.006-1.008.032-1.921a10.889 10.889 0 0 1 .236-2.287c-.01-2.164-.684-3.271-.361-5.679.657-4.9 3.371-9.607 1.87-13.462a4.1 4.1 0 0 0-1.527-1.742c-1.658-1.332-10.232-5.7-12.831-6.006-7.541-.979-4.444 11.626-4.04 15.273z" transform="translate(-1190.567 -976.959)"/>
                        <path id="Path_8558" d="M1310.627 1069.4c.295-1.282 2.077-9.649 2.455-11.153.759-3.014 1.377-6.149.621-8.091-.9-2.65-5.083-.233-5.684 3.336-.719 4.269-5.806 16.272 2.608 15.908z" transform="translate(-1279.405 -1028.512)" style="mix-blend-mode:multiply;isolation:isolate" fill="#17acc8" fill-rule="evenodd" opacity="0.35"/>
                        <g id="Group_2876" transform="translate(19.109)">
                            <path id="Path_8559" fill="#e7a376" fill-rule="evenodd" d="M1254.371 892.485c-.477.236-2.9-.107-2.828.11.035 1.084.358 1.741.462 3.226-2.663-.372-6.157-.757-6.3-2.8.011-.164.021-.327.027-.487 0-.019.005-.037.009-.056h-.007a3.621 3.621 0 0 0-.214-1.75c-.564-.912-1.723-1.928-2.133-3.31a5.614 5.614 0 0 1 1.643-6.3c3.762-2.987 8.572-.862 9.791 3.508.238.853-.435 1.315-.411 2.045 0 .143.194.292.347.608.215.437.199 4.921-.386 5.206z" transform="translate(-1242.94 -878.627)"/>
                            <path id="Path_8560" fill="url(#linear-gradient-34)" fill-rule="evenodd" d="M1254.346 892.46c-.477.237-2.874-.082-2.8.135.035 1.084.357 1.741.462 3.226-1.547.38-5.718-.176-6.342-2.523a14.472 14.472 0 0 0-.139-2.571c-.564-.912-1.723-1.928-2.133-3.31a5.614 5.614 0 0 1 1.643-6.3c3.762-2.987 8.572-.862 9.791 3.508.238.853-.435 1.315-.411 2.045 0 .143.194.292.347.608.208.438.167 4.893-.418 5.182z" transform="translate(-1242.94 -878.627)"/>
                            <path id="Path_8561" fill="url(#linear-gradient-35)" fill-rule="evenodd" d="M1254.272 892.485a3.872 3.872 0 0 1-2.078-.253 3.627 3.627 0 0 1-.922-.64c-.323-.13-1.039-1.147.071-2.767 1.082-1.579-5.472 2.463-5.819 1.9-.564-.912-1.723-1.928-2.133-3.31a5.614 5.614 0 0 1 1.643-6.3c3.762-2.987 8.572-.862 9.791 3.508.238.853-.435 1.315-.411 2.045 0 .143.194.292.347.608.211.44.086 4.9-.489 5.209z" transform="translate(-1242.94 -878.627)"/>
                            <path id="Path_8562" d="M1304.625 957.585c-1.348-1.256-2.649 2.74-.48 2.7a1.863 1.863 0 0 1 .48-2.7z" class="cls-54" transform="translate(-1295.989 -947.339)"/>
                            <path id="Path_8563" fill="#ffb49c" fill-rule="evenodd" d="M1308.177 959.066c.2-.559.032-.762-.214-.7a1.588 1.588 0 0 0-.853 1.033c-.322.934.139 2.114 1.042 1.653-.776.045-.7-.89-.471-1.467.157-.393.401-.671.496-.519z" transform="translate(-1299.547 -948.236)"/>
                            <path id="Path_8564" d="M1312.391 966.766c.217.4.292.644.222.783-.049.1-.2.206-.443-.031a1.394 1.394 0 0 1 .221-.752z" class="cls-54" transform="translate(-1304.118 -955.683)"/>
                            <path id="Path_8565" fill="#562e65" fill-rule="evenodd" d="M1251.94 878.127l.052-.028a2.306 2.306 0 0 0 .761-3.642c-1.477-1.311-5.486-1.174-8.028.135-2.587 1.332-3.221 4.648-2.448 7.253.515 1.734 1.767 2.639 2.393 3.953a1.573 1.573 0 0 0 1.593.581c1.794-.371 2.209-2.264 3.287-3.1.592-.457 1.2-.579 1.422.668.043.548.051 1.1.091 1.609.063.793-.135.941.537 1.213a6.026 6.026 0 0 0 2.113.432c.167-.066.157-1.056.126-1.795-.068-.006-.071.254-.105.249-.066-.01-.146-.026-.241-.036a2.9 2.9 0 0 1 .107-.9 1.415 1.415 0 0 1 .3-.673 1.145 1.145 0 0 0 .036-.581 1.828 1.828 0 0 0-.767 1.082 5.448 5.448 0 0 0-.2.983 1.864 1.864 0 0 1-.919-.3 3.493 3.493 0 0 1-.581-1.84 3.442 3.442 0 0 1 .816-2.843c.217-.309.227-.94-.309-2.346-.017-.021-.027-.047-.036-.074z" transform="translate(-1241.969 -873.151)"/>
                            <path id="Path_8566" fill="url(#linear-gradient-36)" fill-rule="evenodd" d="M1288.929 874.248c-.558.7-2.956-.918-6.311-.3.719-2.217 1.134-2.687 2.142-3.336 1.314-.845 3.526-.5 4.22.665a2.791 2.791 0 0 1-.051 2.971z" transform="translate(-1277.955 -870.144)"/>
                        </g>
                        <path id="Path_8567" fill="#0ab7e4" fill-rule="evenodd" d="M1254.983 992.437c-.727.224-1.459.944-1.326 1.424.724 2.958 6.222 3.519 9.594 2.807.04-.008-1.312-1.781-1.958-1.991-2.122.207-5.656-.493-6.31-2.24z" transform="translate(-1233.193 -978.41)"/>
                        <g id="Group_2879" transform="translate(0 18.715)">
                            <path id="Path_8568" d="M1344.505 1362.662c-.388.593-.91.48-1.013 1.131a9.541 9.541 0 0 0 .9.456c.158.031.509-.267.53-.42 0-.036-.077-.52-.077-.52z" class="cls-54" transform="translate(-1312.738 -1324.885)"/>
                            <g id="Group_2877">
                                <path id="Path_8569" d="M1080.6 1063.516l-3.192 21.471-.313.036-.727-.319c-.037-.016-.072-.034-.106-.053h-.01a1.928 1.928 0 0 1-.841-2.209l3.193-19.812a.063.063 0 0 1 0-.009 7.6 7.6 0 0 1 2.1-3.833 6.924 6.924 0 0 1 2-1.5l49.8-23.616a2.634 2.634 0 0 1 2.121-.229l.64.283c.068.029.125.056.172.082.277.126.347.224.338.245-1.302 3.195-54.665 26.188-55.175 29.463z" class="cls-23" transform="translate(-1075.369 -1033.309)"/>
                                <path id="Path_8570" fill="url(#linear-gradient-37)" fill-rule="evenodd" d="M1090.086 1060.619l49.8-23.616a2.592 2.592 0 0 1 2.121-.23c.678.3 1.018 1.077.842 2.211l-3.194 19.812a8.052 8.052 0 0 1-4.1 5.334l-49.8 23.616c-1.953.927-3.281.039-2.967-1.978l3.194-19.813a8.06 8.06 0 0 1 4.104-5.336z" transform="translate(-1081.895 -1036.254)"/>
                                <path id="Path_8571" d="M1156.346 1152.969c.21-2.793-.644-3.756-2.132-3.4a3.725 3.725 0 0 0-.73.266c-1.556.745-3.449 2.739-4.5 6.1-.665 2.129-1.559 4.075-3.607 5.055-5.344 2.415.05-12.427-5.05-9.984-4.391 2.1-4.048 10.056-6.789 15.03a6.568 6.568 0 0 1-2.828 2.876c-3.076 1.385-2.246-3.18-2.124-5.105.561-8.9-.356-9.408-2.247-8.5-1.98.964-2.919 1.627-4.9 10.89-.807 3.788-1.78 7.176-4.854 8.716-3.411 1.635-2.811-1.849-3.718-3.571a1.785 1.785 0 0 0-2.579-.739 8 8 0 0 0-3.359 4.172 49.122 49.122 0 0 0-2.8 10.637l51.29-24.4c.295-2.726.745-5.629.927-8.043z" class="cls-23" transform="translate(-1100.838 -1136.172)"/>
                            </g>
                            <g id="Group_2878" transform="translate(31.018 32.537)">
                                <path id="Path_8572" d="M1350.109 1316.982a5.685 5.685 0 0 0 .923 1.6c.29.5.483.77.443 1.187a4.347 4.347 0 0 1-.667 2.4 14.4 14.4 0 0 1-4.376 1.662 3.356 3.356 0 0 0 .068-1.8 15.571 15.571 0 0 1-.677-1.473c-.136-.618.247-1.336.269-2.389z" class="cls-54" transform="translate(-1345.794 -1316.982)"/>
                                <path id="Path_8573" fill="#fa9" fill-rule="evenodd" d="M1347.449 1330.737c-.391.112-.745.2-1.016.263a3.356 3.356 0 0 0 .068-1.8 15.552 15.552 0 0 1-.677-1.472c-.136-.618.247-1.336.269-2.39l.869-.257-.021.159a6.481 6.481 0 0 0 .063 1.811c.33 1 .636 1.112.7 1.717a4.964 4.964 0 0 1-.255 1.969z" transform="translate(-1345.794 -1324.149)"/>
                            </g>
                            <path id="Path_8574" fill="url(#linear-gradient-38)" fill-rule="evenodd" d="M1325.776 1053.121c-.826 3.815-2.359 9.393-2.859 13.158l1.732 11.683c-.246 2-3.518 2.542-4.3 1.714l-3.3-12.669c.15-2.961 1.086-11.294 1.409-14.118.218-1.911 1.253-4.108 2.682-4.921 2.96-1.69 5.351 1.848 4.636 5.153z" transform="translate(-1289.325 -1045.901)"/>
                        </g>
                    </g>
                </g>
            </g>
        </g>
    </g>
</svg>
