<svg xmlns="http://www.w3.org/2000/svg" id="ic-actions-close-simple" width="24" height="24" viewBox="0 0 24 24">
    <defs>
        <style>
            .cls-2{fill:#fff}
        </style>
    </defs>
    <path id="Rectangle_32" fill="none" d="M0 0H24V24H0z"/>
    <g id="Layer" transform="translate(-.029)">
        <path id="Path_76" d="M4.93 19.07a1 1 0 0 1 0-1.41L17.66 4.93a1 1 0 1 1 1.41 1.41L6.34 19.07a1 1 0 0 1-1.41 0z" class="cls-2"/>
        <path id="Path_77" d="M4.93 4.93a1 1 0 0 1 1.41 0l12.73 12.73a1 1 0 1 1-1.41 1.41L4.93 6.34a1 1 0 0 1 0-1.41z" class="cls-2"/>
    </g>
</svg>
