<svg xmlns="http://www.w3.org/2000/svg" id="Layer" width="11.907" height="9.122" viewBox="0 0 11.907 9.122">
    <g id="Vrstva_122" data-name="Vrstva 122">
        <path id="Path_594" fill="#fff" fill-rule="evenodd" d="M14.724 10.06l-2.583-3.714a.6.6 0 0 0-.894-.074.843.843 0 0 0-.139 1.019l1.775 2.547H3.662a.77.77 0 0 0 0 1.525h9.22l-1.788 2.578a.85.85 0 0 0-.141.783.689.689 0 0 0 .544.5.633.633 0 0 0 .631-.335l2.583-3.714a.846.846 0 0 0 0-1.083z" data-name="Path 594" transform="translate(-3 -6.106)"/>
    </g>
</svg>
