<svg xmlns="http://www.w3.org/2000/svg" id="ic-actions-settings" width="16" height="16" viewBox="0 0 16 16">
    <defs>
        <style>
            .cls-2{fill:#fff;fill-rule:evenodd}
        </style>
    </defs>
    <path id="Rectangle_53" fill="none" d="M0 0H16V16H0z"/>
    <g id="Layer" transform="translate(.63 .64)">
        <g id="ic-actions1-03">
            <path id="Path_110" d="M10.667 8a2.667 2.667 0 1 0 2.667 2.667A2.667 2.667 0 0 0 10.667 8zm0 4A1.333 1.333 0 1 1 12 10.667 1.333 1.333 0 0 1 10.667 12z" class="cls-2" transform="translate(-3.333 -3.333)"/>
            <path id="Path_111" d="M13.927 6.02a2 2 0 0 0-.173-2.633l-.473-.473a2 2 0 0 0-2.667-.173A2 2 0 0 0 8.667 1H8a2 2 0 0 0-2 1.74 2 2 0 0 0-2.633.173l-.473.473A2 2 0 0 0 2.72 6.02 2 2 0 0 0 1 8v.667a2 2 0 0 0 1.74 2 2 2 0 0 0 .173 2.667l.473.473a2 2 0 0 0 2.633.173 2 2 0 0 0 2 1.74h.667a2 2 0 0 0 2-1.74 2 2 0 0 0 2.667-.173l.473-.473A2 2 0 0 0 14 10.667a2 2 0 0 0 1.74-2V8a2 2 0 0 0-1.813-1.98zm.407 2.667a.667.667 0 0 1-.667.667 1.207 1.207 0 0 0-.853 2.067.667.667 0 0 1 0 .94l-.473.473a.667.667 0 0 1-.94 0 1.207 1.207 0 0 0-2.067.833.667.667 0 0 1-.667.667H8a.667.667 0 0 1-.667-.667 1.207 1.207 0 0 0-2.067-.853.667.667 0 0 1-.94 0l-.473-.48a.667.667 0 0 1 0-.94A1.207 1.207 0 0 0 3 9.333a.667.667 0 0 1-.667-.667V8A.667.667 0 0 1 3 7.333a1.207 1.207 0 0 0 .853-2.067.667.667 0 0 1 0-.933l.48-.48a.667.667 0 0 1 .94 0A1.207 1.207 0 0 0 7.333 3 .667.667 0 0 1 8 2.333h.667A.667.667 0 0 1 9.333 3a1.207 1.207 0 0 0 2.067.853.667.667 0 0 1 .94 0l.473.473a.667.667 0 0 1 0 .94 1.207 1.207 0 0 0 .853 2.067.667.667 0 0 1 .667.667z" class="cls-2" transform="translate(-1 -1)"/>
        </g>
    </g>
</svg>
