<svg xmlns="http://www.w3.org/2000/svg" width="24" height="24" viewBox="0 0 24 24">
    <path fill="none" d="M0 0H24V24H0z"/>
    <g>
        <path fill="#fff" fill-rule="evenodd" d="M12 5.22l-1.47 4.54a1.21 1.21 0 0 1-1.14.83H4.62l3.85 2.8a1.21 1.21 0 0 1 .44 1.34l-1.47 4.54 3.85-2.81a1.23 1.23 0 0 1 1.42 0l3.85 2.81-1.47-4.54a1.21 1.21 0 0 1 .44-1.34l3.85-2.8h-4.77a1.21 1.21 0 0 1-1.14-.83zm-1.14-3a1.2 1.2 0 0 1 2.28 0l2.06 6.37h6.65a1.2 1.2 0 0 1 .7 2.17l-5.38 3.91L19.23 21a1.2 1.2 0 0 1-1.85 1.34L12 18.42l-5.38 3.91A1.2 1.2 0 0 1 4.77 21l2.06-6.32-5.38-3.92a1.2 1.2 0 0 1 .7-2.17H8.8z" transform="translate(.956 1.411) translate(-.956 -1.395)"/>
    </g>
</svg>
