<svg xmlns="http://www.w3.org/2000/svg" width="16" height="15.847" viewBox="0 0 16 15.847">
    <g id="ic-contact-chat">
        <path id="Rectangle_84" fill="none" d="M0 0H16V15.847H0z" data-name="Rectangle 84"/>
        <g id="Layer" transform="translate(.66 1.576)">
            <g id="Vrstva_148" data-name="Vrstva 148">
                <path id="Path_155" fill="#7ca1bb" d="M13.546 5.666h-1.981v-1.31A1.973 1.973 0 0 0 9.584 2.39h-6.6A1.973 1.973 0 0 0 1 4.356v3.931a1.973 1.973 0 0 0 1.981 1.966H4l.957 1.055v.236a1.973 1.973 0 0 0 1.981 1.966h2.349l1 1.12a1 1 0 0 0 1.486 0l1-1.12h.779a1.973 1.973 0 0 0 1.981-1.966V7.612a1.973 1.973 0 0 0-1.987-1.946zM2.981 8.942a.658.658 0 0 1-.66-.655V4.356a.658.658 0 0 1 .66-.655h6.6a.658.658 0 0 1 .66.655v3.931a.658.658 0 0 1-.66.655H6.9l-1.149 1.31L4.6 8.942zm11.225 2.621a.658.658 0 0 1-.66.655h-1.367L11.03 13.58l-1.149-1.362H6.943a.658.658 0 0 1-.66-.655 1.041 1.041 0 0 0 .2-.177l1-1.12h2.1A1.973 1.973 0 0 0 11.565 8.3V6.989h1.981a.658.658 0 0 1 .66.655z" data-name="Path 155" transform="translate(-1 -2.39)"/>
            </g>
        </g>
    </g>
</svg>
