<svg xmlns="http://www.w3.org/2000/svg" width="16" height="17" viewBox="0 0 16 17">
    <defs>
        <style>
            .cls-2{fill:#7ca1bb;fill-rule:evenodd}
        </style>
    </defs>
    <g id="ic-statistics-funnel">
        <path id="Rectangle_248" fill="none" d="M0 0H16V16H0z" data-name="Rectangle 248"/>
        <g id="Layer" transform="translate(1.387 .661)">
            <g id="Vrstva_245" data-name="Vrstva 245">
                <path id="Path_507" d="M13.526 9H6.494a.794.794 0 0 0-.72 1.118l1.367 3.043a.792.792 0 0 0 .74.47h4.47a.786.786 0 0 0 .733-.5l1.2-3.043A.794.794 0 0 0 13.526 9zm-1.558 3.307H8.2l-.891-1.984h5.434z" class="cls-2" data-name="Path 507" transform="translate(-3.328 -3.708)"/>
                <path id="Path_508" d="M14.383 1H2.894a.794.794 0 0 0-.72 1.118l1.367 3.043a.792.792 0 0 0 .72.47h8.927a.786.786 0 0 0 .733-.5l1.2-3.043A.794.794 0 0 0 14.383 1zm-1.558 3.307H4.6l-.887-1.984h9.9z" class="cls-2" data-name="Path 508" transform="translate(-2.105 -1)"/>
                <path id="Path_509" d="M12.669 17h-2.575a.794.794 0 0 0-.72 1.118l1.05 2.381a.792.792 0 0 0 .72.47h.6a.792.792 0 0 0 .74-.5l.938-2.381A.794.794 0 0 0 12.669 17zm-1.235 2.487l-.522-1.164h.977z" class="cls-2" data-name="Path 509" transform="translate(-4.551 -6.416)"/>
            </g>
        </g>
    </g>
</svg>
