<svg xmlns="http://www.w3.org/2000/svg" width="24" height="24" viewBox="0 0 24 24">
    <path fill="none" d="M0 0H24V24H0z"/>
    <g>
        <g>
            <path fill="#fff" d="M13 11.49h3.1A3 3 0 0 1 19 14a7 7 0 0 1 0 .8v.2h1a4.49 4.49 0 0 1 .83.11A3 3 0 0 1 23 17.6a6.69 6.69 0 0 1-.07 2.14A3 3 0 0 1 20 22h-4a3 3 0 0 1-3-2.63 6.47 6.47 0 0 1 0-2.06A3 3 0 0 1 15.67 15H17a1.73 1.73 0 0 0-.18-1.08 1 1 0 0 0-.8-.42H8a1 1 0 0 0-1 .93V15h1.32a3 3 0 0 1 2.62 2.41 3.6 3.6 0 0 1 .05.66 11.28 11.28 0 0 1 0 1.3 3 3 0 0 1-2.36 2.53A4.62 4.62 0 0 1 8 22H4.07a3 3 0 0 1-2.68-1.52A2.88 2.88 0 0 1 1 19v-1.12A3 3 0 0 1 3.67 15H5v-.77a3 3 0 0 1 2.42-2.67 3.39 3.39 0 0 1 .64-.06H11V10a.12.12 0 0 0-.09-.13A3.87 3.87 0 0 1 8.05 6.6 3.77 3.77 0 0 1 9 3.31 3.9 3.9 0 0 1 12.39 2a3.982 3.982 0 0 1 1.55 7.45 8.41 8.41 0 0 1-.87.37c-.05 0-.09 0-.09.1v1.48a.412.412 0 0 1 .02.09zM6 20h2a1 1 0 0 0 1-1v-1a1 1 0 0 0-1-1H4a1 1 0 0 0-1 1v.92A1 1 0 0 0 4.07 20zm12 0h2.06a1 1 0 0 0 .94-1v-1a1 1 0 0 0-1-1h-4a1 1 0 0 0-1 .82 3 3 0 0 0 0 .42v.71A1 1 0 0 0 16 20zM14 6a2 2 0 1 0-2 2 2 2 0 0 0 2-2z" transform="translate(-.027 .013)"/>
        </g>
    </g>
</svg>
