<svg xmlns="http://www.w3.org/2000/svg" id="Layer" width="14.867" height="16.354" viewBox="0 0 14.867 16.354">
    <defs>
        <style>
            .cls-1{fill:#307dd2;fill-rule:evenodd}
        </style>
    </defs>
    <g id="Vrstva_104" data-name="Vrstva 104">
        <path id="Path_115" d="M8.169 15.432a.669.669 0 0 0 .907.149l1.724-1.732 1.725 1.732a.788.788 0 0 0 1.056-1.056L11.849 12.8l1.732-1.725a.669.669 0 0 0-.149-.907.669.669 0 0 0-.907-.149L10.8 11.752 9.076 10.02a.669.669 0 0 0-.907.149.669.669 0 0 0-.149.907L9.752 12.8 8.02 14.525a.669.669 0 0 0 .149.907z" class="cls-1" data-name="Path 115" transform="translate(-3.516 -3.286)"/>
        <path id="Path_116" d="M15.975 1H2.892A.892.892 0 0 0 2 1.892v2.676a.892.892 0 0 0 .892.892h.595v9.664a2.23 2.23 0 0 0 2.23 2.23h7.433a2.23 2.23 0 0 0 2.23-2.23V5.46h.595a.892.892 0 0 0 .892-.892V1.892A.892.892 0 0 0 15.975 1zm-2.081 14.124a.743.743 0 0 1-.743.743H5.717a.743.743 0 0 1-.743-.743V5.46h8.92zM15.38 3.973H3.487V2.487H15.38z" class="cls-1" data-name="Path 116" transform="translate(-2 -1)"/>
    </g>
</svg>
