<svg xmlns="http://www.w3.org/2000/svg" width="12" height="13.11" viewBox="0 0 12 13.11">
    <defs>
        <style>
            .cls-1{fill:#fff}
        </style>
    </defs>
    <g id="Group_2190" transform="translate(581.383 -2655.025)">
        <path id="Path_3166" d="M-569.383 2657.541c0-.238-.1-.334-.333-.334-.812 0-1.624 0-2.436.007a.176.176 0 0 1-.193-.124c-.163-.4-.339-.8-.5-1.207a1.313 1.313 0 0 0-1.19-.852c-.909 0-1.818-.016-2.727.005a1.2 1.2 0 0 0-1.109.744c-.19.415-.356.841-.528 1.264a.227.227 0 0 1-.251.17c-.8-.011-1.6-.007-2.4-.006-.249 0-.335.092-.336.343v.393c0 .277.078.352.36.352h.732v8.026a2.679 2.679 0 0 0 .034.482 1.576 1.576 0 0 0 .87 1.229 2.241 2.241 0 0 0 .383.105h7.237a.3.3 0 0 1 .071-.023 1.052 1.052 0 0 0 .654-.319 1.828 1.828 0 0 0 .561-1.351v-8.144h.794a.264.264 0 0 0 .3-.3c.008-.154.007-.307.007-.46zm-7.751-.733c.073-.177.151-.352.22-.53a.23.23 0 0 1 .239-.163h1.838c.261 0 .523-.007.784.007a.263.263 0 0 1 .192.122c.134.292.25.593.371.891a.3.3 0 0 1 .008.073h-3.818c.061-.14.112-.271.165-.4zm5.584 3.435c0 .655-.007 1.309-.007 1.963s.007 1.318.007 1.977c0 .716-.009 1.431 0 2.147a1.1 1.1 0 0 1-.127.565.253.253 0 0 1-.247.149c-1.711-.005-3.422 0-5.132 0h-1.785a.226.226 0 0 1-.221-.125 1.017 1.017 0 0 1-.142-.535c.007-.393 0-.785 0-1.178s.006-.785.006-1.178-.006-.777-.006-1.165 0-.785.005-1.178 0-.777 0-1.165v-1.14-1.072h7.664c-.015.652-.014 1.292-.016 1.935z" class="cls-1"/>
        <path id="Path_3167" d="M-510.14 2760.989h-.414c-.239 0-.312.118-.312.5V2768.724c0 .278.082.432.241.44a4.357 4.357 0 0 0 .524 0c.152-.01.234-.159.234-.409v-7.331c-.001-.3-.088-.431-.273-.435z" class="cls-1" transform="translate(-67.4 -102.792)"/>
        <path id="Path_3168" d="M-416.1 2760.985h-.439c-.2 0-.28.135-.28.458v7.277c0 .292.091.434.269.437h.429c.219 0 .3-.131.3-.482v-3.6-3.639c.001-.319-.079-.448-.279-.451z" class="cls-1" transform="translate(-157.292 -102.788)"/>
        <path id="Path_3169" d="M-462.986 2760.987a3.393 3.393 0 0 0-.579 0c-.135.011-.213.165-.213.358q0 3.017.006 6.034v1.317c0 .3.083.451.269.451.152 0 .3-.009.456-.013.2-.006.271-.114.271-.435v-3.637-3.676c-.002-.251-.064-.386-.21-.399z" class="cls-1" transform="translate(-112.405 -102.778)"/>
    </g>
</svg>
