<svg xmlns="http://www.w3.org/2000/svg" id="Layer" width="9.429" height="7.71" viewBox="0 0 9.429 7.71">
    <g id="Vrstva_176" data-name="Vrstva 176">
        <path id="Path_198" fill="#fff" d="M9.083 4.92a.519.519 0 0 0-.429-.206h-.8v-.428A1.286 1.286 0 0 0 6.571 3H2.286A1.286 1.286 0 0 0 1 4.286v4.285a1.286 1.286 0 0 0 1.286 1.286h.077a1.286 1.286 0 0 0 2.417 0h1.44a1.286 1.286 0 0 0 2.421 0 .429.429 0 0 0 .073 0h1.2a.514.514 0 0 0 .514-.514V6.887a.5.5 0 0 0-.1-.309zM3.571 9.857A.429.429 0 1 1 4 9.429a.429.429 0 0 1-.429.428zm3.857 0a.429.429 0 1 1 .429-.429.429.429 0 0 1-.428.429zM9.571 9h-.857a.428.428 0 0 0-.073 0A1.286 1.286 0 0 0 6.22 9H4.78a1.286 1.286 0 0 0-2.417 0h-.077a.429.429 0 0 1-.429-.429V4.286a.429.429 0 0 1 .429-.429h4.285A.429.429 0 0 1 7 4.286v3a.429.429 0 1 0 .857 0V5.571H8.5L9.571 7z" data-name="Path 198" transform="translate(-1 -3)"/>
    </g>
</svg>
