<svg xmlns="http://www.w3.org/2000/svg" id="Layer" width="13.942" height="13.247" viewBox="0 0 13.942 13.247">
    <g id="Vrstva_281" data-name="Vrstva 281">
        <path id="Path_451" fill="#7ca1bb" d="M8.414 15.221H3.442a1.982 1.982 0 0 1-1.981-1.674 2.5 2.5 0 0 1 .066-.939c.231-1.125.456-2.256.66-3.38.213-1.019.413-2.038.621-3.05a1.982 1.982 0 0 1 1.75-1.541H5.3a.112.112 0 0 0 .112-.066c.231-.437.442-.88.7-1.323A2.588 2.588 0 0 1 8.09 2a2.7 2.7 0 0 1 2.773 1.468l.574 1.091a.1.1 0 0 0 .106.06h.74a1.982 1.982 0 0 1 1.723 1.541c.224 1.078.442 2.163.66 3.248s.449 2.216.66 3.307a1.98 1.98 0 0 1-1.921 2.461zm0-1.323h4.939a.661.661 0 0 0 .66-.84c-.119-.562-.231-1.125-.343-1.693L12.679 6.5a.661.661 0 0 0-.66-.536H4.756A.661.661 0 0 0 4.1 6.5c-.066.337-.139.661-.2 1.012Q3.336 10.253 2.768 13a.861.861 0 0 0 0 .43.66.66 0 0 0 .66.463zm1.525-9.261a.3.3 0 0 0 0-.06l-.3-.549a1.4 1.4 0 0 0-1.888-.542 1.494 1.494 0 0 0-.568.6c-.092.185-.191.364-.291.556z" data-name="Path 451" transform="translate(-1.443 -1.973)"/>
    </g>
</svg>
