<svg xmlns="http://www.w3.org/2000/svg" id="Layer" width="13.215" height="14.536" viewBox="0 0 13.215 14.536">
    <defs>
        <style>
            .cls-1{fill:#307dd2;fill-rule:evenodd}
        </style>
    </defs>
    <g id="Vrstva_104" data-name="Vrstva 104">
        <path id="Path_115" d="M8.14 14.818a.6.6 0 0 0 .806.132l1.533-1.54 1.533 1.54a.7.7 0 0 0 .938-.938l-1.54-1.533 1.54-1.533a.6.6 0 0 0-.132-.806.6.6 0 0 0-.806-.132l-1.533 1.54-1.533-1.54a.6.6 0 0 0-.806.132.6.6 0 0 0-.132.806l1.54 1.533-1.54 1.533a.6.6 0 0 0 .132.806z" class="cls-1" data-name="Path 115" transform="translate(-4.003 -4.021)"/>
        <path id="Path_116" d="M14.422 1H2.793A.793.793 0 0 0 2 1.793v2.379a.793.793 0 0 0 .793.793h.529v8.59A1.982 1.982 0 0 0 5.3 15.536h6.607a1.982 1.982 0 0 0 1.982-1.982v-8.59h.529a.793.793 0 0 0 .793-.793V1.793A.793.793 0 0 0 14.422 1zm-1.85 12.554a.661.661 0 0 1-.661.661H5.3a.661.661 0 0 1-.661-.661v-8.59h7.929zm1.321-9.911H3.321V2.321h10.572z" class="cls-1" data-name="Path 116" transform="translate(-2 -1)"/>
    </g>
</svg>
